%TF.GenerationSoftware,KiCad,Pcbnew,8.0.3*%
%TF.CreationDate,2024-06-23T18:20:20+02:00*%
%TF.ProjectId,PCF2131-breakout,50434632-3133-4312-9d62-7265616b6f75,rev?*%
%TF.SameCoordinates,Original*%
%TF.FileFunction,Copper,L1,Top*%
%TF.FilePolarity,Positive*%
%FSLAX46Y46*%
G04 Gerber Fmt 4.6, Leading zero omitted, Abs format (unit mm)*
G04 Created by KiCad (PCBNEW 8.0.3) date 2024-06-23 18:20:20*
%MOMM*%
%LPD*%
G01*
G04 APERTURE LIST*
G04 Aperture macros list*
%AMRoundRect*
0 Rectangle with rounded corners*
0 $1 Rounding radius*
0 $2 $3 $4 $5 $6 $7 $8 $9 X,Y pos of 4 corners*
0 Add a 4 corners polygon primitive as box body*
4,1,4,$2,$3,$4,$5,$6,$7,$8,$9,$2,$3,0*
0 Add four circle primitives for the rounded corners*
1,1,$1+$1,$2,$3*
1,1,$1+$1,$4,$5*
1,1,$1+$1,$6,$7*
1,1,$1+$1,$8,$9*
0 Add four rect primitives between the rounded corners*
20,1,$1+$1,$2,$3,$4,$5,0*
20,1,$1+$1,$4,$5,$6,$7,0*
20,1,$1+$1,$6,$7,$8,$9,0*
20,1,$1+$1,$8,$9,$2,$3,0*%
G04 Aperture macros list end*
%TA.AperFunction,Conductor*%
%ADD10C,0.200000*%
%TD*%
%TA.AperFunction,ComponentPad*%
%ADD11R,1.700000X1.700000*%
%TD*%
%TA.AperFunction,ComponentPad*%
%ADD12O,1.700000X1.700000*%
%TD*%
%TA.AperFunction,SMDPad,CuDef*%
%ADD13RoundRect,0.237500X-0.300000X-0.237500X0.300000X-0.237500X0.300000X0.237500X-0.300000X0.237500X0*%
%TD*%
%TA.AperFunction,SMDPad,CuDef*%
%ADD14RoundRect,0.237500X0.237500X-0.250000X0.237500X0.250000X-0.237500X0.250000X-0.237500X-0.250000X0*%
%TD*%
%TA.AperFunction,SMDPad,CuDef*%
%ADD15RoundRect,0.237500X-0.237500X0.300000X-0.237500X-0.300000X0.237500X-0.300000X0.237500X0.300000X0*%
%TD*%
%TA.AperFunction,SMDPad,CuDef*%
%ADD16R,0.300000X0.900000*%
%TD*%
%TA.AperFunction,SMDPad,CuDef*%
%ADD17R,3.850000X2.050000*%
%TD*%
%TA.AperFunction,ViaPad*%
%ADD18C,0.600000*%
%TD*%
%TA.AperFunction,Conductor*%
%ADD19C,0.300000*%
%TD*%
%TA.AperFunction,Conductor*%
%ADD20C,0.500000*%
%TD*%
G04 APERTURE END LIST*
%TO.N,GND*%
D10*
X113800000Y-70400000D02*
X114600000Y-70400000D01*
X114600000Y-72000000D01*
X113800000Y-72000000D01*
X113800000Y-70400000D01*
%TA.AperFunction,Conductor*%
G36*
X113800000Y-70400000D02*
G01*
X114600000Y-70400000D01*
X114600000Y-72000000D01*
X113800000Y-72000000D01*
X113800000Y-70400000D01*
G37*
%TD.AperFunction*%
X109200000Y-70400000D02*
X110200000Y-70400000D01*
X110200000Y-72000000D01*
X109200000Y-72000000D01*
X109200000Y-70400000D01*
%TA.AperFunction,Conductor*%
G36*
X109200000Y-70400000D02*
G01*
X110200000Y-70400000D01*
X110200000Y-72000000D01*
X109200000Y-72000000D01*
X109200000Y-70400000D01*
G37*
%TD.AperFunction*%
%TD*%
D11*
%TO.P,J2,1,Pin_1*%
%TO.N,GND*%
X126437776Y-64859577D03*
D12*
%TO.P,J2,2,Pin_2*%
%TO.N,INTA*%
X126437776Y-67399577D03*
%TO.P,J2,3,Pin_3*%
%TO.N,INTB*%
X126437776Y-69939577D03*
%TO.P,J2,4,Pin_4*%
%TO.N,CLKOUT*%
X126437776Y-72479577D03*
%TO.P,J2,5,Pin_5*%
%TO.N,SDA*%
X126437776Y-75019577D03*
%TO.P,J2,6,Pin_6*%
%TO.N,SCL*%
X126437776Y-77559577D03*
%TO.P,J2,7,Pin_7*%
%TO.N,VDD*%
X126437776Y-80099577D03*
%TD*%
D11*
%TO.P,J1,1,Pin_1*%
%TO.N,TS1*%
X103940000Y-69740000D03*
D12*
%TO.P,J1,2,Pin_2*%
%TO.N,TS2*%
X101400000Y-69740000D03*
%TO.P,J1,3,Pin_3*%
%TO.N,TS3*%
X103940000Y-67200000D03*
%TO.P,J1,4,Pin_4*%
%TO.N,TS4*%
X101400000Y-67200000D03*
%TD*%
D13*
%TO.P,C1,1*%
%TO.N,Net-(IC1-BBS)*%
X111200000Y-66200000D03*
%TO.P,C1,2*%
%TO.N,GND*%
X112925000Y-66200000D03*
%TD*%
D14*
%TO.P,R3,1*%
%TO.N,INTA*%
X115200000Y-66625000D03*
%TO.P,R3,2*%
%TO.N,VDD*%
X115200000Y-64800000D03*
%TD*%
%TO.P,R4,1*%
%TO.N,INTB*%
X117400000Y-66625000D03*
%TO.P,R4,2*%
%TO.N,VDD*%
X117400000Y-64800000D03*
%TD*%
%TO.P,R2,1*%
%TO.N,VDD*%
X115800000Y-78312500D03*
%TO.P,R2,2*%
%TO.N,SDA*%
X115800000Y-76487500D03*
%TD*%
D15*
%TO.P,C2,1*%
%TO.N,GND*%
X119800000Y-78075000D03*
%TO.P,C2,2*%
%TO.N,VDD*%
X119800000Y-79800000D03*
%TD*%
D14*
%TO.P,R1,2*%
%TO.N,SCL*%
X113600000Y-76487500D03*
%TO.P,R1,1*%
%TO.N,VDD*%
X113600000Y-78312500D03*
%TD*%
D16*
%TO.P,IC1,1,IFS*%
%TO.N,VDD*%
X110250000Y-72900000D03*
%TO.P,IC1,2,SCL*%
%TO.N,SCL*%
X110750000Y-72900000D03*
%TO.P,IC1,3,SDI*%
%TO.N,GND*%
X111250000Y-72900000D03*
%TO.P,IC1,4,SDO*%
X111750000Y-72900000D03*
%TO.P,IC1,5,SDA/~{CE}*%
%TO.N,SDA*%
X112250000Y-72900000D03*
%TO.P,IC1,6,CLKOUT*%
%TO.N,CLKOUT*%
X112750000Y-72900000D03*
%TO.P,IC1,7,VSS*%
%TO.N,GND*%
X113250000Y-72900000D03*
%TO.P,IC1,8,~{TS1}*%
%TO.N,TS1*%
X113750000Y-72900000D03*
%TO.P,IC1,9,~{TS2}*%
%TO.N,TS2*%
X113750000Y-69500000D03*
%TO.P,IC1,10,~{TS3}*%
%TO.N,TS3*%
X113250000Y-69500000D03*
%TO.P,IC1,11,~{TS4}*%
%TO.N,TS4*%
X112750000Y-69500000D03*
%TO.P,IC1,12,~{INTB}*%
%TO.N,INTB*%
X112250000Y-69500000D03*
%TO.P,IC1,13,~{INTA}*%
%TO.N,INTA*%
X111750000Y-69500000D03*
%TO.P,IC1,14,BBS*%
%TO.N,Net-(IC1-BBS)*%
X111250000Y-69500000D03*
%TO.P,IC1,15,VDD*%
%TO.N,VDD*%
X110750000Y-69500000D03*
%TO.P,IC1,16,VBAT*%
%TO.N,GND*%
X110250000Y-69500000D03*
D17*
%TO.P,IC1,17,EP*%
X112000000Y-71200000D03*
%TD*%
D18*
%TO.N,GND*%
X114000000Y-66200000D03*
%TO.N,TS3*%
X99400000Y-69200000D03*
%TO.N,GND*%
X108600000Y-69800000D03*
%TO.N,TS1*%
X115000000Y-73000000D03*
%TO.N,TS2*%
X116400000Y-70800000D03*
%TO.N,TS3*%
X117200000Y-70400000D03*
%TO.N,TS4*%
X117800000Y-69600000D03*
%TO.N,GND*%
X115200000Y-71200000D03*
X121200000Y-78000000D03*
%TO.N,INTA*%
X120400000Y-65800000D03*
X116119310Y-65962093D03*
%TO.N,VDD*%
X108600000Y-64600000D03*
X107400000Y-74800000D03*
%TO.N,SCL*%
X118600000Y-76800000D03*
X114704948Y-77400000D03*
%TO.N,GND*%
X129200000Y-78800000D03*
%TD*%
D10*
%TO.N,Net-(IC1-BBS)*%
X111250000Y-69500000D02*
X111250000Y-66250000D01*
X111250000Y-66250000D02*
X111200000Y-66200000D01*
D19*
%TO.N,VDD*%
X110750000Y-69500000D02*
X110750000Y-68700000D01*
X110750000Y-68700000D02*
X109400000Y-67350000D01*
X109400000Y-67350000D02*
X109400000Y-66000000D01*
X109400000Y-66000000D02*
X108600000Y-65200000D01*
X108600000Y-65200000D02*
X108600000Y-64600000D01*
D10*
%TO.N,GND*%
X108600000Y-69800000D02*
X108900000Y-69500000D01*
X108900000Y-69500000D02*
X110250000Y-69500000D01*
X112925000Y-66200000D02*
X114000000Y-66200000D01*
%TO.N,TS3*%
X113250000Y-69500000D02*
X113250000Y-68750000D01*
X113400000Y-68600000D02*
X115400000Y-68600000D01*
X113250000Y-68750000D02*
X113400000Y-68600000D01*
X115400000Y-68600000D02*
X117200000Y-70400000D01*
%TO.N,TS4*%
X117800000Y-69600000D02*
X117000000Y-69600000D01*
X115600000Y-68200000D02*
X113200000Y-68200000D01*
X117000000Y-69600000D02*
X115600000Y-68200000D01*
X113200000Y-68200000D02*
X112750000Y-68650000D01*
X112750000Y-68650000D02*
X112750000Y-69500000D01*
%TO.N,TS3*%
X99400000Y-69200000D02*
X99400000Y-65600000D01*
X103940000Y-65940000D02*
X103940000Y-67200000D01*
X99400000Y-65600000D02*
X100000000Y-65000000D01*
X100000000Y-65000000D02*
X103000000Y-65000000D01*
X103000000Y-65000000D02*
X103940000Y-65940000D01*
%TO.N,TS1*%
X113750000Y-72900000D02*
X114900000Y-72900000D01*
X114900000Y-72900000D02*
X115000000Y-73000000D01*
%TO.N,TS2*%
X116400000Y-70200000D02*
X116400000Y-70800000D01*
X113750000Y-69500000D02*
X113750000Y-69250000D01*
X113800000Y-69200000D02*
X115400000Y-69200000D01*
X113750000Y-69250000D02*
X113800000Y-69200000D01*
X115400000Y-69200000D02*
X116400000Y-70200000D01*
D19*
%TO.N,VDD*%
X116200000Y-78712500D02*
X115800000Y-78312500D01*
D20*
X114600000Y-80099577D02*
X112699577Y-80099577D01*
D19*
X114600000Y-79312500D02*
X113600000Y-78312500D01*
D20*
X117200000Y-80099577D02*
X114600000Y-80099577D01*
D19*
X114600000Y-80099577D02*
X114600000Y-79312500D01*
D20*
X117200000Y-80099577D02*
X116699577Y-80099577D01*
X126437776Y-80099577D02*
X117200000Y-80099577D01*
D19*
X116699577Y-80099577D02*
X116200000Y-79600000D01*
X116200000Y-79600000D02*
X116200000Y-78712500D01*
D10*
%TO.N,CLKOUT*%
X121600000Y-72400000D02*
X126358199Y-72400000D01*
X113600000Y-74600000D02*
X117400000Y-74600000D01*
X117400000Y-74600000D02*
X119600000Y-72400000D01*
X112750000Y-72900000D02*
X112750000Y-73750000D01*
X112750000Y-73750000D02*
X113600000Y-74600000D01*
X119600000Y-72400000D02*
X121600000Y-72400000D01*
%TO.N,SDA*%
X115800000Y-76487500D02*
X114512500Y-75200000D01*
X114512500Y-75200000D02*
X113450000Y-75200000D01*
X112250000Y-74000000D02*
X112250000Y-72900000D01*
X113450000Y-75200000D02*
X112250000Y-74000000D01*
%TO.N,INTB*%
X119200000Y-68800000D02*
X119200000Y-67400000D01*
X120339577Y-69939577D02*
X119200000Y-68800000D01*
X118425000Y-66625000D02*
X117400000Y-66625000D01*
X119200000Y-67400000D02*
X118425000Y-66625000D01*
%TO.N,INTA*%
X120400000Y-65800000D02*
X121999577Y-67399577D01*
X121999577Y-67399577D02*
X126437776Y-67399577D01*
X115200000Y-66625000D02*
X115862907Y-65962093D01*
X115862907Y-65962093D02*
X116119310Y-65962093D01*
%TO.N,INTB*%
X112250000Y-69500000D02*
X112250000Y-68550000D01*
X113000000Y-67800000D02*
X116400000Y-67800000D01*
X112250000Y-68550000D02*
X113000000Y-67800000D01*
X116400000Y-67800000D02*
X117400000Y-66800000D01*
X117400000Y-66800000D02*
X117400000Y-66625000D01*
%TO.N,INTA*%
X111750000Y-69500000D02*
X111750000Y-68250000D01*
X111750000Y-68250000D02*
X112800000Y-67200000D01*
X114625000Y-67200000D02*
X115200000Y-66625000D01*
X112800000Y-67200000D02*
X114625000Y-67200000D01*
D19*
%TO.N,VDD*%
X115200000Y-64800000D02*
X117400000Y-64800000D01*
X108600000Y-64600000D02*
X115000000Y-64600000D01*
X115000000Y-64600000D02*
X115200000Y-64800000D01*
D10*
%TO.N,GND*%
X112000000Y-71200000D02*
X110600000Y-71200000D01*
X110600000Y-71200000D02*
X110250000Y-70850000D01*
X110250000Y-70850000D02*
X110250000Y-69500000D01*
X112000000Y-71200000D02*
X112800000Y-71200000D01*
X112800000Y-71200000D02*
X113250000Y-71650000D01*
D19*
X113250000Y-71650000D02*
X113250000Y-72900000D01*
D10*
X113250000Y-72477490D02*
X113254369Y-72473121D01*
X113250000Y-72900000D02*
X113250000Y-72477490D01*
X111750000Y-72900000D02*
X111750000Y-71450000D01*
X111750000Y-71450000D02*
X112000000Y-71200000D01*
X111250000Y-72900000D02*
X111250000Y-71950000D01*
X111250000Y-71950000D02*
X112000000Y-71200000D01*
%TO.N,SDA*%
X126437776Y-75019577D02*
X117267923Y-75019577D01*
X117267923Y-75019577D02*
X115800000Y-76487500D01*
%TO.N,SCL*%
X114704948Y-77400000D02*
X114512500Y-77400000D01*
X114512500Y-77400000D02*
X113600000Y-76487500D01*
X113600000Y-76487500D02*
X110750000Y-73637500D01*
X110750000Y-73637500D02*
X110750000Y-72900000D01*
X125359577Y-77559577D02*
X126437776Y-77559577D01*
X118600000Y-76800000D02*
X124600000Y-76800000D01*
X124600000Y-76800000D02*
X125359577Y-77559577D01*
%TO.N,VDD*%
X110250000Y-72900000D02*
X108350000Y-74800000D01*
X108350000Y-74800000D02*
X107400000Y-74800000D01*
D20*
X112699577Y-80099577D02*
X107400000Y-74800000D01*
D10*
%TO.N,INTB*%
X120339577Y-69939577D02*
X126437776Y-69939577D01*
%TO.N,CLKOUT*%
X126358199Y-72400000D02*
X126437776Y-72479577D01*
%TO.N,INTB*%
X126289853Y-70087500D02*
X126437776Y-69939577D01*
%TO.N,INTA*%
X126437353Y-67400000D02*
X126437776Y-67399577D01*
%TD*%
%TA.AperFunction,Conductor*%
%TO.N,GND*%
G36*
X125163607Y-63520185D02*
G01*
X125209362Y-63572989D01*
X125219306Y-63642147D01*
X125195834Y-63698811D01*
X125144425Y-63767483D01*
X125144421Y-63767490D01*
X125094179Y-63902197D01*
X125094177Y-63902204D01*
X125087776Y-63961732D01*
X125087776Y-64609577D01*
X126004764Y-64609577D01*
X125971851Y-64666584D01*
X125937776Y-64793751D01*
X125937776Y-64925403D01*
X125971851Y-65052570D01*
X126004764Y-65109577D01*
X125087776Y-65109577D01*
X125087776Y-65757421D01*
X125094177Y-65816949D01*
X125094179Y-65816956D01*
X125144421Y-65951663D01*
X125144425Y-65951670D01*
X125230585Y-66066764D01*
X125230588Y-66066767D01*
X125345682Y-66152927D01*
X125345689Y-66152931D01*
X125477246Y-66201998D01*
X125533179Y-66243869D01*
X125557597Y-66309333D01*
X125542746Y-66377606D01*
X125521595Y-66405861D01*
X125399279Y-66528177D01*
X125263741Y-66721747D01*
X125263738Y-66721752D01*
X125261065Y-66727486D01*
X125214891Y-66779923D01*
X125148685Y-66799077D01*
X122299674Y-66799077D01*
X122232635Y-66779392D01*
X122211993Y-66762758D01*
X121230700Y-65781465D01*
X121197215Y-65720142D01*
X121195163Y-65707686D01*
X121185368Y-65620745D01*
X121125789Y-65450478D01*
X121029816Y-65297738D01*
X120902262Y-65170184D01*
X120896533Y-65166584D01*
X120749523Y-65074211D01*
X120579254Y-65014631D01*
X120579249Y-65014630D01*
X120400004Y-64994435D01*
X120399996Y-64994435D01*
X120220750Y-65014630D01*
X120220745Y-65014631D01*
X120050476Y-65074211D01*
X119897737Y-65170184D01*
X119770184Y-65297737D01*
X119674211Y-65450476D01*
X119614631Y-65620745D01*
X119614630Y-65620750D01*
X119594435Y-65799996D01*
X119594435Y-65800003D01*
X119614630Y-65979249D01*
X119614631Y-65979254D01*
X119674211Y-66149523D01*
X119733493Y-66243869D01*
X119770184Y-66302262D01*
X119897738Y-66429816D01*
X120050478Y-66525789D01*
X120220745Y-66585368D01*
X120307669Y-66595161D01*
X120372080Y-66622226D01*
X120381465Y-66630700D01*
X121514716Y-67763951D01*
X121514726Y-67763962D01*
X121519056Y-67768292D01*
X121519057Y-67768293D01*
X121630861Y-67880097D01*
X121630863Y-67880098D01*
X121630867Y-67880101D01*
X121750396Y-67949110D01*
X121767793Y-67959154D01*
X121879596Y-67989111D01*
X121920519Y-68000077D01*
X121920520Y-68000077D01*
X125148685Y-68000077D01*
X125215724Y-68019762D01*
X125261068Y-68071674D01*
X125263741Y-68077407D01*
X125399277Y-68270972D01*
X125399282Y-68270979D01*
X125566373Y-68438070D01*
X125566379Y-68438075D01*
X125751934Y-68568002D01*
X125795559Y-68622579D01*
X125802753Y-68692077D01*
X125771230Y-68754432D01*
X125751934Y-68771152D01*
X125566373Y-68901082D01*
X125399282Y-69068173D01*
X125263741Y-69261747D01*
X125263738Y-69261752D01*
X125261065Y-69267486D01*
X125214891Y-69319923D01*
X125148685Y-69339077D01*
X120639674Y-69339077D01*
X120572635Y-69319392D01*
X120551993Y-69302758D01*
X119836819Y-68587584D01*
X119803334Y-68526261D01*
X119800500Y-68499903D01*
X119800500Y-67489060D01*
X119800501Y-67489047D01*
X119800501Y-67320944D01*
X119793511Y-67294858D01*
X119759577Y-67168216D01*
X119757243Y-67164173D01*
X119680524Y-67031290D01*
X119680518Y-67031282D01*
X118912590Y-66263355D01*
X118912588Y-66263352D01*
X118793717Y-66144481D01*
X118793716Y-66144480D01*
X118706904Y-66094360D01*
X118706904Y-66094359D01*
X118706900Y-66094358D01*
X118656785Y-66065423D01*
X118504057Y-66024499D01*
X118357610Y-66024499D01*
X118290571Y-66004814D01*
X118252071Y-65965595D01*
X118233774Y-65935931D01*
X118220340Y-65914150D01*
X118106371Y-65800181D01*
X118072886Y-65738858D01*
X118077870Y-65669166D01*
X118106371Y-65624819D01*
X118159908Y-65571282D01*
X118220340Y-65510850D01*
X118310908Y-65364016D01*
X118365174Y-65200253D01*
X118375500Y-65099177D01*
X118375499Y-64500824D01*
X118375440Y-64500250D01*
X118365174Y-64399747D01*
X118324390Y-64276671D01*
X118310908Y-64235984D01*
X118220340Y-64089150D01*
X118098350Y-63967160D01*
X117951516Y-63876592D01*
X117787753Y-63822326D01*
X117787751Y-63822325D01*
X117686678Y-63812000D01*
X117113330Y-63812000D01*
X117113312Y-63812001D01*
X117012247Y-63822325D01*
X116848484Y-63876592D01*
X116848481Y-63876593D01*
X116701648Y-63967161D01*
X116579661Y-64089148D01*
X116579660Y-64089150D01*
X116578766Y-64090598D01*
X116577895Y-64091382D01*
X116575179Y-64094817D01*
X116574592Y-64094352D01*
X116526820Y-64137321D01*
X116473229Y-64149500D01*
X116126771Y-64149500D01*
X116059732Y-64129815D01*
X116025132Y-64094570D01*
X116024821Y-64094817D01*
X116022528Y-64091917D01*
X116021233Y-64090598D01*
X116020340Y-64089150D01*
X115898350Y-63967160D01*
X115751516Y-63876592D01*
X115587753Y-63822326D01*
X115587751Y-63822325D01*
X115486678Y-63812000D01*
X114913330Y-63812000D01*
X114913312Y-63812001D01*
X114812247Y-63822325D01*
X114648484Y-63876592D01*
X114648477Y-63876595D01*
X114560210Y-63931039D01*
X114495114Y-63949500D01*
X109105068Y-63949500D01*
X109039096Y-63930494D01*
X108949522Y-63874210D01*
X108949518Y-63874209D01*
X108779262Y-63814633D01*
X108779249Y-63814630D01*
X108600004Y-63794435D01*
X108599996Y-63794435D01*
X108420750Y-63814630D01*
X108420745Y-63814631D01*
X108250476Y-63874211D01*
X108097737Y-63970184D01*
X107970184Y-64097737D01*
X107874211Y-64250476D01*
X107814631Y-64420745D01*
X107814630Y-64420750D01*
X107794435Y-64599996D01*
X107794435Y-64600003D01*
X107814630Y-64779249D01*
X107814631Y-64779254D01*
X107874211Y-64949524D01*
X107930493Y-65039094D01*
X107949500Y-65105067D01*
X107949500Y-65264067D01*
X107949499Y-65264068D01*
X107956197Y-65297737D01*
X107970216Y-65368213D01*
X107971857Y-65376459D01*
X107971857Y-65376468D01*
X107971859Y-65376468D01*
X107973627Y-65385360D01*
X107974499Y-65389745D01*
X108023533Y-65508125D01*
X108071210Y-65579479D01*
X108087149Y-65603334D01*
X108094726Y-65614673D01*
X108094727Y-65614674D01*
X108713181Y-66233127D01*
X108746666Y-66294450D01*
X108749500Y-66320808D01*
X108749500Y-67414071D01*
X108764969Y-67491835D01*
X108764969Y-67491836D01*
X108774497Y-67539736D01*
X108774499Y-67539744D01*
X108800565Y-67602674D01*
X108823535Y-67658127D01*
X108894251Y-67763962D01*
X108894726Y-67764673D01*
X108894727Y-67764674D01*
X109701106Y-68571052D01*
X109734591Y-68632375D01*
X109729607Y-68702066D01*
X109712692Y-68733044D01*
X109656647Y-68807910D01*
X109656645Y-68807913D01*
X109606403Y-68942620D01*
X109606401Y-68942627D01*
X109600000Y-69002155D01*
X109600000Y-69350000D01*
X109975500Y-69350000D01*
X110042539Y-69369685D01*
X110088294Y-69422489D01*
X110099500Y-69474000D01*
X110099500Y-69526000D01*
X110079815Y-69593039D01*
X110027011Y-69638794D01*
X109975500Y-69650000D01*
X109600000Y-69650000D01*
X109600000Y-69995388D01*
X109592182Y-70038720D01*
X109581402Y-70067622D01*
X109581401Y-70067624D01*
X109575000Y-70127155D01*
X109575000Y-70950000D01*
X114425000Y-70950000D01*
X114425000Y-70127172D01*
X114424999Y-70127155D01*
X114418598Y-70067627D01*
X114418597Y-70067622D01*
X114408318Y-70040061D01*
X114400500Y-69996729D01*
X114400500Y-69924500D01*
X114420185Y-69857461D01*
X114472989Y-69811706D01*
X114524500Y-69800500D01*
X115099903Y-69800500D01*
X115166942Y-69820185D01*
X115187583Y-69836818D01*
X115653307Y-70302542D01*
X115686791Y-70363864D01*
X115681807Y-70433556D01*
X115676690Y-70443945D01*
X115677231Y-70444206D01*
X115674210Y-70450478D01*
X115614633Y-70620737D01*
X115614630Y-70620750D01*
X115594435Y-70799996D01*
X115594435Y-70800003D01*
X115614630Y-70979249D01*
X115614631Y-70979254D01*
X115674211Y-71149523D01*
X115726084Y-71232077D01*
X115770184Y-71302262D01*
X115897738Y-71429816D01*
X116050478Y-71525789D01*
X116220745Y-71585368D01*
X116220750Y-71585369D01*
X116399996Y-71605565D01*
X116400000Y-71605565D01*
X116400004Y-71605565D01*
X116579249Y-71585369D01*
X116579252Y-71585368D01*
X116579255Y-71585368D01*
X116749522Y-71525789D01*
X116902262Y-71429816D01*
X117029816Y-71302262D01*
X117056358Y-71260020D01*
X117108689Y-71213732D01*
X117175233Y-71202774D01*
X117200000Y-71205565D01*
X117200001Y-71205564D01*
X117200002Y-71205565D01*
X117200004Y-71205565D01*
X117379249Y-71185369D01*
X117379252Y-71185368D01*
X117379255Y-71185368D01*
X117549522Y-71125789D01*
X117702262Y-71029816D01*
X117829816Y-70902262D01*
X117925789Y-70749522D01*
X117985368Y-70579255D01*
X117987565Y-70559762D01*
X117994393Y-70499153D01*
X117999637Y-70452606D01*
X118026703Y-70388194D01*
X118081903Y-70349449D01*
X118149522Y-70325789D01*
X118302262Y-70229816D01*
X118429816Y-70102262D01*
X118525789Y-69949522D01*
X118585368Y-69779255D01*
X118597757Y-69669301D01*
X118605565Y-69600003D01*
X118605565Y-69599996D01*
X118585369Y-69420750D01*
X118585366Y-69420737D01*
X118556958Y-69339552D01*
X118553396Y-69269773D01*
X118588124Y-69209146D01*
X118650118Y-69176918D01*
X118719693Y-69183323D01*
X118761680Y-69210916D01*
X118838349Y-69287585D01*
X118838355Y-69287590D01*
X119854716Y-70303951D01*
X119854726Y-70303962D01*
X119859056Y-70308292D01*
X119859057Y-70308293D01*
X119970861Y-70420097D01*
X120033422Y-70456216D01*
X120070607Y-70477685D01*
X120107789Y-70499153D01*
X120107791Y-70499153D01*
X120107792Y-70499154D01*
X120260519Y-70540077D01*
X120260520Y-70540077D01*
X125148685Y-70540077D01*
X125215724Y-70559762D01*
X125261068Y-70611674D01*
X125263741Y-70617407D01*
X125391594Y-70800000D01*
X125399277Y-70810972D01*
X125399282Y-70810979D01*
X125566373Y-70978070D01*
X125566379Y-70978075D01*
X125751934Y-71108002D01*
X125795559Y-71162579D01*
X125802753Y-71232077D01*
X125771230Y-71294432D01*
X125751934Y-71311152D01*
X125566373Y-71441082D01*
X125399282Y-71608173D01*
X125302340Y-71746623D01*
X125247764Y-71790248D01*
X125200765Y-71799500D01*
X119686669Y-71799500D01*
X119686653Y-71799499D01*
X119679057Y-71799499D01*
X119520943Y-71799499D01*
X119413587Y-71828265D01*
X119368210Y-71840424D01*
X119368209Y-71840425D01*
X119318096Y-71869359D01*
X119318095Y-71869360D01*
X119274689Y-71894420D01*
X119231285Y-71919479D01*
X119231282Y-71919481D01*
X119144560Y-72006204D01*
X119119480Y-72031284D01*
X119119478Y-72031286D01*
X118147431Y-73003334D01*
X117187584Y-73963181D01*
X117126261Y-73996666D01*
X117099903Y-73999500D01*
X115297114Y-73999500D01*
X115230075Y-73979815D01*
X115184320Y-73927011D01*
X115174376Y-73857853D01*
X115203401Y-73794297D01*
X115256160Y-73758458D01*
X115292531Y-73745730D01*
X115349522Y-73725789D01*
X115502262Y-73629816D01*
X115629816Y-73502262D01*
X115725789Y-73349522D01*
X115785368Y-73179255D01*
X115785369Y-73179249D01*
X115805565Y-73000003D01*
X115805565Y-72999996D01*
X115785369Y-72820750D01*
X115785368Y-72820745D01*
X115725788Y-72650476D01*
X115629815Y-72497737D01*
X115502262Y-72370184D01*
X115349523Y-72274211D01*
X115179254Y-72214631D01*
X115179249Y-72214630D01*
X115000004Y-72194435D01*
X114999996Y-72194435D01*
X114820750Y-72214630D01*
X114820745Y-72214631D01*
X114650474Y-72274212D01*
X114640477Y-72280494D01*
X114574506Y-72299500D01*
X114549000Y-72299500D01*
X114481961Y-72279815D01*
X114436206Y-72227011D01*
X114425000Y-72175500D01*
X114425000Y-71450000D01*
X109575000Y-71450000D01*
X109575000Y-72272844D01*
X109581401Y-72332372D01*
X109581402Y-72332376D01*
X109591682Y-72359937D01*
X109599500Y-72403271D01*
X109599500Y-72649901D01*
X109579815Y-72716940D01*
X109563181Y-72737582D01*
X108137584Y-74163181D01*
X108076261Y-74196666D01*
X108049903Y-74199500D01*
X107982412Y-74199500D01*
X107915373Y-74179815D01*
X107905097Y-74172445D01*
X107902263Y-74170185D01*
X107902262Y-74170184D01*
X107845496Y-74134515D01*
X107749523Y-74074211D01*
X107579254Y-74014631D01*
X107579249Y-74014630D01*
X107400004Y-73994435D01*
X107399996Y-73994435D01*
X107220750Y-74014630D01*
X107220745Y-74014631D01*
X107050476Y-74074211D01*
X106897737Y-74170184D01*
X106770184Y-74297737D01*
X106674211Y-74450476D01*
X106614631Y-74620745D01*
X106614630Y-74620750D01*
X106594435Y-74799996D01*
X106594435Y-74800003D01*
X106614630Y-74979249D01*
X106614631Y-74979254D01*
X106674211Y-75149523D01*
X106756928Y-75281166D01*
X106770184Y-75302262D01*
X106897738Y-75429816D01*
X107050478Y-75525789D01*
X107056754Y-75528811D01*
X107055867Y-75530651D01*
X107091940Y-75553307D01*
X112221162Y-80682529D01*
X112248416Y-80700739D01*
X112261951Y-80709783D01*
X112344078Y-80764659D01*
X112344080Y-80764660D01*
X112344082Y-80764661D01*
X112374852Y-80777406D01*
X112374853Y-80777407D01*
X112374854Y-80777407D01*
X112480665Y-80821236D01*
X112596818Y-80844340D01*
X112616045Y-80848164D01*
X112625658Y-80850077D01*
X112625659Y-80850077D01*
X112625660Y-80850077D01*
X112773495Y-80850077D01*
X114526082Y-80850077D01*
X116625659Y-80850077D01*
X117126082Y-80850077D01*
X125250075Y-80850077D01*
X125317114Y-80869762D01*
X125351649Y-80902953D01*
X125399281Y-80970978D01*
X125566373Y-81138070D01*
X125566379Y-81138075D01*
X125760393Y-81273925D01*
X125804018Y-81328502D01*
X125811212Y-81398000D01*
X125779689Y-81460355D01*
X125719459Y-81495769D01*
X125689270Y-81499500D01*
X99504067Y-81499500D01*
X99495957Y-81499235D01*
X99247116Y-81482925D01*
X99231035Y-81480807D01*
X98990464Y-81432954D01*
X98974797Y-81428756D01*
X98742520Y-81349909D01*
X98727534Y-81343702D01*
X98507539Y-81235212D01*
X98493492Y-81227102D01*
X98289539Y-81090825D01*
X98276671Y-81080951D01*
X98092250Y-80919218D01*
X98080781Y-80907749D01*
X97955296Y-80764661D01*
X97919045Y-80723325D01*
X97909174Y-80710460D01*
X97772897Y-80506507D01*
X97764787Y-80492460D01*
X97658855Y-80277652D01*
X97656294Y-80272458D01*
X97650090Y-80257479D01*
X97571243Y-80025202D01*
X97567045Y-80009535D01*
X97559186Y-79970026D01*
X97519190Y-79768953D01*
X97517075Y-79752895D01*
X97500765Y-79504043D01*
X97500500Y-79495933D01*
X97500500Y-69199996D01*
X98594435Y-69199996D01*
X98594435Y-69200003D01*
X98614630Y-69379249D01*
X98614631Y-69379254D01*
X98674211Y-69549523D01*
X98749473Y-69669301D01*
X98770184Y-69702262D01*
X98897738Y-69829816D01*
X98927429Y-69848472D01*
X99048426Y-69924500D01*
X99050478Y-69925789D01*
X99118306Y-69949523D01*
X99220745Y-69985368D01*
X99220750Y-69985369D01*
X99399996Y-70005565D01*
X99400000Y-70005565D01*
X99400004Y-70005565D01*
X99579249Y-69985369D01*
X99579252Y-69985368D01*
X99579255Y-69985368D01*
X99749522Y-69925789D01*
X99751574Y-69924500D01*
X99785622Y-69903106D01*
X99872572Y-69848471D01*
X99939807Y-69829471D01*
X100006642Y-69849838D01*
X100051856Y-69903106D01*
X100062071Y-69942655D01*
X100064936Y-69975404D01*
X100064938Y-69975413D01*
X100126094Y-70203655D01*
X100126096Y-70203659D01*
X100126097Y-70203663D01*
X100214758Y-70393796D01*
X100225965Y-70417830D01*
X100225967Y-70417834D01*
X100311563Y-70540077D01*
X100361505Y-70611401D01*
X100528599Y-70778495D01*
X100625384Y-70846265D01*
X100722165Y-70914032D01*
X100722167Y-70914033D01*
X100722170Y-70914035D01*
X100936337Y-71013903D01*
X101164592Y-71075063D01*
X101341034Y-71090500D01*
X101399999Y-71095659D01*
X101400000Y-71095659D01*
X101400001Y-71095659D01*
X101458966Y-71090500D01*
X101635408Y-71075063D01*
X101863663Y-71013903D01*
X102077830Y-70914035D01*
X102271401Y-70778495D01*
X102393329Y-70656566D01*
X102454648Y-70623084D01*
X102524340Y-70628068D01*
X102580274Y-70669939D01*
X102597189Y-70700917D01*
X102646202Y-70832328D01*
X102646206Y-70832335D01*
X102732452Y-70947544D01*
X102732455Y-70947547D01*
X102847664Y-71033793D01*
X102847671Y-71033797D01*
X102982517Y-71084091D01*
X102982516Y-71084091D01*
X102989444Y-71084835D01*
X103042127Y-71090500D01*
X104837872Y-71090499D01*
X104897483Y-71084091D01*
X105032331Y-71033796D01*
X105147546Y-70947546D01*
X105233796Y-70832331D01*
X105284091Y-70697483D01*
X105290500Y-70637873D01*
X105290499Y-68842128D01*
X105284091Y-68782517D01*
X105282810Y-68779083D01*
X105233797Y-68647671D01*
X105233793Y-68647664D01*
X105147547Y-68532455D01*
X105147544Y-68532452D01*
X105032335Y-68446206D01*
X105032328Y-68446202D01*
X104900917Y-68397189D01*
X104844983Y-68355318D01*
X104820566Y-68289853D01*
X104835418Y-68221580D01*
X104856563Y-68193332D01*
X104978495Y-68071401D01*
X105114035Y-67877830D01*
X105213903Y-67663663D01*
X105275063Y-67435408D01*
X105295659Y-67200000D01*
X105275063Y-66964592D01*
X105213903Y-66736337D01*
X105114035Y-66522171D01*
X105113925Y-66522013D01*
X104978494Y-66328597D01*
X104811402Y-66161506D01*
X104811396Y-66161502D01*
X104715507Y-66094359D01*
X104617831Y-66025965D01*
X104617827Y-66025963D01*
X104612087Y-66023286D01*
X104559652Y-65977110D01*
X104540501Y-65910908D01*
X104540501Y-65860944D01*
X104528714Y-65816956D01*
X104499577Y-65708216D01*
X104499573Y-65708209D01*
X104420524Y-65571290D01*
X104420518Y-65571282D01*
X103487590Y-64638355D01*
X103487588Y-64638352D01*
X103368717Y-64519481D01*
X103368716Y-64519480D01*
X103281904Y-64469360D01*
X103281904Y-64469359D01*
X103281900Y-64469358D01*
X103231785Y-64440423D01*
X103079057Y-64399499D01*
X102920943Y-64399499D01*
X102913347Y-64399499D01*
X102913331Y-64399500D01*
X100079057Y-64399500D01*
X99920943Y-64399500D01*
X99768215Y-64440423D01*
X99768214Y-64440423D01*
X99768212Y-64440424D01*
X99768209Y-64440425D01*
X99718096Y-64469359D01*
X99718095Y-64469360D01*
X99676297Y-64493492D01*
X99631285Y-64519479D01*
X99631282Y-64519481D01*
X98919481Y-65231282D01*
X98919477Y-65231287D01*
X98908203Y-65250816D01*
X98900552Y-65264069D01*
X98840423Y-65368215D01*
X98799499Y-65520943D01*
X98799499Y-65520945D01*
X98799499Y-65689046D01*
X98799500Y-65689059D01*
X98799500Y-68617587D01*
X98779815Y-68684626D01*
X98772450Y-68694896D01*
X98770186Y-68697734D01*
X98674211Y-68850476D01*
X98614631Y-69020745D01*
X98614630Y-69020750D01*
X98594435Y-69199996D01*
X97500500Y-69199996D01*
X97500500Y-65504066D01*
X97500765Y-65495956D01*
X97507726Y-65389745D01*
X97517075Y-65247102D01*
X97519190Y-65231048D01*
X97567045Y-64990462D01*
X97571243Y-64974797D01*
X97632700Y-64793751D01*
X97650093Y-64742512D01*
X97656291Y-64727547D01*
X97764790Y-64507533D01*
X97772893Y-64493498D01*
X97909182Y-64289527D01*
X97919039Y-64276681D01*
X98080786Y-64092244D01*
X98092244Y-64080786D01*
X98276681Y-63919039D01*
X98289527Y-63909182D01*
X98493498Y-63772893D01*
X98507533Y-63764790D01*
X98727547Y-63656291D01*
X98742512Y-63650093D01*
X98969653Y-63572989D01*
X98974797Y-63571243D01*
X98990464Y-63567045D01*
X99000373Y-63565074D01*
X99231048Y-63519190D01*
X99247102Y-63517075D01*
X99495957Y-63500765D01*
X99504067Y-63500500D01*
X99565892Y-63500500D01*
X125096568Y-63500500D01*
X125163607Y-63520185D01*
G37*
%TD.AperFunction*%
%TA.AperFunction,Conductor*%
G36*
X128654043Y-63500765D02*
G01*
X128902895Y-63517075D01*
X128918953Y-63519190D01*
X129126105Y-63560395D01*
X129159535Y-63567045D01*
X129175202Y-63571243D01*
X129344947Y-63628863D01*
X129407481Y-63650091D01*
X129422458Y-63656294D01*
X129508674Y-63698811D01*
X129642460Y-63764787D01*
X129656508Y-63772897D01*
X129860464Y-63909177D01*
X129873325Y-63919045D01*
X129887001Y-63931039D01*
X130057749Y-64080781D01*
X130069218Y-64092250D01*
X130074030Y-64097737D01*
X130207978Y-64250476D01*
X130230951Y-64276671D01*
X130240825Y-64289539D01*
X130377102Y-64493492D01*
X130385212Y-64507539D01*
X130493702Y-64727534D01*
X130499909Y-64742520D01*
X130578756Y-64974797D01*
X130582954Y-64990464D01*
X130630807Y-65231035D01*
X130632925Y-65247116D01*
X130649235Y-65495956D01*
X130649500Y-65504066D01*
X130649500Y-79495933D01*
X130649235Y-79504043D01*
X130632925Y-79752883D01*
X130630807Y-79768964D01*
X130582954Y-80009535D01*
X130578756Y-80025202D01*
X130499909Y-80257479D01*
X130493702Y-80272465D01*
X130385212Y-80492460D01*
X130377102Y-80506507D01*
X130240825Y-80710460D01*
X130230951Y-80723328D01*
X130069218Y-80907749D01*
X130057749Y-80919218D01*
X129873328Y-81080951D01*
X129860460Y-81090825D01*
X129656507Y-81227102D01*
X129642460Y-81235212D01*
X129422465Y-81343702D01*
X129407479Y-81349909D01*
X129175202Y-81428756D01*
X129159535Y-81432954D01*
X128918964Y-81480807D01*
X128902883Y-81482925D01*
X128654043Y-81499235D01*
X128645933Y-81499500D01*
X127186282Y-81499500D01*
X127119243Y-81479815D01*
X127073488Y-81427011D01*
X127063544Y-81357853D01*
X127092569Y-81294297D01*
X127115159Y-81273925D01*
X127170447Y-81235212D01*
X127309177Y-81138072D01*
X127476271Y-80970978D01*
X127611811Y-80777407D01*
X127711679Y-80563240D01*
X127772839Y-80334985D01*
X127793435Y-80099577D01*
X127772839Y-79864169D01*
X127711679Y-79635914D01*
X127611811Y-79421748D01*
X127560927Y-79349077D01*
X127476270Y-79228174D01*
X127309178Y-79061083D01*
X127309172Y-79061078D01*
X127123618Y-78931152D01*
X127079993Y-78876575D01*
X127072799Y-78807077D01*
X127104322Y-78744722D01*
X127123618Y-78728002D01*
X127237261Y-78648428D01*
X127309177Y-78598072D01*
X127476271Y-78430978D01*
X127611811Y-78237407D01*
X127711679Y-78023240D01*
X127772839Y-77794985D01*
X127793435Y-77559577D01*
X127772839Y-77324169D01*
X127711679Y-77095914D01*
X127611811Y-76881748D01*
X127545242Y-76786676D01*
X127476270Y-76688174D01*
X127309178Y-76521083D01*
X127309172Y-76521078D01*
X127123618Y-76391152D01*
X127079993Y-76336575D01*
X127072799Y-76267077D01*
X127104322Y-76204722D01*
X127123618Y-76188002D01*
X127286128Y-76074211D01*
X127309177Y-76058072D01*
X127476271Y-75890978D01*
X127611811Y-75697407D01*
X127711679Y-75483240D01*
X127772839Y-75254985D01*
X127793435Y-75019577D01*
X127772839Y-74784169D01*
X127711679Y-74555914D01*
X127611811Y-74341748D01*
X127611810Y-74341746D01*
X127476270Y-74148174D01*
X127309178Y-73981083D01*
X127309172Y-73981078D01*
X127123618Y-73851152D01*
X127079993Y-73796575D01*
X127072799Y-73727077D01*
X127104322Y-73664722D01*
X127123618Y-73648002D01*
X127149592Y-73629815D01*
X127309177Y-73518072D01*
X127476271Y-73350978D01*
X127611811Y-73157407D01*
X127711679Y-72943240D01*
X127772839Y-72714985D01*
X127793435Y-72479577D01*
X127772839Y-72244169D01*
X127711679Y-72015914D01*
X127611811Y-71801748D01*
X127610237Y-71799499D01*
X127476270Y-71608174D01*
X127309178Y-71441083D01*
X127309172Y-71441078D01*
X127123618Y-71311152D01*
X127079993Y-71256575D01*
X127072799Y-71187077D01*
X127104322Y-71124722D01*
X127123618Y-71108002D01*
X127170662Y-71075061D01*
X127309177Y-70978072D01*
X127476271Y-70810978D01*
X127611811Y-70617407D01*
X127711679Y-70403240D01*
X127772839Y-70174985D01*
X127793435Y-69939577D01*
X127772839Y-69704169D01*
X127711679Y-69475914D01*
X127611811Y-69261748D01*
X127611810Y-69261746D01*
X127476270Y-69068174D01*
X127309178Y-68901083D01*
X127309172Y-68901078D01*
X127123618Y-68771152D01*
X127079993Y-68716575D01*
X127072799Y-68647077D01*
X127104322Y-68584722D01*
X127123618Y-68568002D01*
X127174386Y-68532454D01*
X127309177Y-68438072D01*
X127476271Y-68270978D01*
X127611811Y-68077407D01*
X127711679Y-67863240D01*
X127772839Y-67634985D01*
X127793435Y-67399577D01*
X127792631Y-67390393D01*
X127784273Y-67294858D01*
X127772839Y-67164169D01*
X127711679Y-66935914D01*
X127611811Y-66721748D01*
X127611810Y-66721746D01*
X127476272Y-66528177D01*
X127423595Y-66475500D01*
X127353955Y-66405860D01*
X127320472Y-66344540D01*
X127325456Y-66274848D01*
X127367327Y-66218914D01*
X127398305Y-66201999D01*
X127529862Y-66152931D01*
X127529869Y-66152927D01*
X127644963Y-66066767D01*
X127644966Y-66066764D01*
X127731126Y-65951670D01*
X127731130Y-65951663D01*
X127781372Y-65816956D01*
X127781374Y-65816949D01*
X127787775Y-65757421D01*
X127787776Y-65757404D01*
X127787776Y-65109577D01*
X126870788Y-65109577D01*
X126903701Y-65052570D01*
X126937776Y-64925403D01*
X126937776Y-64793751D01*
X126903701Y-64666584D01*
X126870788Y-64609577D01*
X127787776Y-64609577D01*
X127787776Y-63961749D01*
X127787775Y-63961732D01*
X127781374Y-63902204D01*
X127781372Y-63902197D01*
X127731130Y-63767490D01*
X127731126Y-63767483D01*
X127679718Y-63698811D01*
X127655300Y-63633347D01*
X127670151Y-63565074D01*
X127719556Y-63515668D01*
X127778984Y-63500500D01*
X128584108Y-63500500D01*
X128645933Y-63500500D01*
X128654043Y-63500765D01*
G37*
%TD.AperFunction*%
%TA.AperFunction,Conductor*%
G36*
X125215724Y-75639762D02*
G01*
X125261068Y-75691674D01*
X125263741Y-75697407D01*
X125263742Y-75697408D01*
X125399277Y-75890972D01*
X125399282Y-75890979D01*
X125566373Y-76058070D01*
X125566379Y-76058075D01*
X125751934Y-76188002D01*
X125795559Y-76242579D01*
X125802753Y-76312077D01*
X125771230Y-76374432D01*
X125751934Y-76391152D01*
X125566376Y-76521080D01*
X125456026Y-76631430D01*
X125394703Y-76664914D01*
X125325011Y-76659930D01*
X125280664Y-76631429D01*
X125087590Y-76438355D01*
X125087588Y-76438352D01*
X124968717Y-76319481D01*
X124968709Y-76319475D01*
X124866936Y-76260717D01*
X124866934Y-76260716D01*
X124831790Y-76240425D01*
X124831789Y-76240424D01*
X124819263Y-76237067D01*
X124679057Y-76199499D01*
X124520943Y-76199499D01*
X124513347Y-76199499D01*
X124513331Y-76199500D01*
X119182412Y-76199500D01*
X119115373Y-76179815D01*
X119105097Y-76172445D01*
X119102263Y-76170185D01*
X119102262Y-76170184D01*
X118996258Y-76103577D01*
X118949523Y-76074211D01*
X118779254Y-76014631D01*
X118779249Y-76014630D01*
X118600004Y-75994435D01*
X118599996Y-75994435D01*
X118420750Y-76014630D01*
X118420745Y-76014631D01*
X118250476Y-76074211D01*
X118097737Y-76170184D01*
X117970184Y-76297737D01*
X117874211Y-76450476D01*
X117814631Y-76620745D01*
X117814630Y-76620750D01*
X117794435Y-76799996D01*
X117794435Y-76800003D01*
X117814630Y-76979249D01*
X117814631Y-76979254D01*
X117874211Y-77149523D01*
X117904892Y-77198351D01*
X117970184Y-77302262D01*
X118097738Y-77429816D01*
X118250478Y-77525789D01*
X118420745Y-77585368D01*
X118420750Y-77585369D01*
X118599996Y-77605565D01*
X118600000Y-77605565D01*
X118600003Y-77605565D01*
X118672720Y-77597371D01*
X118687306Y-77595728D01*
X118756128Y-77607782D01*
X118807507Y-77655131D01*
X118825132Y-77722741D01*
X118825031Y-77725226D01*
X118825000Y-77725837D01*
X118825000Y-77825000D01*
X120774999Y-77825000D01*
X120774999Y-77725860D01*
X120774998Y-77725845D01*
X120764680Y-77624846D01*
X120744354Y-77563503D01*
X120741953Y-77493675D01*
X120777684Y-77433633D01*
X120840205Y-77402441D01*
X120862060Y-77400500D01*
X124299903Y-77400500D01*
X124366942Y-77420185D01*
X124387584Y-77436819D01*
X124874716Y-77923951D01*
X124874726Y-77923962D01*
X124879056Y-77928292D01*
X124879057Y-77928293D01*
X124990861Y-78040097D01*
X125077672Y-78090216D01*
X125077674Y-78090218D01*
X125115728Y-78112188D01*
X125127792Y-78119154D01*
X125164284Y-78128931D01*
X125223943Y-78165295D01*
X125244571Y-78196300D01*
X125263737Y-78237401D01*
X125263741Y-78237408D01*
X125325074Y-78325000D01*
X125394975Y-78424829D01*
X125399277Y-78430972D01*
X125399282Y-78430979D01*
X125566373Y-78598070D01*
X125566379Y-78598075D01*
X125751934Y-78728002D01*
X125795559Y-78782579D01*
X125802753Y-78852077D01*
X125771230Y-78914432D01*
X125751934Y-78931152D01*
X125566373Y-79061082D01*
X125399282Y-79228173D01*
X125351650Y-79296200D01*
X125297073Y-79339825D01*
X125250075Y-79349077D01*
X120854493Y-79349077D01*
X120787454Y-79329392D01*
X120741699Y-79276588D01*
X120736787Y-79264082D01*
X120727451Y-79235908D01*
X120710908Y-79185984D01*
X120620340Y-79039150D01*
X120606017Y-79024827D01*
X120572532Y-78963504D01*
X120577516Y-78893812D01*
X120606021Y-78849460D01*
X120619947Y-78835535D01*
X120710448Y-78688811D01*
X120710453Y-78688800D01*
X120764680Y-78525152D01*
X120774999Y-78424154D01*
X120775000Y-78424141D01*
X120775000Y-78325000D01*
X118825001Y-78325000D01*
X118825001Y-78424154D01*
X118835319Y-78525152D01*
X118889546Y-78688800D01*
X118889551Y-78688811D01*
X118980052Y-78835534D01*
X118980055Y-78835538D01*
X118993982Y-78849465D01*
X119027467Y-78910788D01*
X119022483Y-78980480D01*
X118993984Y-79024825D01*
X118979661Y-79039148D01*
X118889093Y-79185981D01*
X118889092Y-79185984D01*
X118872660Y-79235574D01*
X118863213Y-79264082D01*
X118823440Y-79321526D01*
X118758924Y-79348349D01*
X118745507Y-79349077D01*
X116974500Y-79349077D01*
X116907461Y-79329392D01*
X116861706Y-79276588D01*
X116850500Y-79225077D01*
X116850500Y-78648428D01*
X116825502Y-78522761D01*
X116825501Y-78522760D01*
X116825501Y-78522756D01*
X116784937Y-78424828D01*
X116775499Y-78377376D01*
X116775499Y-78013330D01*
X116775498Y-78013313D01*
X116765174Y-77912247D01*
X116736263Y-77825000D01*
X116710908Y-77748484D01*
X116620340Y-77601650D01*
X116506371Y-77487681D01*
X116472886Y-77426358D01*
X116477870Y-77356666D01*
X116506371Y-77312319D01*
X116516428Y-77302262D01*
X116620340Y-77198350D01*
X116710908Y-77051516D01*
X116765174Y-76887753D01*
X116775500Y-76786677D01*
X116775499Y-76412596D01*
X116795183Y-76345558D01*
X116811813Y-76324921D01*
X117480340Y-75656396D01*
X117541663Y-75622911D01*
X117568021Y-75620077D01*
X125148685Y-75620077D01*
X125215724Y-75639762D01*
G37*
%TD.AperFunction*%
%TA.AperFunction,Conductor*%
G36*
X114228974Y-65270185D02*
G01*
X114274729Y-65322989D01*
X114279640Y-65335494D01*
X114289090Y-65364013D01*
X114289092Y-65364016D01*
X114377980Y-65508127D01*
X114379661Y-65510851D01*
X114493629Y-65624819D01*
X114527114Y-65686142D01*
X114522130Y-65755834D01*
X114493629Y-65800181D01*
X114379661Y-65914148D01*
X114289093Y-66060981D01*
X114289091Y-66060986D01*
X114278032Y-66094360D01*
X114234826Y-66224747D01*
X114234826Y-66224748D01*
X114234825Y-66224748D01*
X114224500Y-66325815D01*
X114224500Y-66475500D01*
X114204815Y-66542539D01*
X114152011Y-66588294D01*
X114100500Y-66599500D01*
X114086500Y-66599500D01*
X114019461Y-66579815D01*
X113973706Y-66527011D01*
X113962500Y-66475500D01*
X113962500Y-66450000D01*
X112799000Y-66450000D01*
X112731961Y-66430315D01*
X112686206Y-66377511D01*
X112675000Y-66326000D01*
X112675000Y-66074000D01*
X112694685Y-66006961D01*
X112747489Y-65961206D01*
X112799000Y-65950000D01*
X113962499Y-65950000D01*
X113962499Y-65913360D01*
X113962498Y-65913345D01*
X113952180Y-65812347D01*
X113897953Y-65648699D01*
X113897948Y-65648688D01*
X113807447Y-65501965D01*
X113807444Y-65501961D01*
X113767664Y-65462181D01*
X113734179Y-65400858D01*
X113739163Y-65331166D01*
X113781035Y-65275233D01*
X113846499Y-65250816D01*
X113855345Y-65250500D01*
X114161935Y-65250500D01*
X114228974Y-65270185D01*
G37*
%TD.AperFunction*%
%TD*%
M02*
