%TF.GenerationSoftware,KiCad,Pcbnew,8.0.3*%
%TF.CreationDate,2024-06-23T18:20:20+02:00*%
%TF.ProjectId,PCF2131-breakout,50434632-3133-4312-9d62-7265616b6f75,rev?*%
%TF.SameCoordinates,Original*%
%TF.FileFunction,Copper,L2,Bot*%
%TF.FilePolarity,Positive*%
%FSLAX46Y46*%
G04 Gerber Fmt 4.6, Leading zero omitted, Abs format (unit mm)*
G04 Created by KiCad (PCBNEW 8.0.3) date 2024-06-23 18:20:20*
%MOMM*%
%LPD*%
G01*
G04 APERTURE LIST*
%TA.AperFunction,ComponentPad*%
%ADD10R,1.700000X1.700000*%
%TD*%
%TA.AperFunction,ComponentPad*%
%ADD11O,1.700000X1.700000*%
%TD*%
%TA.AperFunction,ViaPad*%
%ADD12C,0.600000*%
%TD*%
%TA.AperFunction,Conductor*%
%ADD13C,0.200000*%
%TD*%
%TA.AperFunction,Conductor*%
%ADD14C,0.500000*%
%TD*%
G04 APERTURE END LIST*
D10*
%TO.P,J2,1,Pin_1*%
%TO.N,GND*%
X126437776Y-64859577D03*
D11*
%TO.P,J2,2,Pin_2*%
%TO.N,INTA*%
X126437776Y-67399577D03*
%TO.P,J2,3,Pin_3*%
%TO.N,INTB*%
X126437776Y-69939577D03*
%TO.P,J2,4,Pin_4*%
%TO.N,CLKOUT*%
X126437776Y-72479577D03*
%TO.P,J2,5,Pin_5*%
%TO.N,SDA*%
X126437776Y-75019577D03*
%TO.P,J2,6,Pin_6*%
%TO.N,SCL*%
X126437776Y-77559577D03*
%TO.P,J2,7,Pin_7*%
%TO.N,VDD*%
X126437776Y-80099577D03*
%TD*%
D10*
%TO.P,J1,1,Pin_1*%
%TO.N,TS1*%
X103940000Y-69740000D03*
D11*
%TO.P,J1,2,Pin_2*%
%TO.N,TS2*%
X101400000Y-69740000D03*
%TO.P,J1,3,Pin_3*%
%TO.N,TS3*%
X103940000Y-67200000D03*
%TO.P,J1,4,Pin_4*%
%TO.N,TS4*%
X101400000Y-67200000D03*
%TD*%
D12*
%TO.N,GND*%
X114000000Y-66200000D03*
%TO.N,TS3*%
X99400000Y-69200000D03*
%TO.N,GND*%
X108600000Y-69800000D03*
%TO.N,TS1*%
X115000000Y-73000000D03*
%TO.N,TS2*%
X116400000Y-70800000D03*
%TO.N,TS3*%
X117200000Y-70400000D03*
%TO.N,TS4*%
X117800000Y-69600000D03*
%TO.N,GND*%
X115200000Y-71200000D03*
X121200000Y-78000000D03*
%TO.N,INTA*%
X120400000Y-65800000D03*
X116119310Y-65962093D03*
%TO.N,VDD*%
X108600000Y-64600000D03*
X107400000Y-74800000D03*
%TO.N,SCL*%
X118600000Y-76800000D03*
X114704948Y-77400000D03*
%TO.N,GND*%
X129200000Y-78800000D03*
%TD*%
D13*
%TO.N,TS3*%
X117200000Y-70400000D02*
X117200000Y-72400000D01*
X114800000Y-74800000D02*
X111400000Y-74800000D01*
X111400000Y-74800000D02*
X109400000Y-76800000D01*
X99200000Y-69400000D02*
X99400000Y-69200000D01*
X109400000Y-76800000D02*
X105800000Y-76800000D01*
X117200000Y-72400000D02*
X114800000Y-74800000D01*
X105800000Y-76800000D02*
X100800000Y-71800000D01*
X100800000Y-71800000D02*
X99800000Y-71800000D01*
X99800000Y-71800000D02*
X99200000Y-71200000D01*
X99200000Y-71200000D02*
X99200000Y-69400000D01*
%TO.N,TS4*%
X117800000Y-69600000D02*
X117800000Y-72400000D01*
X100600000Y-72200000D02*
X99600000Y-72200000D01*
X98800000Y-68600000D02*
X100200000Y-67200000D01*
X117800000Y-72400000D02*
X115000000Y-75200000D01*
X98800000Y-71400000D02*
X98800000Y-68600000D01*
X115000000Y-75200000D02*
X111600000Y-75200000D01*
X111600000Y-75200000D02*
X109600000Y-77200000D01*
X109600000Y-77200000D02*
X105600000Y-77200000D01*
X105600000Y-77200000D02*
X100600000Y-72200000D01*
X99600000Y-72200000D02*
X98800000Y-71400000D01*
X100200000Y-67200000D02*
X101400000Y-67200000D01*
%TO.N,TS2*%
X116400000Y-70800000D02*
X116400000Y-72600000D01*
X116400000Y-72600000D02*
X114600000Y-74400000D01*
X111200000Y-74400000D02*
X109200000Y-76400000D01*
X109200000Y-76400000D02*
X106200000Y-76400000D01*
X114600000Y-74400000D02*
X111200000Y-74400000D01*
X106200000Y-76400000D02*
X101400000Y-71600000D01*
X101400000Y-71600000D02*
X101400000Y-69740000D01*
%TO.N,TS1*%
X115000000Y-73000000D02*
X114800000Y-73200000D01*
X114800000Y-73200000D02*
X114800000Y-73600000D01*
X114800000Y-73600000D02*
X114400000Y-74000000D01*
X114400000Y-74000000D02*
X111000000Y-74000000D01*
X111000000Y-74000000D02*
X109000000Y-76000000D01*
X109000000Y-76000000D02*
X106400000Y-76000000D01*
X106400000Y-76000000D02*
X104800000Y-74400000D01*
X104800000Y-74400000D02*
X104800000Y-70600000D01*
X104800000Y-70600000D02*
X103940000Y-69740000D01*
%TO.N,INTA*%
X116496055Y-65703945D02*
X116237907Y-65962093D01*
X120303945Y-65703945D02*
X116496055Y-65703945D01*
X120400000Y-65800000D02*
X120303945Y-65703945D01*
X116237907Y-65962093D02*
X116119310Y-65962093D01*
%TO.N,SCL*%
X114704948Y-77400000D02*
X118000000Y-77400000D01*
X118000000Y-77400000D02*
X118600000Y-76800000D01*
D14*
%TO.N,VDD*%
X107400000Y-74800000D02*
X107400000Y-65800000D01*
X107400000Y-65800000D02*
X108600000Y-64600000D01*
D13*
%TO.N,INTB*%
X126298199Y-69800000D02*
X126437776Y-69939577D01*
%TD*%
%TA.AperFunction,Conductor*%
%TO.N,GND*%
G36*
X125163607Y-63520185D02*
G01*
X125209362Y-63572989D01*
X125219306Y-63642147D01*
X125195834Y-63698811D01*
X125144425Y-63767483D01*
X125144421Y-63767490D01*
X125094179Y-63902197D01*
X125094177Y-63902204D01*
X125087776Y-63961732D01*
X125087776Y-64609577D01*
X126004764Y-64609577D01*
X125971851Y-64666584D01*
X125937776Y-64793751D01*
X125937776Y-64925403D01*
X125971851Y-65052570D01*
X126004764Y-65109577D01*
X125087776Y-65109577D01*
X125087776Y-65757421D01*
X125094177Y-65816949D01*
X125094179Y-65816956D01*
X125144421Y-65951663D01*
X125144425Y-65951670D01*
X125230585Y-66066764D01*
X125230588Y-66066767D01*
X125345682Y-66152927D01*
X125345689Y-66152931D01*
X125477246Y-66201998D01*
X125533179Y-66243869D01*
X125557597Y-66309333D01*
X125542746Y-66377606D01*
X125521595Y-66405861D01*
X125399279Y-66528177D01*
X125263741Y-66721746D01*
X125263740Y-66721748D01*
X125163874Y-66935912D01*
X125163870Y-66935921D01*
X125102714Y-67164163D01*
X125102712Y-67164173D01*
X125082117Y-67399576D01*
X125082117Y-67399577D01*
X125102712Y-67634980D01*
X125102714Y-67634990D01*
X125163870Y-67863232D01*
X125163872Y-67863236D01*
X125163873Y-67863240D01*
X125243375Y-68033732D01*
X125263741Y-68077407D01*
X125263743Y-68077411D01*
X125399277Y-68270972D01*
X125399282Y-68270979D01*
X125566373Y-68438070D01*
X125566379Y-68438075D01*
X125751934Y-68568002D01*
X125795559Y-68622579D01*
X125802753Y-68692077D01*
X125771230Y-68754432D01*
X125751934Y-68771152D01*
X125566373Y-68901082D01*
X125399281Y-69068174D01*
X125263741Y-69261746D01*
X125263740Y-69261748D01*
X125163874Y-69475912D01*
X125163870Y-69475921D01*
X125102714Y-69704163D01*
X125102712Y-69704173D01*
X125082117Y-69939576D01*
X125082117Y-69939577D01*
X125102712Y-70174980D01*
X125102714Y-70174990D01*
X125163870Y-70403232D01*
X125163872Y-70403236D01*
X125163873Y-70403240D01*
X125260938Y-70611395D01*
X125263741Y-70617407D01*
X125263743Y-70617411D01*
X125399277Y-70810972D01*
X125399282Y-70810979D01*
X125566373Y-70978070D01*
X125566379Y-70978075D01*
X125751934Y-71108002D01*
X125795559Y-71162579D01*
X125802753Y-71232077D01*
X125771230Y-71294432D01*
X125751934Y-71311152D01*
X125566373Y-71441082D01*
X125399281Y-71608174D01*
X125263741Y-71801746D01*
X125263740Y-71801748D01*
X125163874Y-72015912D01*
X125163870Y-72015921D01*
X125102714Y-72244163D01*
X125102712Y-72244173D01*
X125082117Y-72479576D01*
X125082117Y-72479577D01*
X125102712Y-72714980D01*
X125102714Y-72714990D01*
X125163870Y-72943232D01*
X125163872Y-72943236D01*
X125163873Y-72943240D01*
X125263741Y-73157407D01*
X125263743Y-73157411D01*
X125399277Y-73350972D01*
X125399282Y-73350979D01*
X125566373Y-73518070D01*
X125566379Y-73518075D01*
X125751934Y-73648002D01*
X125795559Y-73702579D01*
X125802753Y-73772077D01*
X125771230Y-73834432D01*
X125751934Y-73851152D01*
X125566373Y-73981082D01*
X125399281Y-74148174D01*
X125263741Y-74341746D01*
X125263740Y-74341748D01*
X125163874Y-74555912D01*
X125163870Y-74555921D01*
X125102714Y-74784163D01*
X125102712Y-74784173D01*
X125082117Y-75019576D01*
X125082117Y-75019577D01*
X125102712Y-75254980D01*
X125102714Y-75254990D01*
X125163870Y-75483232D01*
X125163872Y-75483236D01*
X125163873Y-75483240D01*
X125255866Y-75680519D01*
X125263741Y-75697407D01*
X125263743Y-75697411D01*
X125399277Y-75890972D01*
X125399282Y-75890979D01*
X125566373Y-76058070D01*
X125566379Y-76058075D01*
X125751934Y-76188002D01*
X125795559Y-76242579D01*
X125802753Y-76312077D01*
X125771230Y-76374432D01*
X125751934Y-76391152D01*
X125566373Y-76521082D01*
X125399281Y-76688174D01*
X125263741Y-76881746D01*
X125263740Y-76881748D01*
X125163874Y-77095912D01*
X125163870Y-77095921D01*
X125102714Y-77324163D01*
X125102712Y-77324173D01*
X125082117Y-77559576D01*
X125082117Y-77559577D01*
X125102712Y-77794980D01*
X125102714Y-77794990D01*
X125163870Y-78023232D01*
X125163872Y-78023236D01*
X125163873Y-78023240D01*
X125211692Y-78125788D01*
X125263741Y-78237407D01*
X125263743Y-78237411D01*
X125399277Y-78430972D01*
X125399282Y-78430979D01*
X125566373Y-78598070D01*
X125566379Y-78598075D01*
X125751934Y-78728002D01*
X125795559Y-78782579D01*
X125802753Y-78852077D01*
X125771230Y-78914432D01*
X125751934Y-78931152D01*
X125566373Y-79061082D01*
X125399281Y-79228174D01*
X125263741Y-79421746D01*
X125263740Y-79421748D01*
X125163874Y-79635912D01*
X125163870Y-79635921D01*
X125102714Y-79864163D01*
X125102712Y-79864173D01*
X125082117Y-80099576D01*
X125082117Y-80099577D01*
X125102712Y-80334980D01*
X125102714Y-80334990D01*
X125163870Y-80563232D01*
X125163872Y-80563236D01*
X125163873Y-80563240D01*
X125263741Y-80777407D01*
X125263743Y-80777411D01*
X125399277Y-80970972D01*
X125399282Y-80970979D01*
X125566373Y-81138070D01*
X125566379Y-81138075D01*
X125760393Y-81273925D01*
X125804018Y-81328502D01*
X125811212Y-81398000D01*
X125779689Y-81460355D01*
X125719459Y-81495769D01*
X125689270Y-81499500D01*
X99504067Y-81499500D01*
X99495957Y-81499235D01*
X99247116Y-81482925D01*
X99231035Y-81480807D01*
X98990464Y-81432954D01*
X98974797Y-81428756D01*
X98742520Y-81349909D01*
X98727534Y-81343702D01*
X98507539Y-81235212D01*
X98493492Y-81227102D01*
X98289539Y-81090825D01*
X98276671Y-81080951D01*
X98092250Y-80919218D01*
X98080781Y-80907749D01*
X97919048Y-80723328D01*
X97909174Y-80710460D01*
X97772897Y-80506507D01*
X97764787Y-80492460D01*
X97658855Y-80277652D01*
X97656294Y-80272458D01*
X97650090Y-80257479D01*
X97571243Y-80025202D01*
X97567045Y-80009535D01*
X97559186Y-79970026D01*
X97519190Y-79768953D01*
X97517075Y-79752895D01*
X97500765Y-79504043D01*
X97500500Y-79495933D01*
X97500500Y-71479054D01*
X98199498Y-71479054D01*
X98240422Y-71631783D01*
X98267715Y-71679055D01*
X98267717Y-71679058D01*
X98319479Y-71768714D01*
X98319481Y-71768717D01*
X98438349Y-71887585D01*
X98438355Y-71887590D01*
X99115139Y-72564374D01*
X99115149Y-72564385D01*
X99119479Y-72568715D01*
X99119480Y-72568716D01*
X99231284Y-72680520D01*
X99318095Y-72730639D01*
X99318097Y-72730641D01*
X99356151Y-72752611D01*
X99368215Y-72759577D01*
X99520943Y-72800501D01*
X99520946Y-72800501D01*
X99686653Y-72800501D01*
X99686669Y-72800500D01*
X100299903Y-72800500D01*
X100366942Y-72820185D01*
X100387584Y-72836819D01*
X105115139Y-77564374D01*
X105115149Y-77564385D01*
X105119479Y-77568715D01*
X105119480Y-77568716D01*
X105231284Y-77680520D01*
X105318095Y-77730639D01*
X105318097Y-77730641D01*
X105356151Y-77752611D01*
X105368215Y-77759577D01*
X105520943Y-77800501D01*
X105520946Y-77800501D01*
X105686653Y-77800501D01*
X105686669Y-77800500D01*
X109513331Y-77800500D01*
X109513347Y-77800501D01*
X109520943Y-77800501D01*
X109679054Y-77800501D01*
X109679057Y-77800501D01*
X109831785Y-77759577D01*
X109881904Y-77730639D01*
X109968716Y-77680520D01*
X110080520Y-77568716D01*
X110080520Y-77568714D01*
X110090728Y-77558507D01*
X110090729Y-77558504D01*
X110249237Y-77399996D01*
X113899383Y-77399996D01*
X113899383Y-77400003D01*
X113919578Y-77579249D01*
X113919579Y-77579254D01*
X113979159Y-77749523D01*
X114075132Y-77902262D01*
X114202686Y-78029816D01*
X114355426Y-78125789D01*
X114525693Y-78185368D01*
X114525698Y-78185369D01*
X114704944Y-78205565D01*
X114704948Y-78205565D01*
X114704952Y-78205565D01*
X114884197Y-78185369D01*
X114884200Y-78185368D01*
X114884203Y-78185368D01*
X115054470Y-78125789D01*
X115207210Y-78029816D01*
X115207215Y-78029810D01*
X115210045Y-78027555D01*
X115212223Y-78026665D01*
X115213106Y-78026111D01*
X115213203Y-78026265D01*
X115274731Y-78001145D01*
X115287360Y-78000500D01*
X117913331Y-78000500D01*
X117913347Y-78000501D01*
X117920943Y-78000501D01*
X118079054Y-78000501D01*
X118079057Y-78000501D01*
X118231785Y-77959577D01*
X118281904Y-77930639D01*
X118368716Y-77880520D01*
X118480520Y-77768716D01*
X118480520Y-77768714D01*
X118490728Y-77758507D01*
X118490730Y-77758504D01*
X118618535Y-77630698D01*
X118679856Y-77597215D01*
X118692311Y-77595163D01*
X118779255Y-77585368D01*
X118949522Y-77525789D01*
X119102262Y-77429816D01*
X119229816Y-77302262D01*
X119325789Y-77149522D01*
X119385368Y-76979255D01*
X119394553Y-76897737D01*
X119405565Y-76800003D01*
X119405565Y-76799996D01*
X119385369Y-76620750D01*
X119385368Y-76620745D01*
X119325788Y-76450476D01*
X119254219Y-76336575D01*
X119229816Y-76297738D01*
X119102262Y-76170184D01*
X118949523Y-76074211D01*
X118779254Y-76014631D01*
X118779249Y-76014630D01*
X118600004Y-75994435D01*
X118599996Y-75994435D01*
X118420750Y-76014630D01*
X118420745Y-76014631D01*
X118250476Y-76074211D01*
X118097737Y-76170184D01*
X117970184Y-76297737D01*
X117874210Y-76450478D01*
X117814630Y-76620750D01*
X117806898Y-76689383D01*
X117779832Y-76753797D01*
X117722237Y-76793352D01*
X117683678Y-76799500D01*
X115287360Y-76799500D01*
X115220321Y-76779815D01*
X115210045Y-76772445D01*
X115207211Y-76770185D01*
X115207210Y-76770184D01*
X115150444Y-76734515D01*
X115054471Y-76674211D01*
X114884202Y-76614631D01*
X114884197Y-76614630D01*
X114704952Y-76594435D01*
X114704944Y-76594435D01*
X114525698Y-76614630D01*
X114525693Y-76614631D01*
X114355424Y-76674211D01*
X114202685Y-76770184D01*
X114075132Y-76897737D01*
X113979159Y-77050476D01*
X113919579Y-77220745D01*
X113919578Y-77220750D01*
X113899383Y-77399996D01*
X110249237Y-77399996D01*
X111812416Y-75836819D01*
X111873739Y-75803334D01*
X111900097Y-75800500D01*
X114913331Y-75800500D01*
X114913347Y-75800501D01*
X114920943Y-75800501D01*
X115079054Y-75800501D01*
X115079057Y-75800501D01*
X115231785Y-75759577D01*
X115281904Y-75730639D01*
X115368716Y-75680520D01*
X115480520Y-75568716D01*
X115480520Y-75568714D01*
X115490728Y-75558507D01*
X115490730Y-75558504D01*
X118158506Y-72890728D01*
X118158511Y-72890724D01*
X118168714Y-72880520D01*
X118168716Y-72880520D01*
X118280520Y-72768716D01*
X118348784Y-72650478D01*
X118348786Y-72650476D01*
X118359576Y-72631787D01*
X118359577Y-72631785D01*
X118400501Y-72479057D01*
X118400501Y-72320943D01*
X118400501Y-72313348D01*
X118400500Y-72313330D01*
X118400500Y-70182412D01*
X118420185Y-70115373D01*
X118427555Y-70105097D01*
X118429810Y-70102267D01*
X118429816Y-70102262D01*
X118525789Y-69949522D01*
X118585368Y-69779255D01*
X118605565Y-69600000D01*
X118599637Y-69547391D01*
X118585369Y-69420750D01*
X118585368Y-69420745D01*
X118525789Y-69250478D01*
X118429816Y-69097738D01*
X118302262Y-68970184D01*
X118253768Y-68939713D01*
X118149523Y-68874211D01*
X117979254Y-68814631D01*
X117979249Y-68814630D01*
X117800004Y-68794435D01*
X117799996Y-68794435D01*
X117620750Y-68814630D01*
X117620745Y-68814631D01*
X117450476Y-68874211D01*
X117297737Y-68970184D01*
X117170184Y-69097737D01*
X117074211Y-69250476D01*
X117014631Y-69420745D01*
X117014630Y-69420750D01*
X117000362Y-69547391D01*
X116973296Y-69611805D01*
X116918097Y-69650549D01*
X116850480Y-69674209D01*
X116697737Y-69770184D01*
X116570185Y-69897736D01*
X116570184Y-69897738D01*
X116543895Y-69939577D01*
X116543642Y-69939979D01*
X116491306Y-69986269D01*
X116424766Y-69997225D01*
X116400003Y-69994435D01*
X116399996Y-69994435D01*
X116220750Y-70014630D01*
X116220745Y-70014631D01*
X116050476Y-70074211D01*
X115897737Y-70170184D01*
X115770184Y-70297737D01*
X115674211Y-70450476D01*
X115614631Y-70620745D01*
X115614630Y-70620750D01*
X115594435Y-70799996D01*
X115594435Y-70800003D01*
X115614630Y-70979249D01*
X115614631Y-70979254D01*
X115674211Y-71149523D01*
X115770185Y-71302263D01*
X115772445Y-71305097D01*
X115773334Y-71307275D01*
X115773889Y-71308158D01*
X115773734Y-71308255D01*
X115798855Y-71369783D01*
X115799500Y-71382412D01*
X115799500Y-72299901D01*
X115779815Y-72366940D01*
X115763180Y-72387584D01*
X115729100Y-72421663D01*
X115667776Y-72455147D01*
X115598085Y-72450161D01*
X115553739Y-72421661D01*
X115502262Y-72370184D01*
X115349523Y-72274211D01*
X115179254Y-72214631D01*
X115179249Y-72214630D01*
X115000004Y-72194435D01*
X114999996Y-72194435D01*
X114820750Y-72214630D01*
X114820745Y-72214631D01*
X114650476Y-72274211D01*
X114497737Y-72370184D01*
X114370184Y-72497737D01*
X114274211Y-72650476D01*
X114214631Y-72820745D01*
X114214630Y-72820750D01*
X114194435Y-72999996D01*
X114194435Y-73000002D01*
X114202900Y-73075130D01*
X114200076Y-73112823D01*
X114200560Y-73112887D01*
X114199499Y-73120945D01*
X114199499Y-73275500D01*
X114179814Y-73342539D01*
X114127010Y-73388294D01*
X114075499Y-73399500D01*
X111079057Y-73399500D01*
X110920943Y-73399500D01*
X110768215Y-73440423D01*
X110768214Y-73440423D01*
X110768212Y-73440424D01*
X110768209Y-73440425D01*
X110718096Y-73469359D01*
X110718095Y-73469360D01*
X110674689Y-73494420D01*
X110631285Y-73519479D01*
X110631282Y-73519481D01*
X110519480Y-73631284D01*
X110519478Y-73631286D01*
X109650737Y-74500028D01*
X108787584Y-75363181D01*
X108726261Y-75396666D01*
X108699903Y-75399500D01*
X108193079Y-75399500D01*
X108126040Y-75379815D01*
X108080285Y-75327011D01*
X108070341Y-75257853D01*
X108088085Y-75209528D01*
X108125788Y-75149523D01*
X108125789Y-75149522D01*
X108185368Y-74979255D01*
X108205565Y-74800000D01*
X108203781Y-74784169D01*
X108185368Y-74620747D01*
X108185368Y-74620745D01*
X108157458Y-74540982D01*
X108150500Y-74500028D01*
X108150500Y-66162228D01*
X108170185Y-66095189D01*
X108186815Y-66074551D01*
X108299277Y-65962089D01*
X115313745Y-65962089D01*
X115313745Y-65962096D01*
X115333940Y-66141342D01*
X115333941Y-66141347D01*
X115393521Y-66311616D01*
X115414209Y-66344540D01*
X115489494Y-66464355D01*
X115617048Y-66591909D01*
X115769788Y-66687882D01*
X115940055Y-66747461D01*
X115940060Y-66747462D01*
X116119306Y-66767658D01*
X116119310Y-66767658D01*
X116119314Y-66767658D01*
X116298559Y-66747462D01*
X116298562Y-66747461D01*
X116298565Y-66747461D01*
X116468832Y-66687882D01*
X116621572Y-66591909D01*
X116749126Y-66464355D01*
X116813143Y-66362471D01*
X116865476Y-66316182D01*
X116918136Y-66304445D01*
X119721005Y-66304445D01*
X119788044Y-66324130D01*
X119808686Y-66340764D01*
X119897738Y-66429816D01*
X119988080Y-66486582D01*
X120044729Y-66522177D01*
X120050478Y-66525789D01*
X120141912Y-66557783D01*
X120220745Y-66585368D01*
X120220750Y-66585369D01*
X120399996Y-66605565D01*
X120400000Y-66605565D01*
X120400004Y-66605565D01*
X120579249Y-66585369D01*
X120579252Y-66585368D01*
X120579255Y-66585368D01*
X120749522Y-66525789D01*
X120902262Y-66429816D01*
X121029816Y-66302262D01*
X121125789Y-66149522D01*
X121185368Y-65979255D01*
X121185369Y-65979249D01*
X121205565Y-65800003D01*
X121205565Y-65799996D01*
X121185369Y-65620750D01*
X121185368Y-65620745D01*
X121141702Y-65495956D01*
X121125789Y-65450478D01*
X121029816Y-65297738D01*
X120902262Y-65170184D01*
X120880529Y-65156528D01*
X120749523Y-65074211D01*
X120579254Y-65014631D01*
X120579249Y-65014630D01*
X120400004Y-64994435D01*
X120399996Y-64994435D01*
X120220750Y-65014630D01*
X120220737Y-65014633D01*
X120050480Y-65074209D01*
X120034198Y-65084440D01*
X119968228Y-65103445D01*
X116416995Y-65103445D01*
X116376074Y-65114409D01*
X116376074Y-65114410D01*
X116326776Y-65127619D01*
X116264266Y-65144369D01*
X116258309Y-65147809D01*
X116190408Y-65164278D01*
X116182432Y-65163639D01*
X116119314Y-65156528D01*
X116119306Y-65156528D01*
X115940060Y-65176723D01*
X115940055Y-65176724D01*
X115769786Y-65236304D01*
X115617047Y-65332277D01*
X115489494Y-65459830D01*
X115393521Y-65612569D01*
X115333941Y-65782838D01*
X115333940Y-65782843D01*
X115313745Y-65962089D01*
X108299277Y-65962089D01*
X108908059Y-65353306D01*
X108944132Y-65330657D01*
X108943244Y-65328813D01*
X108949515Y-65325792D01*
X108949516Y-65325790D01*
X108949522Y-65325789D01*
X109102262Y-65229816D01*
X109229816Y-65102262D01*
X109325789Y-64949522D01*
X109385368Y-64779255D01*
X109405565Y-64600000D01*
X109395147Y-64507539D01*
X109385369Y-64420750D01*
X109385368Y-64420745D01*
X109339457Y-64289539D01*
X109325789Y-64250478D01*
X109229816Y-64097738D01*
X109102262Y-63970184D01*
X109020880Y-63919048D01*
X108949523Y-63874211D01*
X108779254Y-63814631D01*
X108779249Y-63814630D01*
X108600004Y-63794435D01*
X108599996Y-63794435D01*
X108420750Y-63814630D01*
X108420745Y-63814631D01*
X108250476Y-63874211D01*
X108097737Y-63970184D01*
X107970184Y-64097737D01*
X107874208Y-64250483D01*
X107871186Y-64256758D01*
X107869361Y-64255878D01*
X107846692Y-64291939D01*
X106817050Y-65321581D01*
X106817047Y-65321585D01*
X106787724Y-65365469D01*
X106787725Y-65365470D01*
X106734914Y-65444508D01*
X106678343Y-65581082D01*
X106678340Y-65581092D01*
X106649500Y-65726079D01*
X106649500Y-74500028D01*
X106642542Y-74540982D01*
X106614631Y-74620747D01*
X106594435Y-74799996D01*
X106594435Y-74800003D01*
X106614630Y-74979249D01*
X106614632Y-74979257D01*
X106643042Y-75060448D01*
X106646603Y-75130227D01*
X106611874Y-75190854D01*
X106549881Y-75223081D01*
X106480305Y-75216676D01*
X106438319Y-75189083D01*
X105436819Y-74187583D01*
X105403334Y-74126260D01*
X105400500Y-74099902D01*
X105400500Y-70689060D01*
X105400501Y-70689047D01*
X105400501Y-70520944D01*
X105400501Y-70520943D01*
X105359577Y-70368216D01*
X105307112Y-70277343D01*
X105290499Y-70215343D01*
X105290499Y-68842129D01*
X105290498Y-68842123D01*
X105284091Y-68782516D01*
X105233797Y-68647671D01*
X105233793Y-68647664D01*
X105147547Y-68532455D01*
X105147544Y-68532452D01*
X105032335Y-68446206D01*
X105032328Y-68446202D01*
X104900917Y-68397189D01*
X104844983Y-68355318D01*
X104820566Y-68289853D01*
X104835418Y-68221580D01*
X104856563Y-68193332D01*
X104978495Y-68071401D01*
X105114035Y-67877830D01*
X105213903Y-67663663D01*
X105275063Y-67435408D01*
X105295659Y-67200000D01*
X105275063Y-66964592D01*
X105213903Y-66736337D01*
X105114035Y-66522171D01*
X105108425Y-66514158D01*
X104978494Y-66328597D01*
X104811402Y-66161506D01*
X104811395Y-66161501D01*
X104794287Y-66149522D01*
X104716692Y-66095189D01*
X104617834Y-66025967D01*
X104617830Y-66025965D01*
X104517658Y-65979254D01*
X104403663Y-65926097D01*
X104403659Y-65926096D01*
X104403655Y-65926094D01*
X104175413Y-65864938D01*
X104175403Y-65864936D01*
X103940001Y-65844341D01*
X103939999Y-65844341D01*
X103704596Y-65864936D01*
X103704586Y-65864938D01*
X103476344Y-65926094D01*
X103476335Y-65926098D01*
X103262171Y-66025964D01*
X103262169Y-66025965D01*
X103068597Y-66161505D01*
X102901505Y-66328597D01*
X102771575Y-66514158D01*
X102716998Y-66557783D01*
X102647500Y-66564977D01*
X102585145Y-66533454D01*
X102568425Y-66514158D01*
X102438494Y-66328597D01*
X102271402Y-66161506D01*
X102271395Y-66161501D01*
X102254287Y-66149522D01*
X102176692Y-66095189D01*
X102077834Y-66025967D01*
X102077830Y-66025965D01*
X101977658Y-65979254D01*
X101863663Y-65926097D01*
X101863659Y-65926096D01*
X101863655Y-65926094D01*
X101635413Y-65864938D01*
X101635403Y-65864936D01*
X101400001Y-65844341D01*
X101399999Y-65844341D01*
X101164596Y-65864936D01*
X101164586Y-65864938D01*
X100936344Y-65926094D01*
X100936335Y-65926098D01*
X100722171Y-66025964D01*
X100722169Y-66025965D01*
X100528597Y-66161505D01*
X100361505Y-66328597D01*
X100225965Y-66522169D01*
X100225960Y-66522177D01*
X100223162Y-66528179D01*
X100176986Y-66580615D01*
X100126976Y-66598704D01*
X100120951Y-66599497D01*
X100120944Y-66599499D01*
X100120943Y-66599499D01*
X100098305Y-66605565D01*
X99968210Y-66640424D01*
X99968209Y-66640425D01*
X99918096Y-66669359D01*
X99918095Y-66669360D01*
X99886014Y-66687882D01*
X99831285Y-66719479D01*
X99831282Y-66719481D01*
X98319481Y-68231282D01*
X98319479Y-68231285D01*
X98315315Y-68238498D01*
X98285666Y-68289853D01*
X98269361Y-68318094D01*
X98269359Y-68318096D01*
X98240425Y-68368209D01*
X98240424Y-68368210D01*
X98234719Y-68389501D01*
X98199499Y-68520943D01*
X98199499Y-68520945D01*
X98199499Y-68689046D01*
X98199500Y-68689059D01*
X98199500Y-71313330D01*
X98199499Y-71313348D01*
X98199499Y-71479054D01*
X98199498Y-71479054D01*
X97500500Y-71479054D01*
X97500500Y-65504066D01*
X97500765Y-65495956D01*
X97504819Y-65434108D01*
X97517075Y-65247102D01*
X97519190Y-65231048D01*
X97567045Y-64990462D01*
X97571243Y-64974797D01*
X97632700Y-64793751D01*
X97650093Y-64742512D01*
X97656291Y-64727547D01*
X97764790Y-64507533D01*
X97772893Y-64493498D01*
X97909182Y-64289527D01*
X97919039Y-64276681D01*
X98080786Y-64092244D01*
X98092244Y-64080786D01*
X98276681Y-63919039D01*
X98289527Y-63909182D01*
X98493498Y-63772893D01*
X98507533Y-63764790D01*
X98727547Y-63656291D01*
X98742512Y-63650093D01*
X98969653Y-63572989D01*
X98974797Y-63571243D01*
X98990464Y-63567045D01*
X99000373Y-63565074D01*
X99231048Y-63519190D01*
X99247102Y-63517075D01*
X99495957Y-63500765D01*
X99504067Y-63500500D01*
X99565892Y-63500500D01*
X125096568Y-63500500D01*
X125163607Y-63520185D01*
G37*
%TD.AperFunction*%
%TA.AperFunction,Conductor*%
G36*
X128654043Y-63500765D02*
G01*
X128902895Y-63517075D01*
X128918953Y-63519190D01*
X129126105Y-63560395D01*
X129159535Y-63567045D01*
X129175202Y-63571243D01*
X129344947Y-63628863D01*
X129407481Y-63650091D01*
X129422458Y-63656294D01*
X129508674Y-63698811D01*
X129642460Y-63764787D01*
X129656508Y-63772897D01*
X129860464Y-63909177D01*
X129873328Y-63919048D01*
X130057749Y-64080781D01*
X130069218Y-64092250D01*
X130226790Y-64271927D01*
X130230951Y-64276671D01*
X130240825Y-64289539D01*
X130377102Y-64493492D01*
X130385212Y-64507539D01*
X130493702Y-64727534D01*
X130499909Y-64742520D01*
X130578756Y-64974797D01*
X130582954Y-64990464D01*
X130630807Y-65231035D01*
X130632925Y-65247116D01*
X130649235Y-65495956D01*
X130649500Y-65504066D01*
X130649500Y-79495933D01*
X130649235Y-79504043D01*
X130632925Y-79752883D01*
X130630807Y-79768964D01*
X130582954Y-80009535D01*
X130578756Y-80025202D01*
X130499909Y-80257479D01*
X130493702Y-80272465D01*
X130385212Y-80492460D01*
X130377102Y-80506507D01*
X130240825Y-80710460D01*
X130230951Y-80723328D01*
X130069218Y-80907749D01*
X130057749Y-80919218D01*
X129873328Y-81080951D01*
X129860460Y-81090825D01*
X129656507Y-81227102D01*
X129642460Y-81235212D01*
X129422465Y-81343702D01*
X129407479Y-81349909D01*
X129175202Y-81428756D01*
X129159535Y-81432954D01*
X128918964Y-81480807D01*
X128902883Y-81482925D01*
X128654043Y-81499235D01*
X128645933Y-81499500D01*
X127186282Y-81499500D01*
X127119243Y-81479815D01*
X127073488Y-81427011D01*
X127063544Y-81357853D01*
X127092569Y-81294297D01*
X127115159Y-81273925D01*
X127170447Y-81235212D01*
X127309177Y-81138072D01*
X127476271Y-80970978D01*
X127611811Y-80777407D01*
X127711679Y-80563240D01*
X127772839Y-80334985D01*
X127793435Y-80099577D01*
X127772839Y-79864169D01*
X127711679Y-79635914D01*
X127611811Y-79421748D01*
X127476271Y-79228176D01*
X127476270Y-79228174D01*
X127309178Y-79061083D01*
X127309172Y-79061078D01*
X127123618Y-78931152D01*
X127079993Y-78876575D01*
X127072799Y-78807077D01*
X127104322Y-78744722D01*
X127123618Y-78728002D01*
X127145802Y-78712468D01*
X127309177Y-78598072D01*
X127476271Y-78430978D01*
X127611811Y-78237407D01*
X127711679Y-78023240D01*
X127772839Y-77794985D01*
X127793435Y-77559577D01*
X127772839Y-77324169D01*
X127711679Y-77095914D01*
X127611811Y-76881748D01*
X127533694Y-76770184D01*
X127476270Y-76688174D01*
X127309178Y-76521083D01*
X127309172Y-76521078D01*
X127123618Y-76391152D01*
X127079993Y-76336575D01*
X127072799Y-76267077D01*
X127104322Y-76204722D01*
X127123618Y-76188002D01*
X127286128Y-76074211D01*
X127309177Y-76058072D01*
X127476271Y-75890978D01*
X127611811Y-75697407D01*
X127711679Y-75483240D01*
X127772839Y-75254985D01*
X127793435Y-75019577D01*
X127772839Y-74784169D01*
X127711679Y-74555914D01*
X127611811Y-74341748D01*
X127478434Y-74151264D01*
X127476270Y-74148174D01*
X127309178Y-73981083D01*
X127309172Y-73981078D01*
X127123618Y-73851152D01*
X127079993Y-73796575D01*
X127072799Y-73727077D01*
X127104322Y-73664722D01*
X127123618Y-73648002D01*
X127147494Y-73631284D01*
X127309177Y-73518072D01*
X127476271Y-73350978D01*
X127611811Y-73157407D01*
X127711679Y-72943240D01*
X127772839Y-72714985D01*
X127793435Y-72479577D01*
X127772839Y-72244169D01*
X127711679Y-72015914D01*
X127611811Y-71801748D01*
X127588681Y-71768714D01*
X127476270Y-71608174D01*
X127309178Y-71441083D01*
X127309172Y-71441078D01*
X127123618Y-71311152D01*
X127079993Y-71256575D01*
X127072799Y-71187077D01*
X127104322Y-71124722D01*
X127123618Y-71108002D01*
X127157766Y-71084091D01*
X127309177Y-70978072D01*
X127476271Y-70810978D01*
X127611811Y-70617407D01*
X127711679Y-70403240D01*
X127772839Y-70174985D01*
X127793435Y-69939577D01*
X127772839Y-69704169D01*
X127711679Y-69475914D01*
X127611811Y-69261748D01*
X127603919Y-69250476D01*
X127476270Y-69068174D01*
X127309178Y-68901083D01*
X127309172Y-68901078D01*
X127123618Y-68771152D01*
X127079993Y-68716575D01*
X127072799Y-68647077D01*
X127104322Y-68584722D01*
X127123618Y-68568002D01*
X127174386Y-68532454D01*
X127309177Y-68438072D01*
X127476271Y-68270978D01*
X127611811Y-68077407D01*
X127711679Y-67863240D01*
X127772839Y-67634985D01*
X127793435Y-67399577D01*
X127772839Y-67164169D01*
X127711679Y-66935914D01*
X127611811Y-66721748D01*
X127610222Y-66719479D01*
X127476272Y-66528177D01*
X127462253Y-66514158D01*
X127353955Y-66405860D01*
X127320472Y-66344540D01*
X127325456Y-66274848D01*
X127367327Y-66218914D01*
X127398305Y-66201999D01*
X127529862Y-66152931D01*
X127529869Y-66152927D01*
X127644963Y-66066767D01*
X127644966Y-66066764D01*
X127731126Y-65951670D01*
X127731130Y-65951663D01*
X127781372Y-65816956D01*
X127781374Y-65816949D01*
X127787775Y-65757421D01*
X127787776Y-65757404D01*
X127787776Y-65109577D01*
X126870788Y-65109577D01*
X126903701Y-65052570D01*
X126937776Y-64925403D01*
X126937776Y-64793751D01*
X126903701Y-64666584D01*
X126870788Y-64609577D01*
X127787776Y-64609577D01*
X127787776Y-63961749D01*
X127787775Y-63961732D01*
X127781374Y-63902204D01*
X127781372Y-63902197D01*
X127731130Y-63767490D01*
X127731126Y-63767483D01*
X127679718Y-63698811D01*
X127655300Y-63633347D01*
X127670151Y-63565074D01*
X127719556Y-63515668D01*
X127778984Y-63500500D01*
X128584108Y-63500500D01*
X128645933Y-63500500D01*
X128654043Y-63500765D01*
G37*
%TD.AperFunction*%
%TD*%
M02*
