%TF.GenerationSoftware,KiCad,Pcbnew,8.0.3*%
%TF.CreationDate,2024-06-23T18:20:20+02:00*%
%TF.ProjectId,PCF2131-breakout,50434632-3133-4312-9d62-7265616b6f75,rev?*%
%TF.SameCoordinates,Original*%
%TF.FileFunction,Legend,Top*%
%TF.FilePolarity,Positive*%
%FSLAX46Y46*%
G04 Gerber Fmt 4.6, Leading zero omitted, Abs format (unit mm)*
G04 Created by KiCad (PCBNEW 8.0.3) date 2024-06-23 18:20:20*
%MOMM*%
%LPD*%
G01*
G04 APERTURE LIST*
G04 Aperture macros list*
%AMRoundRect*
0 Rectangle with rounded corners*
0 $1 Rounding radius*
0 $2 $3 $4 $5 $6 $7 $8 $9 X,Y pos of 4 corners*
0 Add a 4 corners polygon primitive as box body*
4,1,4,$2,$3,$4,$5,$6,$7,$8,$9,$2,$3,0*
0 Add four circle primitives for the rounded corners*
1,1,$1+$1,$2,$3*
1,1,$1+$1,$4,$5*
1,1,$1+$1,$6,$7*
1,1,$1+$1,$8,$9*
0 Add four rect primitives between the rounded corners*
20,1,$1+$1,$2,$3,$4,$5,0*
20,1,$1+$1,$4,$5,$6,$7,0*
20,1,$1+$1,$6,$7,$8,$9,0*
20,1,$1+$1,$8,$9,$2,$3,0*%
G04 Aperture macros list end*
%ADD10C,0.100000*%
%ADD11C,0.075000*%
%ADD12C,0.150000*%
%ADD13C,0.125000*%
%ADD14C,0.254000*%
%ADD15C,0.120000*%
%ADD16C,0.250000*%
%ADD17R,1.700000X1.700000*%
%ADD18O,1.700000X1.700000*%
%ADD19RoundRect,0.237500X-0.300000X-0.237500X0.300000X-0.237500X0.300000X0.237500X-0.300000X0.237500X0*%
%ADD20RoundRect,0.237500X0.237500X-0.250000X0.237500X0.250000X-0.237500X0.250000X-0.237500X-0.250000X0*%
%ADD21RoundRect,0.237500X-0.237500X0.300000X-0.237500X-0.300000X0.237500X-0.300000X0.237500X0.300000X0*%
%ADD22R,0.300000X0.900000*%
%ADD23R,3.850000X2.050000*%
G04 APERTURE END LIST*
D10*
X131141404Y-79524204D02*
G75*
G02*
X128641404Y-82024204I-2500000J0D01*
G01*
X128643534Y-62998665D02*
G75*
G02*
X131143534Y-65498665I0J-2500000D01*
G01*
X97006522Y-65507899D02*
G75*
G02*
X99506522Y-63007899I2500000J0D01*
G01*
X99507639Y-82018381D02*
G75*
G02*
X97007639Y-79518381I0J2500000D01*
G01*
X99507639Y-82018381D02*
X128657639Y-82018381D01*
X99506522Y-63007899D02*
X128750000Y-63000000D01*
X131141686Y-79523151D02*
X131141686Y-65523151D01*
X97007639Y-79518381D02*
X97007639Y-65518381D01*
X98600000Y-77000000D02*
X98600000Y-77000000D01*
X99000000Y-77000000D02*
X99000000Y-77000000D01*
X99400000Y-77000000D02*
X99400000Y-77000000D01*
X99800000Y-77000000D02*
X99800000Y-77000000D01*
X100200000Y-77000000D02*
X100200000Y-77000000D01*
X100600000Y-77000000D02*
X100600000Y-77000000D01*
X101000000Y-77000000D02*
X101000000Y-77000000D01*
X101400000Y-77000000D02*
X101400000Y-77000000D01*
X101800000Y-77000000D02*
X101800000Y-77000000D01*
X102200000Y-77000000D02*
X102200000Y-77000000D01*
X102600000Y-77000000D02*
X102600000Y-77000000D01*
X103000000Y-77000000D02*
X103000000Y-77000000D01*
X103400000Y-77000000D02*
X103400000Y-77000000D01*
X103800000Y-77000000D02*
X103800000Y-77000000D01*
X104200000Y-77000000D02*
X104200000Y-77000000D01*
X104600000Y-77000000D02*
X104600000Y-77000000D01*
X105000000Y-77000000D02*
X105000000Y-77000000D01*
X105400000Y-77000000D02*
X105400000Y-77000000D01*
X105800000Y-77000000D02*
X105800000Y-77000000D01*
X106200000Y-77000000D02*
X106200000Y-77000000D01*
X106600000Y-77000000D02*
X106600000Y-77000000D01*
X107000000Y-77000000D02*
X107000000Y-77000000D01*
X107400000Y-77000000D02*
X107400000Y-77000000D01*
X107800000Y-77000000D02*
X107800000Y-77000000D01*
X108200000Y-77000000D02*
X108200000Y-77000000D01*
X108600000Y-77000000D02*
X108600000Y-77000000D01*
X109000000Y-77000000D02*
X109000000Y-77000000D01*
X109400000Y-77000000D02*
X109400000Y-77000000D01*
X109800000Y-77000000D02*
X109800000Y-77000000D01*
X110200000Y-77000000D02*
X110200000Y-77000000D01*
X110600000Y-77000000D02*
X110600000Y-77000000D01*
X111000000Y-77000000D02*
X111000000Y-77000000D01*
X111400000Y-77000000D02*
X111400000Y-77000000D01*
X111800000Y-77000000D02*
X111800000Y-77000000D01*
X111800000Y-77000000D02*
X111800000Y-77000000D01*
X111800000Y-77400000D02*
X111800000Y-77400000D01*
X111800000Y-77800000D02*
X111800000Y-77800000D01*
X111800000Y-78200000D02*
X111800000Y-78200000D01*
X111800000Y-78600000D02*
X111800000Y-78600000D01*
X111800000Y-79000000D02*
X111800000Y-79000000D01*
X111800000Y-79400000D02*
X111800000Y-79400000D01*
X111800000Y-79800000D02*
X111800000Y-79800000D01*
X111800000Y-80000000D02*
X111800000Y-80000000D01*
X111400000Y-80000000D02*
X111400000Y-80000000D01*
X111000000Y-80000000D02*
X111000000Y-80000000D01*
X110600000Y-80000000D02*
X110600000Y-80000000D01*
X110200000Y-80000000D02*
X110200000Y-80000000D01*
X109800000Y-80000000D02*
X109800000Y-80000000D01*
X109400000Y-80000000D02*
X109400000Y-80000000D01*
X109000000Y-80000000D02*
X109000000Y-80000000D01*
X108600000Y-80000000D02*
X108600000Y-80000000D01*
X108200000Y-80000000D02*
X108200000Y-80000000D01*
X107800000Y-80000000D02*
X107800000Y-80000000D01*
X107400000Y-80000000D02*
X107400000Y-80000000D01*
X107000000Y-80000000D02*
X107000000Y-80000000D01*
X106600000Y-80000000D02*
X106600000Y-80000000D01*
X106200000Y-80000000D02*
X106200000Y-80000000D01*
X105800000Y-80000000D02*
X105800000Y-80000000D01*
X105400000Y-80000000D02*
X105400000Y-80000000D01*
X105000000Y-80000000D02*
X105000000Y-80000000D01*
X104600000Y-80000000D02*
X104600000Y-80000000D01*
X104200000Y-80000000D02*
X104200000Y-80000000D01*
X103800000Y-80000000D02*
X103800000Y-80000000D01*
X103400000Y-80000000D02*
X103400000Y-80000000D01*
X103000000Y-80000000D02*
X103000000Y-80000000D01*
X102600000Y-80000000D02*
X102600000Y-80000000D01*
X102200000Y-80000000D02*
X102200000Y-80000000D01*
X101800000Y-80000000D02*
X101800000Y-80000000D01*
X101400000Y-80000000D02*
X101400000Y-80000000D01*
X101000000Y-80000000D02*
X101000000Y-80000000D01*
X100600000Y-80000000D02*
X100600000Y-80000000D01*
X100200000Y-80000000D02*
X100200000Y-80000000D01*
X99800000Y-80000000D02*
X99800000Y-80000000D01*
X99400000Y-80000000D02*
X99400000Y-80000000D01*
X99000000Y-80000000D02*
X99000000Y-80000000D01*
X98600000Y-80000000D02*
X98600000Y-80000000D01*
X98600000Y-80000000D02*
X98600000Y-80000000D01*
X98600000Y-79600000D02*
X98600000Y-79600000D01*
X98600000Y-79200000D02*
X98600000Y-79200000D01*
X98600000Y-78800000D02*
X98600000Y-78800000D01*
X98600000Y-78400000D02*
X98600000Y-78400000D01*
X98600000Y-78000000D02*
X98600000Y-78000000D01*
X98600000Y-77600000D02*
X98600000Y-77600000D01*
X98600000Y-77200000D02*
X98600000Y-77200000D01*
D11*
X99392199Y-79208385D02*
X99477913Y-79236957D01*
X99477913Y-79236957D02*
X99506484Y-79265528D01*
X99506484Y-79265528D02*
X99535056Y-79322671D01*
X99535056Y-79322671D02*
X99535056Y-79408385D01*
X99535056Y-79408385D02*
X99506484Y-79465528D01*
X99506484Y-79465528D02*
X99477913Y-79494100D01*
X99477913Y-79494100D02*
X99420770Y-79522671D01*
X99420770Y-79522671D02*
X99192199Y-79522671D01*
X99192199Y-79522671D02*
X99192199Y-78922671D01*
X99192199Y-78922671D02*
X99392199Y-78922671D01*
X99392199Y-78922671D02*
X99449342Y-78951242D01*
X99449342Y-78951242D02*
X99477913Y-78979814D01*
X99477913Y-78979814D02*
X99506484Y-79036957D01*
X99506484Y-79036957D02*
X99506484Y-79094100D01*
X99506484Y-79094100D02*
X99477913Y-79151242D01*
X99477913Y-79151242D02*
X99449342Y-79179814D01*
X99449342Y-79179814D02*
X99392199Y-79208385D01*
X99392199Y-79208385D02*
X99192199Y-79208385D01*
X99735056Y-79122671D02*
X99877913Y-79522671D01*
X100020770Y-79122671D02*
X99877913Y-79522671D01*
X99877913Y-79522671D02*
X99820770Y-79665528D01*
X99820770Y-79665528D02*
X99792199Y-79694100D01*
X99792199Y-79694100D02*
X99735056Y-79722671D01*
X101049342Y-79522671D02*
X100849342Y-79236957D01*
X100706485Y-79522671D02*
X100706485Y-78922671D01*
X100706485Y-78922671D02*
X100935056Y-78922671D01*
X100935056Y-78922671D02*
X100992199Y-78951242D01*
X100992199Y-78951242D02*
X101020770Y-78979814D01*
X101020770Y-78979814D02*
X101049342Y-79036957D01*
X101049342Y-79036957D02*
X101049342Y-79122671D01*
X101049342Y-79122671D02*
X101020770Y-79179814D01*
X101020770Y-79179814D02*
X100992199Y-79208385D01*
X100992199Y-79208385D02*
X100935056Y-79236957D01*
X100935056Y-79236957D02*
X100706485Y-79236957D01*
X101535056Y-79494100D02*
X101477913Y-79522671D01*
X101477913Y-79522671D02*
X101363628Y-79522671D01*
X101363628Y-79522671D02*
X101306485Y-79494100D01*
X101306485Y-79494100D02*
X101277913Y-79436957D01*
X101277913Y-79436957D02*
X101277913Y-79208385D01*
X101277913Y-79208385D02*
X101306485Y-79151242D01*
X101306485Y-79151242D02*
X101363628Y-79122671D01*
X101363628Y-79122671D02*
X101477913Y-79122671D01*
X101477913Y-79122671D02*
X101535056Y-79151242D01*
X101535056Y-79151242D02*
X101563628Y-79208385D01*
X101563628Y-79208385D02*
X101563628Y-79265528D01*
X101563628Y-79265528D02*
X101277913Y-79322671D01*
X101820771Y-79522671D02*
X101820771Y-79122671D01*
X101820771Y-78922671D02*
X101792199Y-78951242D01*
X101792199Y-78951242D02*
X101820771Y-78979814D01*
X101820771Y-78979814D02*
X101849342Y-78951242D01*
X101849342Y-78951242D02*
X101820771Y-78922671D01*
X101820771Y-78922671D02*
X101820771Y-78979814D01*
X102106485Y-79122671D02*
X102106485Y-79522671D01*
X102106485Y-79179814D02*
X102135056Y-79151242D01*
X102135056Y-79151242D02*
X102192199Y-79122671D01*
X102192199Y-79122671D02*
X102277913Y-79122671D01*
X102277913Y-79122671D02*
X102335056Y-79151242D01*
X102335056Y-79151242D02*
X102363628Y-79208385D01*
X102363628Y-79208385D02*
X102363628Y-79522671D01*
X102735056Y-79522671D02*
X102677913Y-79494100D01*
X102677913Y-79494100D02*
X102649342Y-79465528D01*
X102649342Y-79465528D02*
X102620770Y-79408385D01*
X102620770Y-79408385D02*
X102620770Y-79236957D01*
X102620770Y-79236957D02*
X102649342Y-79179814D01*
X102649342Y-79179814D02*
X102677913Y-79151242D01*
X102677913Y-79151242D02*
X102735056Y-79122671D01*
X102735056Y-79122671D02*
X102820770Y-79122671D01*
X102820770Y-79122671D02*
X102877913Y-79151242D01*
X102877913Y-79151242D02*
X102906485Y-79179814D01*
X102906485Y-79179814D02*
X102935056Y-79236957D01*
X102935056Y-79236957D02*
X102935056Y-79408385D01*
X102935056Y-79408385D02*
X102906485Y-79465528D01*
X102906485Y-79465528D02*
X102877913Y-79494100D01*
X102877913Y-79494100D02*
X102820770Y-79522671D01*
X102820770Y-79522671D02*
X102735056Y-79522671D01*
X103449342Y-79122671D02*
X103449342Y-79522671D01*
X103192199Y-79122671D02*
X103192199Y-79436957D01*
X103192199Y-79436957D02*
X103220770Y-79494100D01*
X103220770Y-79494100D02*
X103277913Y-79522671D01*
X103277913Y-79522671D02*
X103363627Y-79522671D01*
X103363627Y-79522671D02*
X103420770Y-79494100D01*
X103420770Y-79494100D02*
X103449342Y-79465528D01*
X103649341Y-79122671D02*
X103877913Y-79122671D01*
X103735056Y-78922671D02*
X103735056Y-79436957D01*
X103735056Y-79436957D02*
X103763627Y-79494100D01*
X103763627Y-79494100D02*
X103820770Y-79522671D01*
X103820770Y-79522671D02*
X103877913Y-79522671D01*
X104877913Y-79522671D02*
X104677913Y-79236957D01*
X104535056Y-79522671D02*
X104535056Y-78922671D01*
X104535056Y-78922671D02*
X104763627Y-78922671D01*
X104763627Y-78922671D02*
X104820770Y-78951242D01*
X104820770Y-78951242D02*
X104849341Y-78979814D01*
X104849341Y-78979814D02*
X104877913Y-79036957D01*
X104877913Y-79036957D02*
X104877913Y-79122671D01*
X104877913Y-79122671D02*
X104849341Y-79179814D01*
X104849341Y-79179814D02*
X104820770Y-79208385D01*
X104820770Y-79208385D02*
X104763627Y-79236957D01*
X104763627Y-79236957D02*
X104535056Y-79236957D01*
X105220770Y-79522671D02*
X105163627Y-79494100D01*
X105163627Y-79494100D02*
X105135056Y-79465528D01*
X105135056Y-79465528D02*
X105106484Y-79408385D01*
X105106484Y-79408385D02*
X105106484Y-79236957D01*
X105106484Y-79236957D02*
X105135056Y-79179814D01*
X105135056Y-79179814D02*
X105163627Y-79151242D01*
X105163627Y-79151242D02*
X105220770Y-79122671D01*
X105220770Y-79122671D02*
X105306484Y-79122671D01*
X105306484Y-79122671D02*
X105363627Y-79151242D01*
X105363627Y-79151242D02*
X105392199Y-79179814D01*
X105392199Y-79179814D02*
X105420770Y-79236957D01*
X105420770Y-79236957D02*
X105420770Y-79408385D01*
X105420770Y-79408385D02*
X105392199Y-79465528D01*
X105392199Y-79465528D02*
X105363627Y-79494100D01*
X105363627Y-79494100D02*
X105306484Y-79522671D01*
X105306484Y-79522671D02*
X105220770Y-79522671D01*
X105906484Y-79494100D02*
X105849341Y-79522671D01*
X105849341Y-79522671D02*
X105735056Y-79522671D01*
X105735056Y-79522671D02*
X105677913Y-79494100D01*
X105677913Y-79494100D02*
X105649341Y-79436957D01*
X105649341Y-79436957D02*
X105649341Y-79208385D01*
X105649341Y-79208385D02*
X105677913Y-79151242D01*
X105677913Y-79151242D02*
X105735056Y-79122671D01*
X105735056Y-79122671D02*
X105849341Y-79122671D01*
X105849341Y-79122671D02*
X105906484Y-79151242D01*
X105906484Y-79151242D02*
X105935056Y-79208385D01*
X105935056Y-79208385D02*
X105935056Y-79265528D01*
X105935056Y-79265528D02*
X105649341Y-79322671D01*
X106277913Y-79522671D02*
X106220770Y-79494100D01*
X106220770Y-79494100D02*
X106192199Y-79436957D01*
X106192199Y-79436957D02*
X106192199Y-78922671D01*
X106477913Y-79494100D02*
X106535056Y-79522671D01*
X106535056Y-79522671D02*
X106649342Y-79522671D01*
X106649342Y-79522671D02*
X106706485Y-79494100D01*
X106706485Y-79494100D02*
X106735056Y-79436957D01*
X106735056Y-79436957D02*
X106735056Y-79408385D01*
X106735056Y-79408385D02*
X106706485Y-79351242D01*
X106706485Y-79351242D02*
X106649342Y-79322671D01*
X106649342Y-79322671D02*
X106563628Y-79322671D01*
X106563628Y-79322671D02*
X106506485Y-79294100D01*
X106506485Y-79294100D02*
X106477913Y-79236957D01*
X106477913Y-79236957D02*
X106477913Y-79208385D01*
X106477913Y-79208385D02*
X106506485Y-79151242D01*
X106506485Y-79151242D02*
X106563628Y-79122671D01*
X106563628Y-79122671D02*
X106649342Y-79122671D01*
X106649342Y-79122671D02*
X106706485Y-79151242D01*
D12*
X99112969Y-78282057D02*
X99112969Y-77382057D01*
X99112969Y-77382057D02*
X99455826Y-77382057D01*
X99455826Y-77382057D02*
X99541541Y-77424914D01*
X99541541Y-77424914D02*
X99584398Y-77467771D01*
X99584398Y-77467771D02*
X99627255Y-77553485D01*
X99627255Y-77553485D02*
X99627255Y-77682057D01*
X99627255Y-77682057D02*
X99584398Y-77767771D01*
X99584398Y-77767771D02*
X99541541Y-77810628D01*
X99541541Y-77810628D02*
X99455826Y-77853485D01*
X99455826Y-77853485D02*
X99112969Y-77853485D01*
X100527255Y-78196342D02*
X100484398Y-78239200D01*
X100484398Y-78239200D02*
X100355826Y-78282057D01*
X100355826Y-78282057D02*
X100270112Y-78282057D01*
X100270112Y-78282057D02*
X100141541Y-78239200D01*
X100141541Y-78239200D02*
X100055826Y-78153485D01*
X100055826Y-78153485D02*
X100012969Y-78067771D01*
X100012969Y-78067771D02*
X99970112Y-77896342D01*
X99970112Y-77896342D02*
X99970112Y-77767771D01*
X99970112Y-77767771D02*
X100012969Y-77596342D01*
X100012969Y-77596342D02*
X100055826Y-77510628D01*
X100055826Y-77510628D02*
X100141541Y-77424914D01*
X100141541Y-77424914D02*
X100270112Y-77382057D01*
X100270112Y-77382057D02*
X100355826Y-77382057D01*
X100355826Y-77382057D02*
X100484398Y-77424914D01*
X100484398Y-77424914D02*
X100527255Y-77467771D01*
X101212969Y-77810628D02*
X100912969Y-77810628D01*
X100912969Y-78282057D02*
X100912969Y-77382057D01*
X100912969Y-77382057D02*
X101341541Y-77382057D01*
X101641541Y-77467771D02*
X101684398Y-77424914D01*
X101684398Y-77424914D02*
X101770113Y-77382057D01*
X101770113Y-77382057D02*
X101984398Y-77382057D01*
X101984398Y-77382057D02*
X102070113Y-77424914D01*
X102070113Y-77424914D02*
X102112970Y-77467771D01*
X102112970Y-77467771D02*
X102155827Y-77553485D01*
X102155827Y-77553485D02*
X102155827Y-77639200D01*
X102155827Y-77639200D02*
X102112970Y-77767771D01*
X102112970Y-77767771D02*
X101598684Y-78282057D01*
X101598684Y-78282057D02*
X102155827Y-78282057D01*
X103012970Y-78282057D02*
X102498684Y-78282057D01*
X102755827Y-78282057D02*
X102755827Y-77382057D01*
X102755827Y-77382057D02*
X102670113Y-77510628D01*
X102670113Y-77510628D02*
X102584398Y-77596342D01*
X102584398Y-77596342D02*
X102498684Y-77639200D01*
X103312970Y-77382057D02*
X103870113Y-77382057D01*
X103870113Y-77382057D02*
X103570113Y-77724914D01*
X103570113Y-77724914D02*
X103698684Y-77724914D01*
X103698684Y-77724914D02*
X103784399Y-77767771D01*
X103784399Y-77767771D02*
X103827256Y-77810628D01*
X103827256Y-77810628D02*
X103870113Y-77896342D01*
X103870113Y-77896342D02*
X103870113Y-78110628D01*
X103870113Y-78110628D02*
X103827256Y-78196342D01*
X103827256Y-78196342D02*
X103784399Y-78239200D01*
X103784399Y-78239200D02*
X103698684Y-78282057D01*
X103698684Y-78282057D02*
X103441541Y-78282057D01*
X103441541Y-78282057D02*
X103355827Y-78239200D01*
X103355827Y-78239200D02*
X103312970Y-78196342D01*
X104727256Y-78282057D02*
X104212970Y-78282057D01*
X104470113Y-78282057D02*
X104470113Y-77382057D01*
X104470113Y-77382057D02*
X104384399Y-77510628D01*
X104384399Y-77510628D02*
X104298684Y-77596342D01*
X104298684Y-77596342D02*
X104212970Y-77639200D01*
X106098684Y-77810628D02*
X106227256Y-77853485D01*
X106227256Y-77853485D02*
X106270113Y-77896342D01*
X106270113Y-77896342D02*
X106312970Y-77982057D01*
X106312970Y-77982057D02*
X106312970Y-78110628D01*
X106312970Y-78110628D02*
X106270113Y-78196342D01*
X106270113Y-78196342D02*
X106227256Y-78239200D01*
X106227256Y-78239200D02*
X106141541Y-78282057D01*
X106141541Y-78282057D02*
X105798684Y-78282057D01*
X105798684Y-78282057D02*
X105798684Y-77382057D01*
X105798684Y-77382057D02*
X106098684Y-77382057D01*
X106098684Y-77382057D02*
X106184399Y-77424914D01*
X106184399Y-77424914D02*
X106227256Y-77467771D01*
X106227256Y-77467771D02*
X106270113Y-77553485D01*
X106270113Y-77553485D02*
X106270113Y-77639200D01*
X106270113Y-77639200D02*
X106227256Y-77724914D01*
X106227256Y-77724914D02*
X106184399Y-77767771D01*
X106184399Y-77767771D02*
X106098684Y-77810628D01*
X106098684Y-77810628D02*
X105798684Y-77810628D01*
X106698684Y-78282057D02*
X106698684Y-77682057D01*
X106698684Y-77853485D02*
X106741541Y-77767771D01*
X106741541Y-77767771D02*
X106784399Y-77724914D01*
X106784399Y-77724914D02*
X106870113Y-77682057D01*
X106870113Y-77682057D02*
X106955827Y-77682057D01*
X107598684Y-78239200D02*
X107512970Y-78282057D01*
X107512970Y-78282057D02*
X107341542Y-78282057D01*
X107341542Y-78282057D02*
X107255827Y-78239200D01*
X107255827Y-78239200D02*
X107212970Y-78153485D01*
X107212970Y-78153485D02*
X107212970Y-77810628D01*
X107212970Y-77810628D02*
X107255827Y-77724914D01*
X107255827Y-77724914D02*
X107341542Y-77682057D01*
X107341542Y-77682057D02*
X107512970Y-77682057D01*
X107512970Y-77682057D02*
X107598684Y-77724914D01*
X107598684Y-77724914D02*
X107641542Y-77810628D01*
X107641542Y-77810628D02*
X107641542Y-77896342D01*
X107641542Y-77896342D02*
X107212970Y-77982057D01*
X108412971Y-78282057D02*
X108412971Y-77810628D01*
X108412971Y-77810628D02*
X108370113Y-77724914D01*
X108370113Y-77724914D02*
X108284399Y-77682057D01*
X108284399Y-77682057D02*
X108112971Y-77682057D01*
X108112971Y-77682057D02*
X108027256Y-77724914D01*
X108412971Y-78239200D02*
X108327256Y-78282057D01*
X108327256Y-78282057D02*
X108112971Y-78282057D01*
X108112971Y-78282057D02*
X108027256Y-78239200D01*
X108027256Y-78239200D02*
X107984399Y-78153485D01*
X107984399Y-78153485D02*
X107984399Y-78067771D01*
X107984399Y-78067771D02*
X108027256Y-77982057D01*
X108027256Y-77982057D02*
X108112971Y-77939200D01*
X108112971Y-77939200D02*
X108327256Y-77939200D01*
X108327256Y-77939200D02*
X108412971Y-77896342D01*
X108841542Y-78282057D02*
X108841542Y-77382057D01*
X108927257Y-77939200D02*
X109184399Y-78282057D01*
X109184399Y-77682057D02*
X108841542Y-78024914D01*
X109698685Y-78282057D02*
X109612970Y-78239200D01*
X109612970Y-78239200D02*
X109570113Y-78196342D01*
X109570113Y-78196342D02*
X109527256Y-78110628D01*
X109527256Y-78110628D02*
X109527256Y-77853485D01*
X109527256Y-77853485D02*
X109570113Y-77767771D01*
X109570113Y-77767771D02*
X109612970Y-77724914D01*
X109612970Y-77724914D02*
X109698685Y-77682057D01*
X109698685Y-77682057D02*
X109827256Y-77682057D01*
X109827256Y-77682057D02*
X109912970Y-77724914D01*
X109912970Y-77724914D02*
X109955828Y-77767771D01*
X109955828Y-77767771D02*
X109998685Y-77853485D01*
X109998685Y-77853485D02*
X109998685Y-78110628D01*
X109998685Y-78110628D02*
X109955828Y-78196342D01*
X109955828Y-78196342D02*
X109912970Y-78239200D01*
X109912970Y-78239200D02*
X109827256Y-78282057D01*
X109827256Y-78282057D02*
X109698685Y-78282057D01*
X110770114Y-77682057D02*
X110770114Y-78282057D01*
X110384399Y-77682057D02*
X110384399Y-78153485D01*
X110384399Y-78153485D02*
X110427256Y-78239200D01*
X110427256Y-78239200D02*
X110512971Y-78282057D01*
X110512971Y-78282057D02*
X110641542Y-78282057D01*
X110641542Y-78282057D02*
X110727256Y-78239200D01*
X110727256Y-78239200D02*
X110770114Y-78196342D01*
X111070114Y-77682057D02*
X111412971Y-77682057D01*
X111198685Y-77382057D02*
X111198685Y-78153485D01*
X111198685Y-78153485D02*
X111241542Y-78239200D01*
X111241542Y-78239200D02*
X111327257Y-78282057D01*
X111327257Y-78282057D02*
X111412971Y-78282057D01*
D13*
X98672712Y-69166357D02*
X98720331Y-69118738D01*
X98720331Y-69118738D02*
X98815569Y-69071119D01*
X98815569Y-69071119D02*
X99053664Y-69071119D01*
X99053664Y-69071119D02*
X99148902Y-69118738D01*
X99148902Y-69118738D02*
X99196521Y-69166357D01*
X99196521Y-69166357D02*
X99244140Y-69261595D01*
X99244140Y-69261595D02*
X99244140Y-69356833D01*
X99244140Y-69356833D02*
X99196521Y-69499690D01*
X99196521Y-69499690D02*
X98625093Y-70071119D01*
X98625093Y-70071119D02*
X99244140Y-70071119D01*
X98948902Y-66804452D02*
X98948902Y-67471119D01*
X98710807Y-66423500D02*
X98472712Y-67137785D01*
X98472712Y-67137785D02*
X99091759Y-67137785D01*
X106025093Y-66671119D02*
X106644140Y-66671119D01*
X106644140Y-66671119D02*
X106310807Y-67052071D01*
X106310807Y-67052071D02*
X106453664Y-67052071D01*
X106453664Y-67052071D02*
X106548902Y-67099690D01*
X106548902Y-67099690D02*
X106596521Y-67147309D01*
X106596521Y-67147309D02*
X106644140Y-67242547D01*
X106644140Y-67242547D02*
X106644140Y-67480642D01*
X106644140Y-67480642D02*
X106596521Y-67575880D01*
X106596521Y-67575880D02*
X106548902Y-67623500D01*
X106548902Y-67623500D02*
X106453664Y-67671119D01*
X106453664Y-67671119D02*
X106167950Y-67671119D01*
X106167950Y-67671119D02*
X106072712Y-67623500D01*
X106072712Y-67623500D02*
X106025093Y-67575880D01*
X106644140Y-70071119D02*
X106072712Y-70071119D01*
X106358426Y-70071119D02*
X106358426Y-69071119D01*
X106358426Y-69071119D02*
X106263188Y-69213976D01*
X106263188Y-69213976D02*
X106167950Y-69309214D01*
X106167950Y-69309214D02*
X106072712Y-69356833D01*
X98377474Y-71871119D02*
X98948902Y-71871119D01*
X98663188Y-72871119D02*
X98663188Y-71871119D01*
X99282236Y-72871119D02*
X99282236Y-71871119D01*
X99758426Y-72871119D02*
X99758426Y-71871119D01*
X99758426Y-71871119D02*
X100091759Y-72585404D01*
X100091759Y-72585404D02*
X100425092Y-71871119D01*
X100425092Y-71871119D02*
X100425092Y-72871119D01*
X100901283Y-72347309D02*
X101234616Y-72347309D01*
X101377473Y-72871119D02*
X100901283Y-72871119D01*
X100901283Y-72871119D02*
X100901283Y-71871119D01*
X100901283Y-71871119D02*
X101377473Y-71871119D01*
X101758426Y-72823500D02*
X101901283Y-72871119D01*
X101901283Y-72871119D02*
X102139378Y-72871119D01*
X102139378Y-72871119D02*
X102234616Y-72823500D01*
X102234616Y-72823500D02*
X102282235Y-72775880D01*
X102282235Y-72775880D02*
X102329854Y-72680642D01*
X102329854Y-72680642D02*
X102329854Y-72585404D01*
X102329854Y-72585404D02*
X102282235Y-72490166D01*
X102282235Y-72490166D02*
X102234616Y-72442547D01*
X102234616Y-72442547D02*
X102139378Y-72394928D01*
X102139378Y-72394928D02*
X101948902Y-72347309D01*
X101948902Y-72347309D02*
X101853664Y-72299690D01*
X101853664Y-72299690D02*
X101806045Y-72252071D01*
X101806045Y-72252071D02*
X101758426Y-72156833D01*
X101758426Y-72156833D02*
X101758426Y-72061595D01*
X101758426Y-72061595D02*
X101806045Y-71966357D01*
X101806045Y-71966357D02*
X101853664Y-71918738D01*
X101853664Y-71918738D02*
X101948902Y-71871119D01*
X101948902Y-71871119D02*
X102186997Y-71871119D01*
X102186997Y-71871119D02*
X102329854Y-71918738D01*
X102615569Y-71871119D02*
X103186997Y-71871119D01*
X102901283Y-72871119D02*
X102901283Y-71871119D01*
X103472712Y-72585404D02*
X103948902Y-72585404D01*
X103377474Y-72871119D02*
X103710807Y-71871119D01*
X103710807Y-71871119D02*
X104044140Y-72871119D01*
X104377474Y-72871119D02*
X104377474Y-71871119D01*
X104377474Y-71871119D02*
X104710807Y-72585404D01*
X104710807Y-72585404D02*
X105044140Y-71871119D01*
X105044140Y-71871119D02*
X105044140Y-72871119D01*
X105520331Y-72871119D02*
X105520331Y-71871119D01*
X105520331Y-71871119D02*
X105901283Y-71871119D01*
X105901283Y-71871119D02*
X105996521Y-71918738D01*
X105996521Y-71918738D02*
X106044140Y-71966357D01*
X106044140Y-71966357D02*
X106091759Y-72061595D01*
X106091759Y-72061595D02*
X106091759Y-72204452D01*
X106091759Y-72204452D02*
X106044140Y-72299690D01*
X106044140Y-72299690D02*
X105996521Y-72347309D01*
X105996521Y-72347309D02*
X105901283Y-72394928D01*
X105901283Y-72394928D02*
X105520331Y-72394928D01*
X106472712Y-72823500D02*
X106615569Y-72871119D01*
X106615569Y-72871119D02*
X106853664Y-72871119D01*
X106853664Y-72871119D02*
X106948902Y-72823500D01*
X106948902Y-72823500D02*
X106996521Y-72775880D01*
X106996521Y-72775880D02*
X107044140Y-72680642D01*
X107044140Y-72680642D02*
X107044140Y-72585404D01*
X107044140Y-72585404D02*
X106996521Y-72490166D01*
X106996521Y-72490166D02*
X106948902Y-72442547D01*
X106948902Y-72442547D02*
X106853664Y-72394928D01*
X106853664Y-72394928D02*
X106663188Y-72347309D01*
X106663188Y-72347309D02*
X106567950Y-72299690D01*
X106567950Y-72299690D02*
X106520331Y-72252071D01*
X106520331Y-72252071D02*
X106472712Y-72156833D01*
X106472712Y-72156833D02*
X106472712Y-72061595D01*
X106472712Y-72061595D02*
X106520331Y-71966357D01*
X106520331Y-71966357D02*
X106567950Y-71918738D01*
X106567950Y-71918738D02*
X106663188Y-71871119D01*
X106663188Y-71871119D02*
X106901283Y-71871119D01*
X106901283Y-71871119D02*
X107044140Y-71918738D01*
D12*
X122360588Y-64417438D02*
X122265350Y-64369819D01*
X122265350Y-64369819D02*
X122122493Y-64369819D01*
X122122493Y-64369819D02*
X121979636Y-64417438D01*
X121979636Y-64417438D02*
X121884398Y-64512676D01*
X121884398Y-64512676D02*
X121836779Y-64607914D01*
X121836779Y-64607914D02*
X121789160Y-64798390D01*
X121789160Y-64798390D02*
X121789160Y-64941247D01*
X121789160Y-64941247D02*
X121836779Y-65131723D01*
X121836779Y-65131723D02*
X121884398Y-65226961D01*
X121884398Y-65226961D02*
X121979636Y-65322200D01*
X121979636Y-65322200D02*
X122122493Y-65369819D01*
X122122493Y-65369819D02*
X122217731Y-65369819D01*
X122217731Y-65369819D02*
X122360588Y-65322200D01*
X122360588Y-65322200D02*
X122408207Y-65274580D01*
X122408207Y-65274580D02*
X122408207Y-64941247D01*
X122408207Y-64941247D02*
X122217731Y-64941247D01*
X122836779Y-65369819D02*
X122836779Y-64369819D01*
X122836779Y-64369819D02*
X123408207Y-65369819D01*
X123408207Y-65369819D02*
X123408207Y-64369819D01*
X123884398Y-65369819D02*
X123884398Y-64369819D01*
X123884398Y-64369819D02*
X124122493Y-64369819D01*
X124122493Y-64369819D02*
X124265350Y-64417438D01*
X124265350Y-64417438D02*
X124360588Y-64512676D01*
X124360588Y-64512676D02*
X124408207Y-64607914D01*
X124408207Y-64607914D02*
X124455826Y-64798390D01*
X124455826Y-64798390D02*
X124455826Y-64941247D01*
X124455826Y-64941247D02*
X124408207Y-65131723D01*
X124408207Y-65131723D02*
X124360588Y-65226961D01*
X124360588Y-65226961D02*
X124265350Y-65322200D01*
X124265350Y-65322200D02*
X124122493Y-65369819D01*
X124122493Y-65369819D02*
X123884398Y-65369819D01*
X120936779Y-67869819D02*
X120936779Y-66869819D01*
X121412969Y-67869819D02*
X121412969Y-66869819D01*
X121412969Y-66869819D02*
X121984397Y-67869819D01*
X121984397Y-67869819D02*
X121984397Y-66869819D01*
X122317731Y-66869819D02*
X122889159Y-66869819D01*
X122603445Y-67869819D02*
X122603445Y-66869819D01*
X122984398Y-67965057D02*
X123746302Y-67965057D01*
X123936779Y-67584104D02*
X124412969Y-67584104D01*
X123841541Y-67869819D02*
X124174874Y-66869819D01*
X124174874Y-66869819D02*
X124508207Y-67869819D01*
X120936779Y-70369819D02*
X120936779Y-69369819D01*
X121412969Y-70369819D02*
X121412969Y-69369819D01*
X121412969Y-69369819D02*
X121984397Y-70369819D01*
X121984397Y-70369819D02*
X121984397Y-69369819D01*
X122317731Y-69369819D02*
X122889159Y-69369819D01*
X122603445Y-70369819D02*
X122603445Y-69369819D01*
X122984398Y-70465057D02*
X123746302Y-70465057D01*
X124317731Y-69846009D02*
X124460588Y-69893628D01*
X124460588Y-69893628D02*
X124508207Y-69941247D01*
X124508207Y-69941247D02*
X124555826Y-70036485D01*
X124555826Y-70036485D02*
X124555826Y-70179342D01*
X124555826Y-70179342D02*
X124508207Y-70274580D01*
X124508207Y-70274580D02*
X124460588Y-70322200D01*
X124460588Y-70322200D02*
X124365350Y-70369819D01*
X124365350Y-70369819D02*
X123984398Y-70369819D01*
X123984398Y-70369819D02*
X123984398Y-69369819D01*
X123984398Y-69369819D02*
X124317731Y-69369819D01*
X124317731Y-69369819D02*
X124412969Y-69417438D01*
X124412969Y-69417438D02*
X124460588Y-69465057D01*
X124460588Y-69465057D02*
X124508207Y-69560295D01*
X124508207Y-69560295D02*
X124508207Y-69655533D01*
X124508207Y-69655533D02*
X124460588Y-69750771D01*
X124460588Y-69750771D02*
X124412969Y-69798390D01*
X124412969Y-69798390D02*
X124317731Y-69846009D01*
X124317731Y-69846009D02*
X123984398Y-69846009D01*
X117708207Y-72774580D02*
X117660588Y-72822200D01*
X117660588Y-72822200D02*
X117517731Y-72869819D01*
X117517731Y-72869819D02*
X117422493Y-72869819D01*
X117422493Y-72869819D02*
X117279636Y-72822200D01*
X117279636Y-72822200D02*
X117184398Y-72726961D01*
X117184398Y-72726961D02*
X117136779Y-72631723D01*
X117136779Y-72631723D02*
X117089160Y-72441247D01*
X117089160Y-72441247D02*
X117089160Y-72298390D01*
X117089160Y-72298390D02*
X117136779Y-72107914D01*
X117136779Y-72107914D02*
X117184398Y-72012676D01*
X117184398Y-72012676D02*
X117279636Y-71917438D01*
X117279636Y-71917438D02*
X117422493Y-71869819D01*
X117422493Y-71869819D02*
X117517731Y-71869819D01*
X117517731Y-71869819D02*
X117660588Y-71917438D01*
X117660588Y-71917438D02*
X117708207Y-71965057D01*
X118612969Y-72869819D02*
X118136779Y-72869819D01*
X118136779Y-72869819D02*
X118136779Y-71869819D01*
X119136779Y-71869819D02*
X119327255Y-71869819D01*
X119327255Y-71869819D02*
X119422493Y-71917438D01*
X119422493Y-71917438D02*
X119517731Y-72012676D01*
X119517731Y-72012676D02*
X119565350Y-72203152D01*
X119565350Y-72203152D02*
X119565350Y-72536485D01*
X119565350Y-72536485D02*
X119517731Y-72726961D01*
X119517731Y-72726961D02*
X119422493Y-72822200D01*
X119422493Y-72822200D02*
X119327255Y-72869819D01*
X119327255Y-72869819D02*
X119136779Y-72869819D01*
X119136779Y-72869819D02*
X119041541Y-72822200D01*
X119041541Y-72822200D02*
X118946303Y-72726961D01*
X118946303Y-72726961D02*
X118898684Y-72536485D01*
X118898684Y-72536485D02*
X118898684Y-72203152D01*
X118898684Y-72203152D02*
X118946303Y-72012676D01*
X118946303Y-72012676D02*
X119041541Y-71917438D01*
X119041541Y-71917438D02*
X119136779Y-71869819D01*
X120565350Y-72774580D02*
X120517731Y-72822200D01*
X120517731Y-72822200D02*
X120374874Y-72869819D01*
X120374874Y-72869819D02*
X120279636Y-72869819D01*
X120279636Y-72869819D02*
X120136779Y-72822200D01*
X120136779Y-72822200D02*
X120041541Y-72726961D01*
X120041541Y-72726961D02*
X119993922Y-72631723D01*
X119993922Y-72631723D02*
X119946303Y-72441247D01*
X119946303Y-72441247D02*
X119946303Y-72298390D01*
X119946303Y-72298390D02*
X119993922Y-72107914D01*
X119993922Y-72107914D02*
X120041541Y-72012676D01*
X120041541Y-72012676D02*
X120136779Y-71917438D01*
X120136779Y-71917438D02*
X120279636Y-71869819D01*
X120279636Y-71869819D02*
X120374874Y-71869819D01*
X120374874Y-71869819D02*
X120517731Y-71917438D01*
X120517731Y-71917438D02*
X120565350Y-71965057D01*
X120993922Y-72869819D02*
X120993922Y-71869819D01*
X121565350Y-72869819D02*
X121136779Y-72298390D01*
X121565350Y-71869819D02*
X120993922Y-72441247D01*
X122184398Y-71869819D02*
X122374874Y-71869819D01*
X122374874Y-71869819D02*
X122470112Y-71917438D01*
X122470112Y-71917438D02*
X122565350Y-72012676D01*
X122565350Y-72012676D02*
X122612969Y-72203152D01*
X122612969Y-72203152D02*
X122612969Y-72536485D01*
X122612969Y-72536485D02*
X122565350Y-72726961D01*
X122565350Y-72726961D02*
X122470112Y-72822200D01*
X122470112Y-72822200D02*
X122374874Y-72869819D01*
X122374874Y-72869819D02*
X122184398Y-72869819D01*
X122184398Y-72869819D02*
X122089160Y-72822200D01*
X122089160Y-72822200D02*
X121993922Y-72726961D01*
X121993922Y-72726961D02*
X121946303Y-72536485D01*
X121946303Y-72536485D02*
X121946303Y-72203152D01*
X121946303Y-72203152D02*
X121993922Y-72012676D01*
X121993922Y-72012676D02*
X122089160Y-71917438D01*
X122089160Y-71917438D02*
X122184398Y-71869819D01*
X123041541Y-71869819D02*
X123041541Y-72679342D01*
X123041541Y-72679342D02*
X123089160Y-72774580D01*
X123089160Y-72774580D02*
X123136779Y-72822200D01*
X123136779Y-72822200D02*
X123232017Y-72869819D01*
X123232017Y-72869819D02*
X123422493Y-72869819D01*
X123422493Y-72869819D02*
X123517731Y-72822200D01*
X123517731Y-72822200D02*
X123565350Y-72774580D01*
X123565350Y-72774580D02*
X123612969Y-72679342D01*
X123612969Y-72679342D02*
X123612969Y-71869819D01*
X123946303Y-71869819D02*
X124517731Y-71869819D01*
X124232017Y-72869819D02*
X124232017Y-71869819D01*
X121889160Y-75322200D02*
X122032017Y-75369819D01*
X122032017Y-75369819D02*
X122270112Y-75369819D01*
X122270112Y-75369819D02*
X122365350Y-75322200D01*
X122365350Y-75322200D02*
X122412969Y-75274580D01*
X122412969Y-75274580D02*
X122460588Y-75179342D01*
X122460588Y-75179342D02*
X122460588Y-75084104D01*
X122460588Y-75084104D02*
X122412969Y-74988866D01*
X122412969Y-74988866D02*
X122365350Y-74941247D01*
X122365350Y-74941247D02*
X122270112Y-74893628D01*
X122270112Y-74893628D02*
X122079636Y-74846009D01*
X122079636Y-74846009D02*
X121984398Y-74798390D01*
X121984398Y-74798390D02*
X121936779Y-74750771D01*
X121936779Y-74750771D02*
X121889160Y-74655533D01*
X121889160Y-74655533D02*
X121889160Y-74560295D01*
X121889160Y-74560295D02*
X121936779Y-74465057D01*
X121936779Y-74465057D02*
X121984398Y-74417438D01*
X121984398Y-74417438D02*
X122079636Y-74369819D01*
X122079636Y-74369819D02*
X122317731Y-74369819D01*
X122317731Y-74369819D02*
X122460588Y-74417438D01*
X122889160Y-75369819D02*
X122889160Y-74369819D01*
X122889160Y-74369819D02*
X123127255Y-74369819D01*
X123127255Y-74369819D02*
X123270112Y-74417438D01*
X123270112Y-74417438D02*
X123365350Y-74512676D01*
X123365350Y-74512676D02*
X123412969Y-74607914D01*
X123412969Y-74607914D02*
X123460588Y-74798390D01*
X123460588Y-74798390D02*
X123460588Y-74941247D01*
X123460588Y-74941247D02*
X123412969Y-75131723D01*
X123412969Y-75131723D02*
X123365350Y-75226961D01*
X123365350Y-75226961D02*
X123270112Y-75322200D01*
X123270112Y-75322200D02*
X123127255Y-75369819D01*
X123127255Y-75369819D02*
X122889160Y-75369819D01*
X123841541Y-75084104D02*
X124317731Y-75084104D01*
X123746303Y-75369819D02*
X124079636Y-74369819D01*
X124079636Y-74369819D02*
X124412969Y-75369819D01*
X121889160Y-78022200D02*
X122032017Y-78069819D01*
X122032017Y-78069819D02*
X122270112Y-78069819D01*
X122270112Y-78069819D02*
X122365350Y-78022200D01*
X122365350Y-78022200D02*
X122412969Y-77974580D01*
X122412969Y-77974580D02*
X122460588Y-77879342D01*
X122460588Y-77879342D02*
X122460588Y-77784104D01*
X122460588Y-77784104D02*
X122412969Y-77688866D01*
X122412969Y-77688866D02*
X122365350Y-77641247D01*
X122365350Y-77641247D02*
X122270112Y-77593628D01*
X122270112Y-77593628D02*
X122079636Y-77546009D01*
X122079636Y-77546009D02*
X121984398Y-77498390D01*
X121984398Y-77498390D02*
X121936779Y-77450771D01*
X121936779Y-77450771D02*
X121889160Y-77355533D01*
X121889160Y-77355533D02*
X121889160Y-77260295D01*
X121889160Y-77260295D02*
X121936779Y-77165057D01*
X121936779Y-77165057D02*
X121984398Y-77117438D01*
X121984398Y-77117438D02*
X122079636Y-77069819D01*
X122079636Y-77069819D02*
X122317731Y-77069819D01*
X122317731Y-77069819D02*
X122460588Y-77117438D01*
X123460588Y-77974580D02*
X123412969Y-78022200D01*
X123412969Y-78022200D02*
X123270112Y-78069819D01*
X123270112Y-78069819D02*
X123174874Y-78069819D01*
X123174874Y-78069819D02*
X123032017Y-78022200D01*
X123032017Y-78022200D02*
X122936779Y-77926961D01*
X122936779Y-77926961D02*
X122889160Y-77831723D01*
X122889160Y-77831723D02*
X122841541Y-77641247D01*
X122841541Y-77641247D02*
X122841541Y-77498390D01*
X122841541Y-77498390D02*
X122889160Y-77307914D01*
X122889160Y-77307914D02*
X122936779Y-77212676D01*
X122936779Y-77212676D02*
X123032017Y-77117438D01*
X123032017Y-77117438D02*
X123174874Y-77069819D01*
X123174874Y-77069819D02*
X123270112Y-77069819D01*
X123270112Y-77069819D02*
X123412969Y-77117438D01*
X123412969Y-77117438D02*
X123460588Y-77165057D01*
X124365350Y-78069819D02*
X123889160Y-78069819D01*
X123889160Y-78069819D02*
X123889160Y-77069819D01*
X121793922Y-79619819D02*
X122127255Y-80619819D01*
X122127255Y-80619819D02*
X122460588Y-79619819D01*
X122793922Y-80619819D02*
X122793922Y-79619819D01*
X122793922Y-79619819D02*
X123032017Y-79619819D01*
X123032017Y-79619819D02*
X123174874Y-79667438D01*
X123174874Y-79667438D02*
X123270112Y-79762676D01*
X123270112Y-79762676D02*
X123317731Y-79857914D01*
X123317731Y-79857914D02*
X123365350Y-80048390D01*
X123365350Y-80048390D02*
X123365350Y-80191247D01*
X123365350Y-80191247D02*
X123317731Y-80381723D01*
X123317731Y-80381723D02*
X123270112Y-80476961D01*
X123270112Y-80476961D02*
X123174874Y-80572200D01*
X123174874Y-80572200D02*
X123032017Y-80619819D01*
X123032017Y-80619819D02*
X122793922Y-80619819D01*
X123793922Y-80619819D02*
X123793922Y-79619819D01*
X123793922Y-79619819D02*
X124032017Y-79619819D01*
X124032017Y-79619819D02*
X124174874Y-79667438D01*
X124174874Y-79667438D02*
X124270112Y-79762676D01*
X124270112Y-79762676D02*
X124317731Y-79857914D01*
X124317731Y-79857914D02*
X124365350Y-80048390D01*
X124365350Y-80048390D02*
X124365350Y-80191247D01*
X124365350Y-80191247D02*
X124317731Y-80381723D01*
X124317731Y-80381723D02*
X124270112Y-80476961D01*
X124270112Y-80476961D02*
X124174874Y-80572200D01*
X124174874Y-80572200D02*
X124032017Y-80619819D01*
X124032017Y-80619819D02*
X123793922Y-80619819D01*
X130489442Y-62044396D02*
X130489442Y-62758681D01*
X130489442Y-62758681D02*
X130441823Y-62901538D01*
X130441823Y-62901538D02*
X130346585Y-62996777D01*
X130346585Y-62996777D02*
X130203728Y-63044396D01*
X130203728Y-63044396D02*
X130108490Y-63044396D01*
X130918014Y-62139634D02*
X130965633Y-62092015D01*
X130965633Y-62092015D02*
X131060871Y-62044396D01*
X131060871Y-62044396D02*
X131298966Y-62044396D01*
X131298966Y-62044396D02*
X131394204Y-62092015D01*
X131394204Y-62092015D02*
X131441823Y-62139634D01*
X131441823Y-62139634D02*
X131489442Y-62234872D01*
X131489442Y-62234872D02*
X131489442Y-62330110D01*
X131489442Y-62330110D02*
X131441823Y-62472967D01*
X131441823Y-62472967D02*
X130870395Y-63044396D01*
X130870395Y-63044396D02*
X131489442Y-63044396D01*
X109233333Y-66559580D02*
X109185714Y-66607200D01*
X109185714Y-66607200D02*
X109042857Y-66654819D01*
X109042857Y-66654819D02*
X108947619Y-66654819D01*
X108947619Y-66654819D02*
X108804762Y-66607200D01*
X108804762Y-66607200D02*
X108709524Y-66511961D01*
X108709524Y-66511961D02*
X108661905Y-66416723D01*
X108661905Y-66416723D02*
X108614286Y-66226247D01*
X108614286Y-66226247D02*
X108614286Y-66083390D01*
X108614286Y-66083390D02*
X108661905Y-65892914D01*
X108661905Y-65892914D02*
X108709524Y-65797676D01*
X108709524Y-65797676D02*
X108804762Y-65702438D01*
X108804762Y-65702438D02*
X108947619Y-65654819D01*
X108947619Y-65654819D02*
X109042857Y-65654819D01*
X109042857Y-65654819D02*
X109185714Y-65702438D01*
X109185714Y-65702438D02*
X109233333Y-65750057D01*
X110185714Y-66654819D02*
X109614286Y-66654819D01*
X109900000Y-66654819D02*
X109900000Y-65654819D01*
X109900000Y-65654819D02*
X109804762Y-65797676D01*
X109804762Y-65797676D02*
X109709524Y-65892914D01*
X109709524Y-65892914D02*
X109614286Y-65940533D01*
X115082876Y-68819067D02*
X114749543Y-68342876D01*
X114511448Y-68819067D02*
X114511448Y-67819067D01*
X114511448Y-67819067D02*
X114892400Y-67819067D01*
X114892400Y-67819067D02*
X114987638Y-67866686D01*
X114987638Y-67866686D02*
X115035257Y-67914305D01*
X115035257Y-67914305D02*
X115082876Y-68009543D01*
X115082876Y-68009543D02*
X115082876Y-68152400D01*
X115082876Y-68152400D02*
X115035257Y-68247638D01*
X115035257Y-68247638D02*
X114987638Y-68295257D01*
X114987638Y-68295257D02*
X114892400Y-68342876D01*
X114892400Y-68342876D02*
X114511448Y-68342876D01*
X115416210Y-67819067D02*
X116035257Y-67819067D01*
X116035257Y-67819067D02*
X115701924Y-68200019D01*
X115701924Y-68200019D02*
X115844781Y-68200019D01*
X115844781Y-68200019D02*
X115940019Y-68247638D01*
X115940019Y-68247638D02*
X115987638Y-68295257D01*
X115987638Y-68295257D02*
X116035257Y-68390495D01*
X116035257Y-68390495D02*
X116035257Y-68628590D01*
X116035257Y-68628590D02*
X115987638Y-68723828D01*
X115987638Y-68723828D02*
X115940019Y-68771448D01*
X115940019Y-68771448D02*
X115844781Y-68819067D01*
X115844781Y-68819067D02*
X115559067Y-68819067D01*
X115559067Y-68819067D02*
X115463829Y-68771448D01*
X115463829Y-68771448D02*
X115416210Y-68723828D01*
X117233333Y-68767319D02*
X116900000Y-68291128D01*
X116661905Y-68767319D02*
X116661905Y-67767319D01*
X116661905Y-67767319D02*
X117042857Y-67767319D01*
X117042857Y-67767319D02*
X117138095Y-67814938D01*
X117138095Y-67814938D02*
X117185714Y-67862557D01*
X117185714Y-67862557D02*
X117233333Y-67957795D01*
X117233333Y-67957795D02*
X117233333Y-68100652D01*
X117233333Y-68100652D02*
X117185714Y-68195890D01*
X117185714Y-68195890D02*
X117138095Y-68243509D01*
X117138095Y-68243509D02*
X117042857Y-68291128D01*
X117042857Y-68291128D02*
X116661905Y-68291128D01*
X118090476Y-68100652D02*
X118090476Y-68767319D01*
X117852381Y-67719700D02*
X117614286Y-68433985D01*
X117614286Y-68433985D02*
X118233333Y-68433985D01*
X115659792Y-80580110D02*
X115326459Y-80103919D01*
X115088364Y-80580110D02*
X115088364Y-79580110D01*
X115088364Y-79580110D02*
X115469316Y-79580110D01*
X115469316Y-79580110D02*
X115564554Y-79627729D01*
X115564554Y-79627729D02*
X115612173Y-79675348D01*
X115612173Y-79675348D02*
X115659792Y-79770586D01*
X115659792Y-79770586D02*
X115659792Y-79913443D01*
X115659792Y-79913443D02*
X115612173Y-80008681D01*
X115612173Y-80008681D02*
X115564554Y-80056300D01*
X115564554Y-80056300D02*
X115469316Y-80103919D01*
X115469316Y-80103919D02*
X115088364Y-80103919D01*
X116040745Y-79675348D02*
X116088364Y-79627729D01*
X116088364Y-79627729D02*
X116183602Y-79580110D01*
X116183602Y-79580110D02*
X116421697Y-79580110D01*
X116421697Y-79580110D02*
X116516935Y-79627729D01*
X116516935Y-79627729D02*
X116564554Y-79675348D01*
X116564554Y-79675348D02*
X116612173Y-79770586D01*
X116612173Y-79770586D02*
X116612173Y-79865824D01*
X116612173Y-79865824D02*
X116564554Y-80008681D01*
X116564554Y-80008681D02*
X115993126Y-80580110D01*
X115993126Y-80580110D02*
X116612173Y-80580110D01*
X119633333Y-76759580D02*
X119585714Y-76807200D01*
X119585714Y-76807200D02*
X119442857Y-76854819D01*
X119442857Y-76854819D02*
X119347619Y-76854819D01*
X119347619Y-76854819D02*
X119204762Y-76807200D01*
X119204762Y-76807200D02*
X119109524Y-76711961D01*
X119109524Y-76711961D02*
X119061905Y-76616723D01*
X119061905Y-76616723D02*
X119014286Y-76426247D01*
X119014286Y-76426247D02*
X119014286Y-76283390D01*
X119014286Y-76283390D02*
X119061905Y-76092914D01*
X119061905Y-76092914D02*
X119109524Y-75997676D01*
X119109524Y-75997676D02*
X119204762Y-75902438D01*
X119204762Y-75902438D02*
X119347619Y-75854819D01*
X119347619Y-75854819D02*
X119442857Y-75854819D01*
X119442857Y-75854819D02*
X119585714Y-75902438D01*
X119585714Y-75902438D02*
X119633333Y-75950057D01*
X120014286Y-75950057D02*
X120061905Y-75902438D01*
X120061905Y-75902438D02*
X120157143Y-75854819D01*
X120157143Y-75854819D02*
X120395238Y-75854819D01*
X120395238Y-75854819D02*
X120490476Y-75902438D01*
X120490476Y-75902438D02*
X120538095Y-75950057D01*
X120538095Y-75950057D02*
X120585714Y-76045295D01*
X120585714Y-76045295D02*
X120585714Y-76140533D01*
X120585714Y-76140533D02*
X120538095Y-76283390D01*
X120538095Y-76283390D02*
X119966667Y-76854819D01*
X119966667Y-76854819D02*
X120585714Y-76854819D01*
X113497943Y-80567319D02*
X113164610Y-80091128D01*
X112926515Y-80567319D02*
X112926515Y-79567319D01*
X112926515Y-79567319D02*
X113307467Y-79567319D01*
X113307467Y-79567319D02*
X113402705Y-79614938D01*
X113402705Y-79614938D02*
X113450324Y-79662557D01*
X113450324Y-79662557D02*
X113497943Y-79757795D01*
X113497943Y-79757795D02*
X113497943Y-79900652D01*
X113497943Y-79900652D02*
X113450324Y-79995890D01*
X113450324Y-79995890D02*
X113402705Y-80043509D01*
X113402705Y-80043509D02*
X113307467Y-80091128D01*
X113307467Y-80091128D02*
X112926515Y-80091128D01*
X114450324Y-80567319D02*
X113878896Y-80567319D01*
X114164610Y-80567319D02*
X114164610Y-79567319D01*
X114164610Y-79567319D02*
X114069372Y-79710176D01*
X114069372Y-79710176D02*
X113974134Y-79805414D01*
X113974134Y-79805414D02*
X113878896Y-79853033D01*
D14*
X112574318Y-72439762D02*
X111304318Y-72439762D01*
X112453365Y-71109285D02*
X112513842Y-71169761D01*
X112513842Y-71169761D02*
X112574318Y-71351190D01*
X112574318Y-71351190D02*
X112574318Y-71472142D01*
X112574318Y-71472142D02*
X112513842Y-71653571D01*
X112513842Y-71653571D02*
X112392889Y-71774523D01*
X112392889Y-71774523D02*
X112271937Y-71835000D01*
X112271937Y-71835000D02*
X112030032Y-71895476D01*
X112030032Y-71895476D02*
X111848603Y-71895476D01*
X111848603Y-71895476D02*
X111606699Y-71835000D01*
X111606699Y-71835000D02*
X111485746Y-71774523D01*
X111485746Y-71774523D02*
X111364794Y-71653571D01*
X111364794Y-71653571D02*
X111304318Y-71472142D01*
X111304318Y-71472142D02*
X111304318Y-71351190D01*
X111304318Y-71351190D02*
X111364794Y-71169761D01*
X111364794Y-71169761D02*
X111425270Y-71109285D01*
X112574318Y-69899761D02*
X112574318Y-70625476D01*
X112574318Y-70262619D02*
X111304318Y-70262619D01*
X111304318Y-70262619D02*
X111485746Y-70383571D01*
X111485746Y-70383571D02*
X111606699Y-70504523D01*
X111606699Y-70504523D02*
X111667175Y-70625476D01*
D15*
%TO.C,J2*%
X125167776Y-63589577D02*
X126437776Y-63589577D01*
X125167776Y-64859577D02*
X125167776Y-63589577D01*
X127480705Y-67019577D02*
X127877776Y-67019577D01*
X127480705Y-67779577D02*
X127877776Y-67779577D01*
X127480705Y-69559577D02*
X127877776Y-69559577D01*
X127480705Y-70319577D02*
X127877776Y-70319577D01*
X127480705Y-72099577D02*
X127877776Y-72099577D01*
X127480705Y-72859577D02*
X127877776Y-72859577D01*
X127480705Y-74639577D02*
X127877776Y-74639577D01*
X127480705Y-75399577D02*
X127877776Y-75399577D01*
X127480705Y-77179577D02*
X127877776Y-77179577D01*
X127480705Y-77939577D02*
X127877776Y-77939577D01*
X127480705Y-79719577D02*
X127877776Y-79719577D01*
X127480705Y-80479577D02*
X127877776Y-80479577D01*
X127547776Y-64479577D02*
X127877776Y-64479577D01*
X127547776Y-65239577D02*
X127877776Y-65239577D01*
X127877776Y-63529577D02*
X127877776Y-81429577D01*
X127877776Y-66129577D02*
X130537776Y-66129577D01*
X127877776Y-68669577D02*
X130537776Y-68669577D01*
X127877776Y-71209577D02*
X130537776Y-71209577D01*
X127877776Y-73749577D02*
X130537776Y-73749577D01*
X127877776Y-76289577D02*
X130537776Y-76289577D01*
X127877776Y-78829577D02*
X130537776Y-78829577D01*
X127877776Y-81429577D02*
X130537776Y-81429577D01*
X130537776Y-63529577D02*
X127877776Y-63529577D01*
X130537776Y-64479577D02*
X136537776Y-64479577D01*
X130537776Y-64539577D02*
X136537776Y-64539577D01*
X130537776Y-64659577D02*
X136537776Y-64659577D01*
X130537776Y-64779577D02*
X136537776Y-64779577D01*
X130537776Y-64899577D02*
X136537776Y-64899577D01*
X130537776Y-65019577D02*
X136537776Y-65019577D01*
X130537776Y-65139577D02*
X136537776Y-65139577D01*
X130537776Y-67019577D02*
X136537776Y-67019577D01*
X130537776Y-69559577D02*
X136537776Y-69559577D01*
X130537776Y-72099577D02*
X136537776Y-72099577D01*
X130537776Y-74639577D02*
X136537776Y-74639577D01*
X130537776Y-77179577D02*
X136537776Y-77179577D01*
X130537776Y-79719577D02*
X136537776Y-79719577D01*
X130537776Y-81429577D02*
X130537776Y-63529577D01*
X136537776Y-64479577D02*
X136537776Y-65239577D01*
X136537776Y-65239577D02*
X130537776Y-65239577D01*
X136537776Y-67019577D02*
X136537776Y-67779577D01*
X136537776Y-67779577D02*
X130537776Y-67779577D01*
X136537776Y-69559577D02*
X136537776Y-70319577D01*
X136537776Y-70319577D02*
X130537776Y-70319577D01*
X136537776Y-72099577D02*
X136537776Y-72859577D01*
X136537776Y-72859577D02*
X130537776Y-72859577D01*
X136537776Y-74639577D02*
X136537776Y-75399577D01*
X136537776Y-75399577D02*
X130537776Y-75399577D01*
X136537776Y-77179577D02*
X136537776Y-77939577D01*
X136537776Y-77939577D02*
X130537776Y-77939577D01*
X136537776Y-79719577D02*
X136537776Y-80479577D01*
X136537776Y-80479577D02*
X130537776Y-80479577D01*
%TO.C,J1*%
X105270000Y-71070000D02*
X103940000Y-71070000D01*
X105270000Y-69740000D02*
X105270000Y-71070000D01*
X105270000Y-68470000D02*
X105270000Y-65870000D01*
X105270000Y-68470000D02*
X102670000Y-68470000D01*
X105270000Y-65870000D02*
X100070000Y-65870000D01*
X102670000Y-71070000D02*
X100070000Y-71070000D01*
X102670000Y-68470000D02*
X102670000Y-71070000D01*
X100070000Y-71070000D02*
X100070000Y-65870000D01*
%TO.C,C1*%
X111916233Y-65690000D02*
X112208767Y-65690000D01*
X111916233Y-66710000D02*
X112208767Y-66710000D01*
%TO.C,R3*%
X114677500Y-65967224D02*
X114677500Y-65457776D01*
X115722500Y-65967224D02*
X115722500Y-65457776D01*
%TO.C,R4*%
X116877500Y-65967224D02*
X116877500Y-65457776D01*
X117922500Y-65967224D02*
X117922500Y-65457776D01*
%TO.C,R2*%
X115277500Y-77654724D02*
X115277500Y-77145276D01*
X116322500Y-77654724D02*
X116322500Y-77145276D01*
%TO.C,C2*%
X120310000Y-78791233D02*
X120310000Y-79083767D01*
X119290000Y-78791233D02*
X119290000Y-79083767D01*
%TO.C,R1*%
X114122500Y-77654724D02*
X114122500Y-77145276D01*
X113077500Y-77654724D02*
X113077500Y-77145276D01*
D16*
%TO.C,IC1*%
X109725000Y-73350000D02*
G75*
G02*
X109475000Y-73350000I-125000J0D01*
G01*
X109475000Y-73350000D02*
G75*
G02*
X109725000Y-73350000I125000J0D01*
G01*
%TD*%
%LPC*%
D10*
X109200000Y-70400000D02*
X110200000Y-70400000D01*
X110200000Y-72000000D01*
X109200000Y-72000000D01*
X109200000Y-70400000D01*
G36*
X109200000Y-70400000D02*
G01*
X110200000Y-70400000D01*
X110200000Y-72000000D01*
X109200000Y-72000000D01*
X109200000Y-70400000D01*
G37*
D17*
%TO.C,J2*%
X126437776Y-64859577D03*
D18*
X126437776Y-67399577D03*
X126437776Y-69939577D03*
X126437776Y-72479577D03*
X126437776Y-75019577D03*
X126437776Y-77559577D03*
X126437776Y-80099577D03*
%TD*%
D17*
%TO.C,J1*%
X103940000Y-69740000D03*
D18*
X101400000Y-69740000D03*
X103940000Y-67200000D03*
X101400000Y-67200000D03*
%TD*%
D19*
%TO.C,C1*%
X111200000Y-66200000D03*
X112925000Y-66200000D03*
%TD*%
D20*
%TO.C,R3*%
X115200000Y-66625000D03*
X115200000Y-64800000D03*
%TD*%
%TO.C,R4*%
X117400000Y-66625000D03*
X117400000Y-64800000D03*
%TD*%
%TO.C,R2*%
X115800000Y-78312500D03*
X115800000Y-76487500D03*
%TD*%
D21*
%TO.C,C2*%
X119800000Y-78075000D03*
X119800000Y-79800000D03*
%TD*%
D20*
%TO.C,R1*%
X113600000Y-76487500D03*
X113600000Y-78312500D03*
%TD*%
D22*
%TO.C,IC1*%
X110250000Y-72900000D03*
X110750000Y-72900000D03*
X111250000Y-72900000D03*
X111750000Y-72900000D03*
X112250000Y-72900000D03*
X112750000Y-72900000D03*
X113250000Y-72900000D03*
X113750000Y-72900000D03*
X113750000Y-69500000D03*
X113250000Y-69500000D03*
X112750000Y-69500000D03*
X112250000Y-69500000D03*
X111750000Y-69500000D03*
X111250000Y-69500000D03*
X110750000Y-69500000D03*
X110250000Y-69500000D03*
D23*
X112000000Y-71200000D03*
%TD*%
%LPD*%
M02*
