%TF.GenerationSoftware,KiCad,Pcbnew,8.0.3*%
%TF.CreationDate,2024-06-23T18:20:28+02:00*%
%TF.ProjectId,PCF2131-breakout,50434632-3133-4312-9d62-7265616b6f75,rev?*%
%TF.SameCoordinates,Original*%
%TF.FileFunction,Drillmap*%
%TF.FilePolarity,Positive*%
%FSLAX45Y45*%
G04 Gerber Fmt 4.5, Leading zero omitted, Abs format (unit mm)*
G04 Created by KiCad (PCBNEW 8.0.3) date 2024-06-23 18:20:28*
%MOMM*%
%LPD*%
G01*
G04 APERTURE LIST*
%ADD10C,0.050000*%
%ADD11C,0.200000*%
G04 APERTURE END LIST*
D10*
X9950000Y-6300000D02*
X12865000Y-6300000D01*
X13115000Y-6550000D02*
X13115000Y-7950000D01*
X12865000Y-8200000D02*
X9950000Y-8200000D01*
X9700000Y-7950000D02*
X9700000Y-6550000D01*
X12865000Y-6300000D02*
G75*
G02*
X13115000Y-6550000I0J-250000D01*
G01*
X13115000Y-7950000D02*
G75*
G02*
X12865000Y-8200000I-250000J0D01*
G01*
X9700000Y-6550000D02*
G75*
G02*
X9950000Y-6300000I250000J0D01*
G01*
X9950000Y-8200000D02*
G75*
G02*
X9700000Y-7950000I0J250000D01*
G01*
D11*
X9958277Y-8513984D02*
X9958277Y-8313984D01*
X9958277Y-8313984D02*
X10005896Y-8313984D01*
X10005896Y-8313984D02*
X10034467Y-8323508D01*
X10034467Y-8323508D02*
X10053515Y-8342555D01*
X10053515Y-8342555D02*
X10063039Y-8361603D01*
X10063039Y-8361603D02*
X10072563Y-8399698D01*
X10072563Y-8399698D02*
X10072563Y-8428270D01*
X10072563Y-8428270D02*
X10063039Y-8466365D01*
X10063039Y-8466365D02*
X10053515Y-8485412D01*
X10053515Y-8485412D02*
X10034467Y-8504460D01*
X10034467Y-8504460D02*
X10005896Y-8513984D01*
X10005896Y-8513984D02*
X9958277Y-8513984D01*
X10158277Y-8513984D02*
X10158277Y-8380650D01*
X10158277Y-8418746D02*
X10167801Y-8399698D01*
X10167801Y-8399698D02*
X10177324Y-8390174D01*
X10177324Y-8390174D02*
X10196372Y-8380650D01*
X10196372Y-8380650D02*
X10215420Y-8380650D01*
X10282086Y-8513984D02*
X10282086Y-8380650D01*
X10282086Y-8313984D02*
X10272563Y-8323508D01*
X10272563Y-8323508D02*
X10282086Y-8333031D01*
X10282086Y-8333031D02*
X10291610Y-8323508D01*
X10291610Y-8323508D02*
X10282086Y-8313984D01*
X10282086Y-8313984D02*
X10282086Y-8333031D01*
X10405896Y-8513984D02*
X10386848Y-8504460D01*
X10386848Y-8504460D02*
X10377324Y-8485412D01*
X10377324Y-8485412D02*
X10377324Y-8313984D01*
X10510658Y-8513984D02*
X10491610Y-8504460D01*
X10491610Y-8504460D02*
X10482086Y-8485412D01*
X10482086Y-8485412D02*
X10482086Y-8313984D01*
X10739229Y-8513984D02*
X10739229Y-8313984D01*
X10739229Y-8313984D02*
X10805896Y-8456841D01*
X10805896Y-8456841D02*
X10872563Y-8313984D01*
X10872563Y-8313984D02*
X10872563Y-8513984D01*
X11053515Y-8513984D02*
X11053515Y-8409222D01*
X11053515Y-8409222D02*
X11043991Y-8390174D01*
X11043991Y-8390174D02*
X11024944Y-8380650D01*
X11024944Y-8380650D02*
X10986848Y-8380650D01*
X10986848Y-8380650D02*
X10967801Y-8390174D01*
X11053515Y-8504460D02*
X11034467Y-8513984D01*
X11034467Y-8513984D02*
X10986848Y-8513984D01*
X10986848Y-8513984D02*
X10967801Y-8504460D01*
X10967801Y-8504460D02*
X10958277Y-8485412D01*
X10958277Y-8485412D02*
X10958277Y-8466365D01*
X10958277Y-8466365D02*
X10967801Y-8447317D01*
X10967801Y-8447317D02*
X10986848Y-8437793D01*
X10986848Y-8437793D02*
X11034467Y-8437793D01*
X11034467Y-8437793D02*
X11053515Y-8428270D01*
X11148753Y-8380650D02*
X11148753Y-8580650D01*
X11148753Y-8390174D02*
X11167801Y-8380650D01*
X11167801Y-8380650D02*
X11205896Y-8380650D01*
X11205896Y-8380650D02*
X11224943Y-8390174D01*
X11224943Y-8390174D02*
X11234467Y-8399698D01*
X11234467Y-8399698D02*
X11243991Y-8418746D01*
X11243991Y-8418746D02*
X11243991Y-8475889D01*
X11243991Y-8475889D02*
X11234467Y-8494936D01*
X11234467Y-8494936D02*
X11224943Y-8504460D01*
X11224943Y-8504460D02*
X11205896Y-8513984D01*
X11205896Y-8513984D02*
X11167801Y-8513984D01*
X11167801Y-8513984D02*
X11148753Y-8504460D01*
X11329705Y-8494936D02*
X11339229Y-8504460D01*
X11339229Y-8504460D02*
X11329705Y-8513984D01*
X11329705Y-8513984D02*
X11320182Y-8504460D01*
X11320182Y-8504460D02*
X11329705Y-8494936D01*
X11329705Y-8494936D02*
X11329705Y-8513984D01*
X11329705Y-8390174D02*
X11339229Y-8399698D01*
X11339229Y-8399698D02*
X11329705Y-8409222D01*
X11329705Y-8409222D02*
X11320182Y-8399698D01*
X11320182Y-8399698D02*
X11329705Y-8390174D01*
X11329705Y-8390174D02*
X11329705Y-8409222D01*
M02*
