M48
; DRILL file {KiCad 8.0.3} date 2024-06-23T18:20:27+0200
; FORMAT={-:-/ absolute / metric / decimal}
; #@! TF.CreationDate,2024-06-23T18:20:27+02:00
; #@! TF.GenerationSoftware,Kicad,Pcbnew,8.0.3
; #@! TF.FileFunction,Plated,1,2,PTH
FMAT,2
METRIC
; #@! TA.AperFunction,Plated,PTH,ViaDrill
T1C0.300
; #@! TA.AperFunction,Plated,PTH,ComponentDrill
T2C1.000
%
G90
G05
T1
X99.4Y-69.2
X107.4Y-74.8
X108.6Y-64.6
X108.6Y-69.8
X114.0Y-66.2
X114.705Y-77.4
X115.0Y-73.0
X115.2Y-71.2
X116.119Y-65.962
X116.4Y-70.8
X117.2Y-70.4
X117.8Y-69.6
X118.6Y-76.8
X120.4Y-65.8
X121.2Y-78.0
X129.2Y-78.8
T2
X101.4Y-67.2
X101.4Y-69.74
X103.94Y-67.2
X103.94Y-69.74
X126.438Y-64.86
X126.438Y-67.4
X126.438Y-69.94
X126.438Y-72.48
X126.438Y-75.02
X126.438Y-77.56
X126.438Y-80.1
M30
