%TF.GenerationSoftware,KiCad,Pcbnew,8.0.3*%
%TF.CreationDate,2024-06-23T18:20:28+02:00*%
%TF.ProjectId,PCF2131-breakout,50434632-3133-4312-9d62-7265616b6f75,rev?*%
%TF.SameCoordinates,Original*%
%TF.FileFunction,Drillmap*%
%TF.FilePolarity,Positive*%
%FSLAX45Y45*%
G04 Gerber Fmt 4.5, Leading zero omitted, Abs format (unit mm)*
G04 Created by KiCad (PCBNEW 8.0.3) date 2024-06-23 18:20:28*
%MOMM*%
%LPD*%
G01*
G04 APERTURE LIST*
%ADD10C,0.050000*%
%ADD11C,0.200000*%
%ADD12C,0.100000*%
G04 APERTURE END LIST*
D10*
X9950000Y-6300000D02*
X12865000Y-6300000D01*
X13115000Y-6550000D02*
X13115000Y-7950000D01*
X12865000Y-8200000D02*
X9950000Y-8200000D01*
X9700000Y-7950000D02*
X9700000Y-6550000D01*
X12865000Y-6300000D02*
G75*
G02*
X13115000Y-6550000I0J-250000D01*
G01*
X13115000Y-7950000D02*
G75*
G02*
X12865000Y-8200000I-250000J0D01*
G01*
X9700000Y-6550000D02*
G75*
G02*
X9950000Y-6300000I250000J0D01*
G01*
X9950000Y-8200000D02*
G75*
G02*
X9700000Y-7950000I0J250000D01*
G01*
D11*
D12*
X9925000Y-6905000D02*
X9955000Y-6935000D01*
X9955000Y-6905000D02*
X9925000Y-6935000D01*
X10725000Y-7465000D02*
X10755000Y-7495000D01*
X10755000Y-7465000D02*
X10725000Y-7495000D01*
X10845000Y-6445000D02*
X10875000Y-6475000D01*
X10875000Y-6445000D02*
X10845000Y-6475000D01*
X10845000Y-6965000D02*
X10875000Y-6995000D01*
X10875000Y-6965000D02*
X10845000Y-6995000D01*
X11385000Y-6605000D02*
X11415000Y-6635000D01*
X11415000Y-6605000D02*
X11385000Y-6635000D01*
X11455495Y-7725000D02*
X11485495Y-7755000D01*
X11485495Y-7725000D02*
X11455495Y-7755000D01*
X11485000Y-7285000D02*
X11515000Y-7315000D01*
X11515000Y-7285000D02*
X11485000Y-7315000D01*
X11505000Y-7105000D02*
X11535000Y-7135000D01*
X11535000Y-7105000D02*
X11505000Y-7135000D01*
X11596931Y-6581209D02*
X11626931Y-6611209D01*
X11626931Y-6581209D02*
X11596931Y-6611209D01*
X11625000Y-7065000D02*
X11655000Y-7095000D01*
X11655000Y-7065000D02*
X11625000Y-7095000D01*
X11705000Y-7025000D02*
X11735000Y-7055000D01*
X11735000Y-7025000D02*
X11705000Y-7055000D01*
X11765000Y-6945000D02*
X11795000Y-6975000D01*
X11795000Y-6945000D02*
X11765000Y-6975000D01*
X11845000Y-7665000D02*
X11875000Y-7695000D01*
X11875000Y-7665000D02*
X11845000Y-7695000D01*
X12025000Y-6565000D02*
X12055000Y-6595000D01*
X12055000Y-6565000D02*
X12025000Y-6595000D01*
X12105000Y-7785000D02*
X12135000Y-7815000D01*
X12135000Y-7785000D02*
X12105000Y-7815000D01*
X12905000Y-7865000D02*
X12935000Y-7895000D01*
X12935000Y-7865000D02*
X12905000Y-7895000D01*
X10190000Y-6720000D02*
G75*
G02*
X10090000Y-6720000I-50000J0D01*
G01*
X10090000Y-6720000D02*
G75*
G02*
X10190000Y-6720000I50000J0D01*
G01*
X10190000Y-6974000D02*
G75*
G02*
X10090000Y-6974000I-50000J0D01*
G01*
X10090000Y-6974000D02*
G75*
G02*
X10190000Y-6974000I50000J0D01*
G01*
X10444000Y-6720000D02*
G75*
G02*
X10344000Y-6720000I-50000J0D01*
G01*
X10344000Y-6720000D02*
G75*
G02*
X10444000Y-6720000I50000J0D01*
G01*
X10444000Y-6974000D02*
G75*
G02*
X10344000Y-6974000I-50000J0D01*
G01*
X10344000Y-6974000D02*
G75*
G02*
X10444000Y-6974000I50000J0D01*
G01*
X12693778Y-6485958D02*
G75*
G02*
X12593778Y-6485958I-50000J0D01*
G01*
X12593778Y-6485958D02*
G75*
G02*
X12693778Y-6485958I50000J0D01*
G01*
X12693778Y-6739958D02*
G75*
G02*
X12593778Y-6739958I-50000J0D01*
G01*
X12593778Y-6739958D02*
G75*
G02*
X12693778Y-6739958I50000J0D01*
G01*
X12693778Y-6993958D02*
G75*
G02*
X12593778Y-6993958I-50000J0D01*
G01*
X12593778Y-6993958D02*
G75*
G02*
X12693778Y-6993958I50000J0D01*
G01*
X12693778Y-7247958D02*
G75*
G02*
X12593778Y-7247958I-50000J0D01*
G01*
X12593778Y-7247958D02*
G75*
G02*
X12693778Y-7247958I50000J0D01*
G01*
X12693778Y-7501958D02*
G75*
G02*
X12593778Y-7501958I-50000J0D01*
G01*
X12593778Y-7501958D02*
G75*
G02*
X12693778Y-7501958I50000J0D01*
G01*
X12693778Y-7755958D02*
G75*
G02*
X12593778Y-7755958I-50000J0D01*
G01*
X12593778Y-7755958D02*
G75*
G02*
X12693778Y-7755958I50000J0D01*
G01*
X12693778Y-8009958D02*
G75*
G02*
X12593778Y-8009958I-50000J0D01*
G01*
X12593778Y-8009958D02*
G75*
G02*
X12693778Y-8009958I50000J0D01*
G01*
D11*
X9958277Y-8513984D02*
X9958277Y-8313984D01*
X9958277Y-8313984D02*
X10005896Y-8313984D01*
X10005896Y-8313984D02*
X10034467Y-8323508D01*
X10034467Y-8323508D02*
X10053515Y-8342555D01*
X10053515Y-8342555D02*
X10063039Y-8361603D01*
X10063039Y-8361603D02*
X10072563Y-8399698D01*
X10072563Y-8399698D02*
X10072563Y-8428270D01*
X10072563Y-8428270D02*
X10063039Y-8466365D01*
X10063039Y-8466365D02*
X10053515Y-8485412D01*
X10053515Y-8485412D02*
X10034467Y-8504460D01*
X10034467Y-8504460D02*
X10005896Y-8513984D01*
X10005896Y-8513984D02*
X9958277Y-8513984D01*
X10158277Y-8513984D02*
X10158277Y-8380650D01*
X10158277Y-8418746D02*
X10167801Y-8399698D01*
X10167801Y-8399698D02*
X10177324Y-8390174D01*
X10177324Y-8390174D02*
X10196372Y-8380650D01*
X10196372Y-8380650D02*
X10215420Y-8380650D01*
X10282086Y-8513984D02*
X10282086Y-8380650D01*
X10282086Y-8313984D02*
X10272563Y-8323508D01*
X10272563Y-8323508D02*
X10282086Y-8333031D01*
X10282086Y-8333031D02*
X10291610Y-8323508D01*
X10291610Y-8323508D02*
X10282086Y-8313984D01*
X10282086Y-8313984D02*
X10282086Y-8333031D01*
X10405896Y-8513984D02*
X10386848Y-8504460D01*
X10386848Y-8504460D02*
X10377324Y-8485412D01*
X10377324Y-8485412D02*
X10377324Y-8313984D01*
X10510658Y-8513984D02*
X10491610Y-8504460D01*
X10491610Y-8504460D02*
X10482086Y-8485412D01*
X10482086Y-8485412D02*
X10482086Y-8313984D01*
X10739229Y-8513984D02*
X10739229Y-8313984D01*
X10739229Y-8313984D02*
X10805896Y-8456841D01*
X10805896Y-8456841D02*
X10872563Y-8313984D01*
X10872563Y-8313984D02*
X10872563Y-8513984D01*
X11053515Y-8513984D02*
X11053515Y-8409222D01*
X11053515Y-8409222D02*
X11043991Y-8390174D01*
X11043991Y-8390174D02*
X11024944Y-8380650D01*
X11024944Y-8380650D02*
X10986848Y-8380650D01*
X10986848Y-8380650D02*
X10967801Y-8390174D01*
X11053515Y-8504460D02*
X11034467Y-8513984D01*
X11034467Y-8513984D02*
X10986848Y-8513984D01*
X10986848Y-8513984D02*
X10967801Y-8504460D01*
X10967801Y-8504460D02*
X10958277Y-8485412D01*
X10958277Y-8485412D02*
X10958277Y-8466365D01*
X10958277Y-8466365D02*
X10967801Y-8447317D01*
X10967801Y-8447317D02*
X10986848Y-8437793D01*
X10986848Y-8437793D02*
X11034467Y-8437793D01*
X11034467Y-8437793D02*
X11053515Y-8428270D01*
X11148753Y-8380650D02*
X11148753Y-8580650D01*
X11148753Y-8390174D02*
X11167801Y-8380650D01*
X11167801Y-8380650D02*
X11205896Y-8380650D01*
X11205896Y-8380650D02*
X11224943Y-8390174D01*
X11224943Y-8390174D02*
X11234467Y-8399698D01*
X11234467Y-8399698D02*
X11243991Y-8418746D01*
X11243991Y-8418746D02*
X11243991Y-8475889D01*
X11243991Y-8475889D02*
X11234467Y-8494936D01*
X11234467Y-8494936D02*
X11224943Y-8504460D01*
X11224943Y-8504460D02*
X11205896Y-8513984D01*
X11205896Y-8513984D02*
X11167801Y-8513984D01*
X11167801Y-8513984D02*
X11148753Y-8504460D01*
X11329705Y-8494936D02*
X11339229Y-8504460D01*
X11339229Y-8504460D02*
X11329705Y-8513984D01*
X11329705Y-8513984D02*
X11320182Y-8504460D01*
X11320182Y-8504460D02*
X11329705Y-8494936D01*
X11329705Y-8494936D02*
X11329705Y-8513984D01*
X11329705Y-8390174D02*
X11339229Y-8399698D01*
X11339229Y-8399698D02*
X11329705Y-8409222D01*
X11329705Y-8409222D02*
X11320182Y-8399698D01*
X11320182Y-8399698D02*
X11329705Y-8390174D01*
X11329705Y-8390174D02*
X11329705Y-8409222D01*
D12*
X9667500Y-8827500D02*
X9697500Y-8857500D01*
X9697500Y-8827500D02*
X9667500Y-8857500D01*
D11*
X9996372Y-8733984D02*
X10015420Y-8733984D01*
X10015420Y-8733984D02*
X10034467Y-8743508D01*
X10034467Y-8743508D02*
X10043991Y-8753031D01*
X10043991Y-8753031D02*
X10053515Y-8772079D01*
X10053515Y-8772079D02*
X10063039Y-8810174D01*
X10063039Y-8810174D02*
X10063039Y-8857793D01*
X10063039Y-8857793D02*
X10053515Y-8895889D01*
X10053515Y-8895889D02*
X10043991Y-8914936D01*
X10043991Y-8914936D02*
X10034467Y-8924460D01*
X10034467Y-8924460D02*
X10015420Y-8933984D01*
X10015420Y-8933984D02*
X9996372Y-8933984D01*
X9996372Y-8933984D02*
X9977324Y-8924460D01*
X9977324Y-8924460D02*
X9967801Y-8914936D01*
X9967801Y-8914936D02*
X9958277Y-8895889D01*
X9958277Y-8895889D02*
X9948753Y-8857793D01*
X9948753Y-8857793D02*
X9948753Y-8810174D01*
X9948753Y-8810174D02*
X9958277Y-8772079D01*
X9958277Y-8772079D02*
X9967801Y-8753031D01*
X9967801Y-8753031D02*
X9977324Y-8743508D01*
X9977324Y-8743508D02*
X9996372Y-8733984D01*
X10148753Y-8914936D02*
X10158277Y-8924460D01*
X10158277Y-8924460D02*
X10148753Y-8933984D01*
X10148753Y-8933984D02*
X10139229Y-8924460D01*
X10139229Y-8924460D02*
X10148753Y-8914936D01*
X10148753Y-8914936D02*
X10148753Y-8933984D01*
X10224944Y-8733984D02*
X10348753Y-8733984D01*
X10348753Y-8733984D02*
X10282086Y-8810174D01*
X10282086Y-8810174D02*
X10310658Y-8810174D01*
X10310658Y-8810174D02*
X10329705Y-8819698D01*
X10329705Y-8819698D02*
X10339229Y-8829222D01*
X10339229Y-8829222D02*
X10348753Y-8848270D01*
X10348753Y-8848270D02*
X10348753Y-8895889D01*
X10348753Y-8895889D02*
X10339229Y-8914936D01*
X10339229Y-8914936D02*
X10329705Y-8924460D01*
X10329705Y-8924460D02*
X10310658Y-8933984D01*
X10310658Y-8933984D02*
X10253515Y-8933984D01*
X10253515Y-8933984D02*
X10234467Y-8924460D01*
X10234467Y-8924460D02*
X10224944Y-8914936D01*
X10472563Y-8733984D02*
X10491610Y-8733984D01*
X10491610Y-8733984D02*
X10510658Y-8743508D01*
X10510658Y-8743508D02*
X10520182Y-8753031D01*
X10520182Y-8753031D02*
X10529705Y-8772079D01*
X10529705Y-8772079D02*
X10539229Y-8810174D01*
X10539229Y-8810174D02*
X10539229Y-8857793D01*
X10539229Y-8857793D02*
X10529705Y-8895889D01*
X10529705Y-8895889D02*
X10520182Y-8914936D01*
X10520182Y-8914936D02*
X10510658Y-8924460D01*
X10510658Y-8924460D02*
X10491610Y-8933984D01*
X10491610Y-8933984D02*
X10472563Y-8933984D01*
X10472563Y-8933984D02*
X10453515Y-8924460D01*
X10453515Y-8924460D02*
X10443991Y-8914936D01*
X10443991Y-8914936D02*
X10434467Y-8895889D01*
X10434467Y-8895889D02*
X10424944Y-8857793D01*
X10424944Y-8857793D02*
X10424944Y-8810174D01*
X10424944Y-8810174D02*
X10434467Y-8772079D01*
X10434467Y-8772079D02*
X10443991Y-8753031D01*
X10443991Y-8753031D02*
X10453515Y-8743508D01*
X10453515Y-8743508D02*
X10472563Y-8733984D01*
X10663039Y-8733984D02*
X10682086Y-8733984D01*
X10682086Y-8733984D02*
X10701134Y-8743508D01*
X10701134Y-8743508D02*
X10710658Y-8753031D01*
X10710658Y-8753031D02*
X10720182Y-8772079D01*
X10720182Y-8772079D02*
X10729705Y-8810174D01*
X10729705Y-8810174D02*
X10729705Y-8857793D01*
X10729705Y-8857793D02*
X10720182Y-8895889D01*
X10720182Y-8895889D02*
X10710658Y-8914936D01*
X10710658Y-8914936D02*
X10701134Y-8924460D01*
X10701134Y-8924460D02*
X10682086Y-8933984D01*
X10682086Y-8933984D02*
X10663039Y-8933984D01*
X10663039Y-8933984D02*
X10643991Y-8924460D01*
X10643991Y-8924460D02*
X10634467Y-8914936D01*
X10634467Y-8914936D02*
X10624944Y-8895889D01*
X10624944Y-8895889D02*
X10615420Y-8857793D01*
X10615420Y-8857793D02*
X10615420Y-8810174D01*
X10615420Y-8810174D02*
X10624944Y-8772079D01*
X10624944Y-8772079D02*
X10634467Y-8753031D01*
X10634467Y-8753031D02*
X10643991Y-8743508D01*
X10643991Y-8743508D02*
X10663039Y-8733984D01*
X10815420Y-8933984D02*
X10815420Y-8800650D01*
X10815420Y-8819698D02*
X10824944Y-8810174D01*
X10824944Y-8810174D02*
X10843991Y-8800650D01*
X10843991Y-8800650D02*
X10872563Y-8800650D01*
X10872563Y-8800650D02*
X10891610Y-8810174D01*
X10891610Y-8810174D02*
X10901134Y-8829222D01*
X10901134Y-8829222D02*
X10901134Y-8933984D01*
X10901134Y-8829222D02*
X10910658Y-8810174D01*
X10910658Y-8810174D02*
X10929705Y-8800650D01*
X10929705Y-8800650D02*
X10958277Y-8800650D01*
X10958277Y-8800650D02*
X10977325Y-8810174D01*
X10977325Y-8810174D02*
X10986848Y-8829222D01*
X10986848Y-8829222D02*
X10986848Y-8933984D01*
X11082086Y-8933984D02*
X11082086Y-8800650D01*
X11082086Y-8819698D02*
X11091610Y-8810174D01*
X11091610Y-8810174D02*
X11110658Y-8800650D01*
X11110658Y-8800650D02*
X11139229Y-8800650D01*
X11139229Y-8800650D02*
X11158277Y-8810174D01*
X11158277Y-8810174D02*
X11167801Y-8829222D01*
X11167801Y-8829222D02*
X11167801Y-8933984D01*
X11167801Y-8829222D02*
X11177325Y-8810174D01*
X11177325Y-8810174D02*
X11196372Y-8800650D01*
X11196372Y-8800650D02*
X11224943Y-8800650D01*
X11224943Y-8800650D02*
X11243991Y-8810174D01*
X11243991Y-8810174D02*
X11253515Y-8829222D01*
X11253515Y-8829222D02*
X11253515Y-8933984D01*
X11643991Y-8724460D02*
X11472563Y-8981603D01*
X11901134Y-8733984D02*
X11920182Y-8733984D01*
X11920182Y-8733984D02*
X11939229Y-8743508D01*
X11939229Y-8743508D02*
X11948753Y-8753031D01*
X11948753Y-8753031D02*
X11958277Y-8772079D01*
X11958277Y-8772079D02*
X11967801Y-8810174D01*
X11967801Y-8810174D02*
X11967801Y-8857793D01*
X11967801Y-8857793D02*
X11958277Y-8895889D01*
X11958277Y-8895889D02*
X11948753Y-8914936D01*
X11948753Y-8914936D02*
X11939229Y-8924460D01*
X11939229Y-8924460D02*
X11920182Y-8933984D01*
X11920182Y-8933984D02*
X11901134Y-8933984D01*
X11901134Y-8933984D02*
X11882086Y-8924460D01*
X11882086Y-8924460D02*
X11872563Y-8914936D01*
X11872563Y-8914936D02*
X11863039Y-8895889D01*
X11863039Y-8895889D02*
X11853515Y-8857793D01*
X11853515Y-8857793D02*
X11853515Y-8810174D01*
X11853515Y-8810174D02*
X11863039Y-8772079D01*
X11863039Y-8772079D02*
X11872563Y-8753031D01*
X11872563Y-8753031D02*
X11882086Y-8743508D01*
X11882086Y-8743508D02*
X11901134Y-8733984D01*
X12053515Y-8914936D02*
X12063039Y-8924460D01*
X12063039Y-8924460D02*
X12053515Y-8933984D01*
X12053515Y-8933984D02*
X12043991Y-8924460D01*
X12043991Y-8924460D02*
X12053515Y-8914936D01*
X12053515Y-8914936D02*
X12053515Y-8933984D01*
X12186848Y-8733984D02*
X12205896Y-8733984D01*
X12205896Y-8733984D02*
X12224944Y-8743508D01*
X12224944Y-8743508D02*
X12234467Y-8753031D01*
X12234467Y-8753031D02*
X12243991Y-8772079D01*
X12243991Y-8772079D02*
X12253515Y-8810174D01*
X12253515Y-8810174D02*
X12253515Y-8857793D01*
X12253515Y-8857793D02*
X12243991Y-8895889D01*
X12243991Y-8895889D02*
X12234467Y-8914936D01*
X12234467Y-8914936D02*
X12224944Y-8924460D01*
X12224944Y-8924460D02*
X12205896Y-8933984D01*
X12205896Y-8933984D02*
X12186848Y-8933984D01*
X12186848Y-8933984D02*
X12167801Y-8924460D01*
X12167801Y-8924460D02*
X12158277Y-8914936D01*
X12158277Y-8914936D02*
X12148753Y-8895889D01*
X12148753Y-8895889D02*
X12139229Y-8857793D01*
X12139229Y-8857793D02*
X12139229Y-8810174D01*
X12139229Y-8810174D02*
X12148753Y-8772079D01*
X12148753Y-8772079D02*
X12158277Y-8753031D01*
X12158277Y-8753031D02*
X12167801Y-8743508D01*
X12167801Y-8743508D02*
X12186848Y-8733984D01*
X12443991Y-8933984D02*
X12329706Y-8933984D01*
X12386848Y-8933984D02*
X12386848Y-8733984D01*
X12386848Y-8733984D02*
X12367801Y-8762555D01*
X12367801Y-8762555D02*
X12348753Y-8781603D01*
X12348753Y-8781603D02*
X12329706Y-8791127D01*
X12634467Y-8933984D02*
X12520182Y-8933984D01*
X12577325Y-8933984D02*
X12577325Y-8733984D01*
X12577325Y-8733984D02*
X12558277Y-8762555D01*
X12558277Y-8762555D02*
X12539229Y-8781603D01*
X12539229Y-8781603D02*
X12520182Y-8791127D01*
X12748753Y-8819698D02*
X12729706Y-8810174D01*
X12729706Y-8810174D02*
X12720182Y-8800650D01*
X12720182Y-8800650D02*
X12710658Y-8781603D01*
X12710658Y-8781603D02*
X12710658Y-8772079D01*
X12710658Y-8772079D02*
X12720182Y-8753031D01*
X12720182Y-8753031D02*
X12729706Y-8743508D01*
X12729706Y-8743508D02*
X12748753Y-8733984D01*
X12748753Y-8733984D02*
X12786848Y-8733984D01*
X12786848Y-8733984D02*
X12805896Y-8743508D01*
X12805896Y-8743508D02*
X12815420Y-8753031D01*
X12815420Y-8753031D02*
X12824944Y-8772079D01*
X12824944Y-8772079D02*
X12824944Y-8781603D01*
X12824944Y-8781603D02*
X12815420Y-8800650D01*
X12815420Y-8800650D02*
X12805896Y-8810174D01*
X12805896Y-8810174D02*
X12786848Y-8819698D01*
X12786848Y-8819698D02*
X12748753Y-8819698D01*
X12748753Y-8819698D02*
X12729706Y-8829222D01*
X12729706Y-8829222D02*
X12720182Y-8838746D01*
X12720182Y-8838746D02*
X12710658Y-8857793D01*
X12710658Y-8857793D02*
X12710658Y-8895889D01*
X12710658Y-8895889D02*
X12720182Y-8914936D01*
X12720182Y-8914936D02*
X12729706Y-8924460D01*
X12729706Y-8924460D02*
X12748753Y-8933984D01*
X12748753Y-8933984D02*
X12786848Y-8933984D01*
X12786848Y-8933984D02*
X12805896Y-8924460D01*
X12805896Y-8924460D02*
X12815420Y-8914936D01*
X12815420Y-8914936D02*
X12824944Y-8895889D01*
X12824944Y-8895889D02*
X12824944Y-8857793D01*
X12824944Y-8857793D02*
X12815420Y-8838746D01*
X12815420Y-8838746D02*
X12805896Y-8829222D01*
X12805896Y-8829222D02*
X12786848Y-8819698D01*
X12901134Y-8733984D02*
X12901134Y-8772079D01*
X12977325Y-8733984D02*
X12977325Y-8772079D01*
X13272563Y-9010174D02*
X13263039Y-9000650D01*
X13263039Y-9000650D02*
X13243991Y-8972079D01*
X13243991Y-8972079D02*
X13234468Y-8953031D01*
X13234468Y-8953031D02*
X13224944Y-8924460D01*
X13224944Y-8924460D02*
X13215420Y-8876841D01*
X13215420Y-8876841D02*
X13215420Y-8838746D01*
X13215420Y-8838746D02*
X13224944Y-8791127D01*
X13224944Y-8791127D02*
X13234468Y-8762555D01*
X13234468Y-8762555D02*
X13243991Y-8743508D01*
X13243991Y-8743508D02*
X13263039Y-8714936D01*
X13263039Y-8714936D02*
X13272563Y-8705412D01*
X13453515Y-8933984D02*
X13339229Y-8933984D01*
X13396372Y-8933984D02*
X13396372Y-8733984D01*
X13396372Y-8733984D02*
X13377325Y-8762555D01*
X13377325Y-8762555D02*
X13358277Y-8781603D01*
X13358277Y-8781603D02*
X13339229Y-8791127D01*
X13624944Y-8733984D02*
X13586848Y-8733984D01*
X13586848Y-8733984D02*
X13567801Y-8743508D01*
X13567801Y-8743508D02*
X13558277Y-8753031D01*
X13558277Y-8753031D02*
X13539229Y-8781603D01*
X13539229Y-8781603D02*
X13529706Y-8819698D01*
X13529706Y-8819698D02*
X13529706Y-8895889D01*
X13529706Y-8895889D02*
X13539229Y-8914936D01*
X13539229Y-8914936D02*
X13548753Y-8924460D01*
X13548753Y-8924460D02*
X13567801Y-8933984D01*
X13567801Y-8933984D02*
X13605896Y-8933984D01*
X13605896Y-8933984D02*
X13624944Y-8924460D01*
X13624944Y-8924460D02*
X13634468Y-8914936D01*
X13634468Y-8914936D02*
X13643991Y-8895889D01*
X13643991Y-8895889D02*
X13643991Y-8848270D01*
X13643991Y-8848270D02*
X13634468Y-8829222D01*
X13634468Y-8829222D02*
X13624944Y-8819698D01*
X13624944Y-8819698D02*
X13605896Y-8810174D01*
X13605896Y-8810174D02*
X13567801Y-8810174D01*
X13567801Y-8810174D02*
X13548753Y-8819698D01*
X13548753Y-8819698D02*
X13539229Y-8829222D01*
X13539229Y-8829222D02*
X13529706Y-8848270D01*
X13882087Y-8933984D02*
X13882087Y-8733984D01*
X13967801Y-8933984D02*
X13967801Y-8829222D01*
X13967801Y-8829222D02*
X13958277Y-8810174D01*
X13958277Y-8810174D02*
X13939230Y-8800650D01*
X13939230Y-8800650D02*
X13910658Y-8800650D01*
X13910658Y-8800650D02*
X13891610Y-8810174D01*
X13891610Y-8810174D02*
X13882087Y-8819698D01*
X14091610Y-8933984D02*
X14072563Y-8924460D01*
X14072563Y-8924460D02*
X14063039Y-8914936D01*
X14063039Y-8914936D02*
X14053515Y-8895889D01*
X14053515Y-8895889D02*
X14053515Y-8838746D01*
X14053515Y-8838746D02*
X14063039Y-8819698D01*
X14063039Y-8819698D02*
X14072563Y-8810174D01*
X14072563Y-8810174D02*
X14091610Y-8800650D01*
X14091610Y-8800650D02*
X14120182Y-8800650D01*
X14120182Y-8800650D02*
X14139230Y-8810174D01*
X14139230Y-8810174D02*
X14148753Y-8819698D01*
X14148753Y-8819698D02*
X14158277Y-8838746D01*
X14158277Y-8838746D02*
X14158277Y-8895889D01*
X14158277Y-8895889D02*
X14148753Y-8914936D01*
X14148753Y-8914936D02*
X14139230Y-8924460D01*
X14139230Y-8924460D02*
X14120182Y-8933984D01*
X14120182Y-8933984D02*
X14091610Y-8933984D01*
X14272563Y-8933984D02*
X14253515Y-8924460D01*
X14253515Y-8924460D02*
X14243991Y-8905412D01*
X14243991Y-8905412D02*
X14243991Y-8733984D01*
X14424944Y-8924460D02*
X14405896Y-8933984D01*
X14405896Y-8933984D02*
X14367801Y-8933984D01*
X14367801Y-8933984D02*
X14348753Y-8924460D01*
X14348753Y-8924460D02*
X14339230Y-8905412D01*
X14339230Y-8905412D02*
X14339230Y-8829222D01*
X14339230Y-8829222D02*
X14348753Y-8810174D01*
X14348753Y-8810174D02*
X14367801Y-8800650D01*
X14367801Y-8800650D02*
X14405896Y-8800650D01*
X14405896Y-8800650D02*
X14424944Y-8810174D01*
X14424944Y-8810174D02*
X14434468Y-8829222D01*
X14434468Y-8829222D02*
X14434468Y-8848270D01*
X14434468Y-8848270D02*
X14339230Y-8867317D01*
X14510658Y-8924460D02*
X14529706Y-8933984D01*
X14529706Y-8933984D02*
X14567801Y-8933984D01*
X14567801Y-8933984D02*
X14586849Y-8924460D01*
X14586849Y-8924460D02*
X14596372Y-8905412D01*
X14596372Y-8905412D02*
X14596372Y-8895889D01*
X14596372Y-8895889D02*
X14586849Y-8876841D01*
X14586849Y-8876841D02*
X14567801Y-8867317D01*
X14567801Y-8867317D02*
X14539230Y-8867317D01*
X14539230Y-8867317D02*
X14520182Y-8857793D01*
X14520182Y-8857793D02*
X14510658Y-8838746D01*
X14510658Y-8838746D02*
X14510658Y-8829222D01*
X14510658Y-8829222D02*
X14520182Y-8810174D01*
X14520182Y-8810174D02*
X14539230Y-8800650D01*
X14539230Y-8800650D02*
X14567801Y-8800650D01*
X14567801Y-8800650D02*
X14586849Y-8810174D01*
X14663039Y-9010174D02*
X14672563Y-9000650D01*
X14672563Y-9000650D02*
X14691611Y-8972079D01*
X14691611Y-8972079D02*
X14701134Y-8953031D01*
X14701134Y-8953031D02*
X14710658Y-8924460D01*
X14710658Y-8924460D02*
X14720182Y-8876841D01*
X14720182Y-8876841D02*
X14720182Y-8838746D01*
X14720182Y-8838746D02*
X14710658Y-8791127D01*
X14710658Y-8791127D02*
X14701134Y-8762555D01*
X14701134Y-8762555D02*
X14691611Y-8743508D01*
X14691611Y-8743508D02*
X14672563Y-8714936D01*
X14672563Y-8714936D02*
X14663039Y-8705412D01*
D12*
X9697500Y-9106500D02*
G75*
G02*
X9597500Y-9106500I-50000J0D01*
G01*
X9597500Y-9106500D02*
G75*
G02*
X9697500Y-9106500I50000J0D01*
G01*
D11*
X10063039Y-9197984D02*
X9948753Y-9197984D01*
X10005896Y-9197984D02*
X10005896Y-8997984D01*
X10005896Y-8997984D02*
X9986848Y-9026555D01*
X9986848Y-9026555D02*
X9967801Y-9045603D01*
X9967801Y-9045603D02*
X9948753Y-9055127D01*
X10148753Y-9178936D02*
X10158277Y-9188460D01*
X10158277Y-9188460D02*
X10148753Y-9197984D01*
X10148753Y-9197984D02*
X10139229Y-9188460D01*
X10139229Y-9188460D02*
X10148753Y-9178936D01*
X10148753Y-9178936D02*
X10148753Y-9197984D01*
X10282086Y-8997984D02*
X10301134Y-8997984D01*
X10301134Y-8997984D02*
X10320182Y-9007508D01*
X10320182Y-9007508D02*
X10329705Y-9017031D01*
X10329705Y-9017031D02*
X10339229Y-9036079D01*
X10339229Y-9036079D02*
X10348753Y-9074174D01*
X10348753Y-9074174D02*
X10348753Y-9121793D01*
X10348753Y-9121793D02*
X10339229Y-9159889D01*
X10339229Y-9159889D02*
X10329705Y-9178936D01*
X10329705Y-9178936D02*
X10320182Y-9188460D01*
X10320182Y-9188460D02*
X10301134Y-9197984D01*
X10301134Y-9197984D02*
X10282086Y-9197984D01*
X10282086Y-9197984D02*
X10263039Y-9188460D01*
X10263039Y-9188460D02*
X10253515Y-9178936D01*
X10253515Y-9178936D02*
X10243991Y-9159889D01*
X10243991Y-9159889D02*
X10234467Y-9121793D01*
X10234467Y-9121793D02*
X10234467Y-9074174D01*
X10234467Y-9074174D02*
X10243991Y-9036079D01*
X10243991Y-9036079D02*
X10253515Y-9017031D01*
X10253515Y-9017031D02*
X10263039Y-9007508D01*
X10263039Y-9007508D02*
X10282086Y-8997984D01*
X10472563Y-8997984D02*
X10491610Y-8997984D01*
X10491610Y-8997984D02*
X10510658Y-9007508D01*
X10510658Y-9007508D02*
X10520182Y-9017031D01*
X10520182Y-9017031D02*
X10529705Y-9036079D01*
X10529705Y-9036079D02*
X10539229Y-9074174D01*
X10539229Y-9074174D02*
X10539229Y-9121793D01*
X10539229Y-9121793D02*
X10529705Y-9159889D01*
X10529705Y-9159889D02*
X10520182Y-9178936D01*
X10520182Y-9178936D02*
X10510658Y-9188460D01*
X10510658Y-9188460D02*
X10491610Y-9197984D01*
X10491610Y-9197984D02*
X10472563Y-9197984D01*
X10472563Y-9197984D02*
X10453515Y-9188460D01*
X10453515Y-9188460D02*
X10443991Y-9178936D01*
X10443991Y-9178936D02*
X10434467Y-9159889D01*
X10434467Y-9159889D02*
X10424944Y-9121793D01*
X10424944Y-9121793D02*
X10424944Y-9074174D01*
X10424944Y-9074174D02*
X10434467Y-9036079D01*
X10434467Y-9036079D02*
X10443991Y-9017031D01*
X10443991Y-9017031D02*
X10453515Y-9007508D01*
X10453515Y-9007508D02*
X10472563Y-8997984D01*
X10663039Y-8997984D02*
X10682086Y-8997984D01*
X10682086Y-8997984D02*
X10701134Y-9007508D01*
X10701134Y-9007508D02*
X10710658Y-9017031D01*
X10710658Y-9017031D02*
X10720182Y-9036079D01*
X10720182Y-9036079D02*
X10729705Y-9074174D01*
X10729705Y-9074174D02*
X10729705Y-9121793D01*
X10729705Y-9121793D02*
X10720182Y-9159889D01*
X10720182Y-9159889D02*
X10710658Y-9178936D01*
X10710658Y-9178936D02*
X10701134Y-9188460D01*
X10701134Y-9188460D02*
X10682086Y-9197984D01*
X10682086Y-9197984D02*
X10663039Y-9197984D01*
X10663039Y-9197984D02*
X10643991Y-9188460D01*
X10643991Y-9188460D02*
X10634467Y-9178936D01*
X10634467Y-9178936D02*
X10624944Y-9159889D01*
X10624944Y-9159889D02*
X10615420Y-9121793D01*
X10615420Y-9121793D02*
X10615420Y-9074174D01*
X10615420Y-9074174D02*
X10624944Y-9036079D01*
X10624944Y-9036079D02*
X10634467Y-9017031D01*
X10634467Y-9017031D02*
X10643991Y-9007508D01*
X10643991Y-9007508D02*
X10663039Y-8997984D01*
X10815420Y-9197984D02*
X10815420Y-9064650D01*
X10815420Y-9083698D02*
X10824944Y-9074174D01*
X10824944Y-9074174D02*
X10843991Y-9064650D01*
X10843991Y-9064650D02*
X10872563Y-9064650D01*
X10872563Y-9064650D02*
X10891610Y-9074174D01*
X10891610Y-9074174D02*
X10901134Y-9093222D01*
X10901134Y-9093222D02*
X10901134Y-9197984D01*
X10901134Y-9093222D02*
X10910658Y-9074174D01*
X10910658Y-9074174D02*
X10929705Y-9064650D01*
X10929705Y-9064650D02*
X10958277Y-9064650D01*
X10958277Y-9064650D02*
X10977325Y-9074174D01*
X10977325Y-9074174D02*
X10986848Y-9093222D01*
X10986848Y-9093222D02*
X10986848Y-9197984D01*
X11082086Y-9197984D02*
X11082086Y-9064650D01*
X11082086Y-9083698D02*
X11091610Y-9074174D01*
X11091610Y-9074174D02*
X11110658Y-9064650D01*
X11110658Y-9064650D02*
X11139229Y-9064650D01*
X11139229Y-9064650D02*
X11158277Y-9074174D01*
X11158277Y-9074174D02*
X11167801Y-9093222D01*
X11167801Y-9093222D02*
X11167801Y-9197984D01*
X11167801Y-9093222D02*
X11177325Y-9074174D01*
X11177325Y-9074174D02*
X11196372Y-9064650D01*
X11196372Y-9064650D02*
X11224943Y-9064650D01*
X11224943Y-9064650D02*
X11243991Y-9074174D01*
X11243991Y-9074174D02*
X11253515Y-9093222D01*
X11253515Y-9093222D02*
X11253515Y-9197984D01*
X11643991Y-8988460D02*
X11472563Y-9245603D01*
X11901134Y-8997984D02*
X11920182Y-8997984D01*
X11920182Y-8997984D02*
X11939229Y-9007508D01*
X11939229Y-9007508D02*
X11948753Y-9017031D01*
X11948753Y-9017031D02*
X11958277Y-9036079D01*
X11958277Y-9036079D02*
X11967801Y-9074174D01*
X11967801Y-9074174D02*
X11967801Y-9121793D01*
X11967801Y-9121793D02*
X11958277Y-9159889D01*
X11958277Y-9159889D02*
X11948753Y-9178936D01*
X11948753Y-9178936D02*
X11939229Y-9188460D01*
X11939229Y-9188460D02*
X11920182Y-9197984D01*
X11920182Y-9197984D02*
X11901134Y-9197984D01*
X11901134Y-9197984D02*
X11882086Y-9188460D01*
X11882086Y-9188460D02*
X11872563Y-9178936D01*
X11872563Y-9178936D02*
X11863039Y-9159889D01*
X11863039Y-9159889D02*
X11853515Y-9121793D01*
X11853515Y-9121793D02*
X11853515Y-9074174D01*
X11853515Y-9074174D02*
X11863039Y-9036079D01*
X11863039Y-9036079D02*
X11872563Y-9017031D01*
X11872563Y-9017031D02*
X11882086Y-9007508D01*
X11882086Y-9007508D02*
X11901134Y-8997984D01*
X12053515Y-9178936D02*
X12063039Y-9188460D01*
X12063039Y-9188460D02*
X12053515Y-9197984D01*
X12053515Y-9197984D02*
X12043991Y-9188460D01*
X12043991Y-9188460D02*
X12053515Y-9178936D01*
X12053515Y-9178936D02*
X12053515Y-9197984D01*
X12186848Y-8997984D02*
X12205896Y-8997984D01*
X12205896Y-8997984D02*
X12224944Y-9007508D01*
X12224944Y-9007508D02*
X12234467Y-9017031D01*
X12234467Y-9017031D02*
X12243991Y-9036079D01*
X12243991Y-9036079D02*
X12253515Y-9074174D01*
X12253515Y-9074174D02*
X12253515Y-9121793D01*
X12253515Y-9121793D02*
X12243991Y-9159889D01*
X12243991Y-9159889D02*
X12234467Y-9178936D01*
X12234467Y-9178936D02*
X12224944Y-9188460D01*
X12224944Y-9188460D02*
X12205896Y-9197984D01*
X12205896Y-9197984D02*
X12186848Y-9197984D01*
X12186848Y-9197984D02*
X12167801Y-9188460D01*
X12167801Y-9188460D02*
X12158277Y-9178936D01*
X12158277Y-9178936D02*
X12148753Y-9159889D01*
X12148753Y-9159889D02*
X12139229Y-9121793D01*
X12139229Y-9121793D02*
X12139229Y-9074174D01*
X12139229Y-9074174D02*
X12148753Y-9036079D01*
X12148753Y-9036079D02*
X12158277Y-9017031D01*
X12158277Y-9017031D02*
X12167801Y-9007508D01*
X12167801Y-9007508D02*
X12186848Y-8997984D01*
X12320182Y-8997984D02*
X12443991Y-8997984D01*
X12443991Y-8997984D02*
X12377325Y-9074174D01*
X12377325Y-9074174D02*
X12405896Y-9074174D01*
X12405896Y-9074174D02*
X12424944Y-9083698D01*
X12424944Y-9083698D02*
X12434467Y-9093222D01*
X12434467Y-9093222D02*
X12443991Y-9112270D01*
X12443991Y-9112270D02*
X12443991Y-9159889D01*
X12443991Y-9159889D02*
X12434467Y-9178936D01*
X12434467Y-9178936D02*
X12424944Y-9188460D01*
X12424944Y-9188460D02*
X12405896Y-9197984D01*
X12405896Y-9197984D02*
X12348753Y-9197984D01*
X12348753Y-9197984D02*
X12329706Y-9188460D01*
X12329706Y-9188460D02*
X12320182Y-9178936D01*
X12539229Y-9197984D02*
X12577325Y-9197984D01*
X12577325Y-9197984D02*
X12596372Y-9188460D01*
X12596372Y-9188460D02*
X12605896Y-9178936D01*
X12605896Y-9178936D02*
X12624944Y-9150365D01*
X12624944Y-9150365D02*
X12634467Y-9112270D01*
X12634467Y-9112270D02*
X12634467Y-9036079D01*
X12634467Y-9036079D02*
X12624944Y-9017031D01*
X12624944Y-9017031D02*
X12615420Y-9007508D01*
X12615420Y-9007508D02*
X12596372Y-8997984D01*
X12596372Y-8997984D02*
X12558277Y-8997984D01*
X12558277Y-8997984D02*
X12539229Y-9007508D01*
X12539229Y-9007508D02*
X12529706Y-9017031D01*
X12529706Y-9017031D02*
X12520182Y-9036079D01*
X12520182Y-9036079D02*
X12520182Y-9083698D01*
X12520182Y-9083698D02*
X12529706Y-9102746D01*
X12529706Y-9102746D02*
X12539229Y-9112270D01*
X12539229Y-9112270D02*
X12558277Y-9121793D01*
X12558277Y-9121793D02*
X12596372Y-9121793D01*
X12596372Y-9121793D02*
X12615420Y-9112270D01*
X12615420Y-9112270D02*
X12624944Y-9102746D01*
X12624944Y-9102746D02*
X12634467Y-9083698D01*
X12805896Y-9064650D02*
X12805896Y-9197984D01*
X12758277Y-8988460D02*
X12710658Y-9131317D01*
X12710658Y-9131317D02*
X12834467Y-9131317D01*
X12901134Y-8997984D02*
X12901134Y-9036079D01*
X12977325Y-8997984D02*
X12977325Y-9036079D01*
X13272563Y-9274174D02*
X13263039Y-9264650D01*
X13263039Y-9264650D02*
X13243991Y-9236079D01*
X13243991Y-9236079D02*
X13234468Y-9217031D01*
X13234468Y-9217031D02*
X13224944Y-9188460D01*
X13224944Y-9188460D02*
X13215420Y-9140841D01*
X13215420Y-9140841D02*
X13215420Y-9102746D01*
X13215420Y-9102746D02*
X13224944Y-9055127D01*
X13224944Y-9055127D02*
X13234468Y-9026555D01*
X13234468Y-9026555D02*
X13243991Y-9007508D01*
X13243991Y-9007508D02*
X13263039Y-8978936D01*
X13263039Y-8978936D02*
X13272563Y-8969412D01*
X13453515Y-9197984D02*
X13339229Y-9197984D01*
X13396372Y-9197984D02*
X13396372Y-8997984D01*
X13396372Y-8997984D02*
X13377325Y-9026555D01*
X13377325Y-9026555D02*
X13358277Y-9045603D01*
X13358277Y-9045603D02*
X13339229Y-9055127D01*
X13643991Y-9197984D02*
X13529706Y-9197984D01*
X13586848Y-9197984D02*
X13586848Y-8997984D01*
X13586848Y-8997984D02*
X13567801Y-9026555D01*
X13567801Y-9026555D02*
X13548753Y-9045603D01*
X13548753Y-9045603D02*
X13529706Y-9055127D01*
X13882087Y-9197984D02*
X13882087Y-8997984D01*
X13967801Y-9197984D02*
X13967801Y-9093222D01*
X13967801Y-9093222D02*
X13958277Y-9074174D01*
X13958277Y-9074174D02*
X13939230Y-9064650D01*
X13939230Y-9064650D02*
X13910658Y-9064650D01*
X13910658Y-9064650D02*
X13891610Y-9074174D01*
X13891610Y-9074174D02*
X13882087Y-9083698D01*
X14091610Y-9197984D02*
X14072563Y-9188460D01*
X14072563Y-9188460D02*
X14063039Y-9178936D01*
X14063039Y-9178936D02*
X14053515Y-9159889D01*
X14053515Y-9159889D02*
X14053515Y-9102746D01*
X14053515Y-9102746D02*
X14063039Y-9083698D01*
X14063039Y-9083698D02*
X14072563Y-9074174D01*
X14072563Y-9074174D02*
X14091610Y-9064650D01*
X14091610Y-9064650D02*
X14120182Y-9064650D01*
X14120182Y-9064650D02*
X14139230Y-9074174D01*
X14139230Y-9074174D02*
X14148753Y-9083698D01*
X14148753Y-9083698D02*
X14158277Y-9102746D01*
X14158277Y-9102746D02*
X14158277Y-9159889D01*
X14158277Y-9159889D02*
X14148753Y-9178936D01*
X14148753Y-9178936D02*
X14139230Y-9188460D01*
X14139230Y-9188460D02*
X14120182Y-9197984D01*
X14120182Y-9197984D02*
X14091610Y-9197984D01*
X14272563Y-9197984D02*
X14253515Y-9188460D01*
X14253515Y-9188460D02*
X14243991Y-9169412D01*
X14243991Y-9169412D02*
X14243991Y-8997984D01*
X14424944Y-9188460D02*
X14405896Y-9197984D01*
X14405896Y-9197984D02*
X14367801Y-9197984D01*
X14367801Y-9197984D02*
X14348753Y-9188460D01*
X14348753Y-9188460D02*
X14339230Y-9169412D01*
X14339230Y-9169412D02*
X14339230Y-9093222D01*
X14339230Y-9093222D02*
X14348753Y-9074174D01*
X14348753Y-9074174D02*
X14367801Y-9064650D01*
X14367801Y-9064650D02*
X14405896Y-9064650D01*
X14405896Y-9064650D02*
X14424944Y-9074174D01*
X14424944Y-9074174D02*
X14434468Y-9093222D01*
X14434468Y-9093222D02*
X14434468Y-9112270D01*
X14434468Y-9112270D02*
X14339230Y-9131317D01*
X14510658Y-9188460D02*
X14529706Y-9197984D01*
X14529706Y-9197984D02*
X14567801Y-9197984D01*
X14567801Y-9197984D02*
X14586849Y-9188460D01*
X14586849Y-9188460D02*
X14596372Y-9169412D01*
X14596372Y-9169412D02*
X14596372Y-9159889D01*
X14596372Y-9159889D02*
X14586849Y-9140841D01*
X14586849Y-9140841D02*
X14567801Y-9131317D01*
X14567801Y-9131317D02*
X14539230Y-9131317D01*
X14539230Y-9131317D02*
X14520182Y-9121793D01*
X14520182Y-9121793D02*
X14510658Y-9102746D01*
X14510658Y-9102746D02*
X14510658Y-9093222D01*
X14510658Y-9093222D02*
X14520182Y-9074174D01*
X14520182Y-9074174D02*
X14539230Y-9064650D01*
X14539230Y-9064650D02*
X14567801Y-9064650D01*
X14567801Y-9064650D02*
X14586849Y-9074174D01*
X14663039Y-9274174D02*
X14672563Y-9264650D01*
X14672563Y-9264650D02*
X14691611Y-9236079D01*
X14691611Y-9236079D02*
X14701134Y-9217031D01*
X14701134Y-9217031D02*
X14710658Y-9188460D01*
X14710658Y-9188460D02*
X14720182Y-9140841D01*
X14720182Y-9140841D02*
X14720182Y-9102746D01*
X14720182Y-9102746D02*
X14710658Y-9055127D01*
X14710658Y-9055127D02*
X14701134Y-9026555D01*
X14701134Y-9026555D02*
X14691611Y-9007508D01*
X14691611Y-9007508D02*
X14672563Y-8978936D01*
X14672563Y-8978936D02*
X14663039Y-8969412D01*
M02*
